<svg width="28" height="28" fill="none" xmlns="http://www.w3.org/2000/svg" viewBox="0 0 28 28">
    <style type="text/css">
        .st0{fill:#FFB900;}
        .st1{fill:#00BAFF;}
        .st2{fill:#FF3845;}
        .st3{fill:#A600D1;}
        .st4{fill:#7A9199;}
    </style>
    <rect id="hq-frame" class="cls-1" rx="14" width="28" height="28" fill="#000" />
    <g>
        <polygon class="st0" points="14.9,11.6 14.9,14.2 14.7,14.2 10.9,10.5 12.4,9 	" />
        <polygon class="st1"
            points="12.4,9 10.9,10.5 9.6,9.2 8.1,9.2 8.1,13.3 6,15.3 6,7.2 10.8,7.2 	" />
        <polygon class="st0" points="8.1,18.8 10.8,18.8 10.8,20.8 6,20.8 6,15.3 8.1,13.3 	" />
        <polygon class="st2"
            points="14.9,7.2 14.9,9.2 17.6,9.2 17.6,11.9 19.7,11.9 19.7,9.2 19.7,7.2 	" />
        <polygon class="st2" points="14.7,17.4 13.1,18.9 10.8,16.4 10.8,13.8 11,13.8 	" />
        <polygon class="st3"
            points="19.7,14.2 19.7,20.8 14.9,20.8 13.1,18.9 14.7,17.4 16.1,18.8 17.6,18.8 17.6,14.2 	" />
        <polygon class="st4"
            points="21.8,20 21.6,20.4 21.4,20 21.2,20 21.2,20.8 21.4,20.8 21.4,20.3 21.6,20.6 21.6,20.6 21.8,20.3 
		21.8,20.8 22,20.8 22,20 	" />
        <polygon class="st4"
            points="20.3,20.2 20.6,20.2 20.6,20.8 20.8,20.8 20.8,20.2 21,20.2 21,20 20.3,20 	" />
    </g>
</svg>