<svg width="28" height="28" fill="none" xmlns="http://www.w3.org/2000/svg" viewBox="0 0 100 100">
    <defs>
        <style>
            .cls-1{fill:#000;}.cls-2{fill:#ff8150;}.cls-3{fill:#ffb969;}.cls-4{fill:#ffbc69;}.cls-11,.cls-12,.cls-14,.cls-16,.cls-17,.cls-4,.cls-5,.cls-8{fill-rule:evenodd;}.cls-5{fill:#ffdf76;}.cls-6{fill:#ffb768;}.cls-7{fill:#00abf8;}.cls-8{fill:#3dd6f2;}.cls-9{fill:#f7605a;}.cls-10{fill:#a71fd2;}.cls-11{fill:#8012ab;}.cls-12{fill:#580789;}.cls-13{fill:#ff7e51;}.cls-14{fill:#ed316a;}.cls-15{fill:#f54e61;}.cls-16{fill:#ffb268;}.cls-17{fill:#fa946d;}</style>
    </defs>
    <g id="Layer_2" data-name="Layer 2">
        <g id="HQ_Logo" data-name="HQ Logo">
            <rect id="hq-frame" class="cls-1" rx="50" width="100" height="100" />
            <g id="hq">
                <g id="hq-shadow">
                    <path
                        d="M44.69,66.71H36.31V54.39H25.38V66.71H17V35.29h8.38V47.1H36.31V35.29h8.38Z" />
                    <path
                        d="M74.24,64.28C71.31,66.83,66.83,67,63.39,67c-9.72,0-14.57-2.14-14.57-12.65V47.69c0-10.3,5-12.65,14.57-12.65S78,37.39,78,47.69v7.88a11.45,11.45,0,0,1-.63,4.18l3.44,2.35-3.44,4.65Zm-4.9-10.22V49c0-5.57-.71-6.62-6-6.62S57.44,43.38,57.44,49V54.6c0,4.82,1.81,5.07,6,5.07a10.47,10.47,0,0,0,3.73-.46l-5.57-3.64,3.31-4.7Z" />
                </g>
                <g id="hq-fg">
                    <g id="H">
                        <polygon class="cls-2"
                            points="46.83 33.3 46.83 65.31 38.29 65.31 38.29 52.76 27.15 52.76 27.15 65.31 18.61 65.31 18.61 49.42 27.15 42.17 27.15 45.34 38.29 45.34 38.29 33.3 46.83 33.3" />
                        <path class="cls-3"
                            d="M46.83,33.3V43.89c-2.85,1.83-5.72,3.72-8.56,5.63A100.42,100.42,0,0,0,41.85,33.3Z" />
                        <path class="cls-4"
                            d="M41.85,33.3a101.24,101.24,0,0,1-4.64,19.46H27.15V65.31H18.61V49.42l8.54-7.25v3.17H38.29v-12Z" />
                        <path class="cls-5"
                            d="M41.85,33.3a100.3,100.3,0,0,1-3.58,16.21h0c-1.61,1.07-3.21,2.16-4.79,3.24H27.15v4.41c-3,2.12-5.88,4.19-8.54,6.13V49.42l8.54-7.25v3.17H38.29v-12Z" />
                        <path class="cls-6" d="M38.45,49.39l-.18.13h0Z" />
                        <polygon class="cls-7"
                            points="18.61 33.3 27.15 33.3 27.15 42.17 18.61 49.42 18.61 33.3" />
                        <polygon class="cls-8"
                            points="27.15 33.3 27.15 33.57 18.61 46.94 18.61 33.3 27.15 33.3" />
                    </g>
                    <g id="Q">
                        <path class="cls-9"
                            d="M80.11,58.23a11,11,0,0,0,.63-3.6c0-.21,0-.44,0-.67v-8a18,18,0,0,0-1.07-6.74c-.12-.3-.25-.58-.39-.85A8.75,8.75,0,0,0,73.76,34,26.93,26.93,0,0,0,66,33h-.06c-8.44,0-13.42,1.8-14.58,9.14a19.61,19.61,0,0,0-.23,2.16c0,.51,0,1,0,1.59v6.75c0,4.6.91,7.63,2.74,9.58a8,8,0,0,0,2.49,1.8h0l.5.22a19.72,19.72,0,0,0,6.45,1.23q1.27.06,2.67.06a30.59,30.59,0,0,0,5.92-.43A10.7,10.7,0,0,0,77,62.84l3.16,2.52,3.5-4.74ZM72,52.42,71.31,52l-3.92-2.79L64,54l2.79,1.83,2.88,1.88a10.61,10.61,0,0,1-3.8.47c-.66,0-1.27,0-1.82,0-1.67-.1-2.82-.41-3.49-1.42a5,5,0,0,1-.68-2.28A12.44,12.44,0,0,1,59.83,53V47.21c0-2.29.11-3.84.6-4.86.72-1.5,2.24-1.88,5.42-1.88a17.31,17.31,0,0,1,2.7.16,6.07,6.07,0,0,1,1,.21,2.81,2.81,0,0,1,1.78,1.4c.55,1,.68,2.59.68,5Z" />
                        <path class="cls-10"
                            d="M83.61,60.62l-3.5,4.74L77,62.84a10.7,10.7,0,0,1-5.14,2.3,30.59,30.59,0,0,1-5.92.43q-1.4,0-2.67-.06a19.72,19.72,0,0,1-6.45-1.23l7.3-6.17c.55,0,1.16,0,1.82,0a10.61,10.61,0,0,0,3.8-.47l-2.88-1.88L71.31,52l.65.45v-1a29.07,29.07,0,0,1,8.79-5.28V54c0,.23,0,.46,0,.67a11,11,0,0,1-.63,3.6Z" />
                        <path class="cls-11"
                            d="M80.75,45.93v8c0,.23,0,.46,0,.67C78.09,57.45,75,61,71.81,65.14a30.59,30.59,0,0,1-5.92.43q-1.4,0-2.67-.06a19.72,19.72,0,0,1-6.45-1.23l-.5-.22a.64.64,0,0,1,.08-.14l.28-.48.2-.36c.93-1.59,2.28-3.9,3.75-6.39.67,1,1.82,1.32,3.49,1.42.55,0,1.16,0,1.82,0a10.61,10.61,0,0,0,3.8-.47l-2.88-1.88L64,54l3.37-4.78L71.31,52l.65.45V47.21c0-2.38-.13-4-.68-5a33,33,0,0,1,8.4-3.05A18,18,0,0,1,80.75,45.93Z" />
                        <path class="cls-12"
                            d="M80.75,45.93v4.19C76.49,53,70.69,57.68,63.22,65.51a19.72,19.72,0,0,1-6.45-1.23l-.5-.22h0a.64.64,0,0,1,.08-.14l.28-.48.2-.36c.93-1.59,2.28-3.9,3.75-6.39.67,1,1.82,1.32,3.49,1.42.55,0,1.16,0,1.82,0a10.61,10.61,0,0,0,3.8-.47l-2.88-1.88L64,54l3.37-4.78L71.31,52l.65.45V47.21c0-2.38-.13-4-.68-5a33,33,0,0,1,8.4-3.05A18,18,0,0,1,80.75,45.93Z" />
                        <path class="cls-13"
                            d="M51.31,42.18a19.61,19.61,0,0,0-.23,2.16c0,.51,0,1,0,1.59v6.75c0,4.6.91,7.63,2.74,9.58a7.55,7.55,0,0,0,1.88,1.48c.32-7.23,1-16.49,1.37-25.25.07-1.44.12-2.85.16-4.25C54,35.49,52,37.89,51.31,42.18Z" />
                        <path class="cls-14"
                            d="M64.07,58.11l-7.3,6.17a8.41,8.41,0,0,1-3-2c2-2.48,4.06-5.12,6.12-7.85C60.19,57.31,61.51,58,64.07,58.11Z" />
                        <path class="cls-14" d="M67.39,49.18,71.31,52l-4.5,3.82L64,54Z" />
                        <path class="cls-14"
                            d="M80.75,45.93v.22A29.07,29.07,0,0,0,72,51.43V47.21c0-.52,0-1,0-1.45a2.26,2.26,0,0,0,0-.26c0-.13,0-.25,0-.37s0-.15,0-.23,0-.14,0-.21l0-.35,0-.24h0c0-.08,0-.16,0-.24a5.44,5.44,0,0,0-.21-.92l0-.12a.36.36,0,0,0,0-.09.42.42,0,0,0,0-.1,1.34,1.34,0,0,0-.07-.18l-.09-.19h0l-.08-.15-.1-.15L71,41.8l-.12-.13a.93.93,0,0,0-.14-.14l-.1-.09h0l-.12-.09a3,3,0,0,0-.35-.22L70,41.05,69.91,41l-.11,0-.3-.11.31-.48c1.4-2.16,2.73-4.31,4-6.41a8.73,8.73,0,0,1,5.73,4.8c.07.14.13.29.19.44a2.49,2.49,0,0,1,.11.29l.12.33s0,.09,0,.14a2.76,2.76,0,0,1,.08.27c0,.09.06.19.08.28a1,1,0,0,1,0,.14c0,.11.06.22.08.33a2.82,2.82,0,0,1,.07.31c0,.07,0,.14,0,.21s.07.35.1.53,0,.18,0,.27,0,.18,0,.27a2.7,2.7,0,0,0,0,.28l0,.29c0,.12,0,.24,0,.37l0,.36V44c0,.13,0,.27,0,.41s0,.2,0,.3V45a.45.45,0,0,1,0,.11c0,.11,0,.23,0,.34Z" />
                        <path class="cls-15"
                            d="M53.78,62.26l.25.26h0v0h0l.12.12h0l0,.06.15.12,0,0,0,0,.15.13,0,0,.24.18h0l.17.12,0,0,.06,0,.2.12.22.14,0,0q.09-2,.21-4.11Z" />
                        <path class="cls-16"
                            d="M66,33c-4.69,2.75-9.67,5.88-14.64,9.14C52.47,34.84,57.45,33,65.89,33Z" />
                        <path class="cls-17"
                            d="M66,33c-2.88,1.69-5.88,3.53-8.92,5.45.07-1.44.12-2.85.16-4.25a24.51,24.51,0,0,1,8.7-1.2Z" />
                    </g>
                </g>
            </g>
        </g>
    </g>
</svg>