<svg width="28" height="28" fill="none" xmlns="http://www.w3.org/2000/svg">
    <rect width="28" height="28" rx="14" fill="#FFF" />
    <path fill="#066D54"
        d="M22,14.1v4.5c-2.7,1.5-5.3,3.1-8,4.6c-2.7-1.5-5.3-3.1-8-4.6V9.4c2.7-1.5,5.3-3.1,8-4.6
c1.3,0.8,2.7,1.6,3.9,2.4c-2.7,1.5-5.2,3-7.9,4.5v4.8c1.3,0.7,2.6,1.4,3.9,2.2C16.7,17.1,19.3,15.6,22,14.1L22,14.1z" />
    <path fill="#A4A4A4"
        d="M22,14.1c-2.7,1.5-5.3,3-8,4.5c0-1.6,0.1-3.1,0.1-4.7c-1.3-0.8-2.7-1.5-4-2.3c2.6-1.5,5.3-3,7.9-4.5
c1.4,0.8,2.7,1.5,4.1,2.3c0,0,0,0,0,0C22,11,22,12.6,22,14.1z" />
</svg>