<svg xmlns="http://www.w3.org/2000/svg" viewBox="0 0 36 36" fill="none">
    <path d="M3.28739 35.457C1.12289 35.457 -0.450763 33.3218 0.116687 31.1573L2.85449 20.9022C3.25814 19.4105 4.53344 18.4043 6.02519 18.4043C8.18969 18.4043 9.76334 20.5395 9.19589 22.704L6.45809 32.9591C6.07784 34.4216 4.77914 35.457 3.28739 35.457Z" fill="#6EBF7C" />
    <path d="M14.1276 35.4572C11.9631 35.4572 10.3953 33.3453 10.9627 31.2101L15.8592 13.0341C16.2628 11.5658 17.5381 10.5654 19.024 10.5654C21.1885 10.5654 22.7563 12.6773 22.1889 14.8125L17.2924 32.9885C16.8888 34.4334 15.5901 35.4572 14.1276 35.4572Z" fill="#4C8BF5" />
    <path d="M24.8149 35.4567C22.7206 35.4567 21.1938 33.5262 21.7378 31.6015L28.7871 7.014C29.1673 5.7036 30.4192 4.7793 31.8642 4.7793C33.9585 4.7793 35.4853 6.7098 34.9413 8.63445L27.892 33.222C27.5118 34.5382 26.2599 35.4567 24.8149 35.4567Z" fill="#FFCE43" />
    <path d="M18.4219 3.28217L16.0059 2.04782L25.5297 0.199219L18.4219 3.28217Z" fill="#F05757" />
    <path d="M18.4271 3.28801L18.0234 5.49931L19.2461 4.25326L25.529 0.193359L18.4271 3.28801Z" fill="#D2373A" />
    <path d="M18.0293 5.49309L19.7667 5.05434L19.2519 4.22949L18.0293 5.49309Z" fill="#B32D2F" />
    <path d="M19.2637 4.24741L20.539 7.15486L25.529 0.193359L19.2637 4.24741Z" fill="#F05757" />
    <g opacity="0.8">
        <path d="M33.8363 17.8489L33.7544 17.6617C33.6199 17.3341 33.538 17.1703 33.538 17.1703L33.4561 16.9772L33.8363 16.7842L33.9182 16.9772C33.9182 16.9772 34.0001 17.1703 34.1347 17.5271L34.2166 17.7202L33.8363 17.8489Z" fill="#ED1C24" />
        <path d="M14.4663 7.89752L14.2498 7.54067L14.437 7.42952C14.7646 7.20722 15.063 7.02002 15.3847 6.82697L15.5719 6.71582L15.7884 7.07267L15.6012 7.18382C15.2736 7.37687 14.9752 7.59332 14.6535 7.78637L14.4663 7.89752ZM12.5943 9.10262L12.3778 8.74577L12.565 8.63462C12.8634 8.41232 13.191 8.22512 13.5127 8.03207L13.6999 7.92092L13.9164 8.27777L13.7292 8.38892C13.4308 8.61122 13.1032 8.79842 12.8049 8.99147L12.5943 9.10262ZM10.7164 10.3136L10.5 9.95672L10.6872 9.84557C10.9855 9.62327 11.3131 9.43607 11.6115 9.24302L11.7987 9.13187L12.0151 9.48872L11.8279 9.59987C11.5296 9.82217 11.202 10.0094 10.9036 10.2024L10.7164 10.3136ZM8.8737 11.5713L8.628 11.2145L8.7918 11.1033C9.0609 10.9103 9.33585 10.7465 9.60495 10.5534L9.9033 10.3604L10.149 10.7172L9.85065 10.9103C9.58155 11.1033 9.3066 11.2671 9.0609 11.4602L8.8737 11.5713ZM7.0836 12.8876L6.8145 12.5307L6.9783 12.3962C7.2474 12.1739 7.575 11.9574 7.87335 11.7351L8.03715 11.6006L8.28285 11.9574L8.11905 12.092C7.8207 12.3143 7.4931 12.5307 7.224 12.753L7.0836 12.8876ZM5.36955 14.315L5.10045 13.9874L5.26425 13.8528C5.50995 13.6305 5.75565 13.4141 5.9955 13.221L6.2646 12.9987L6.5337 13.3263L6.2646 13.5486C6.0189 13.7709 5.7732 13.9874 5.53335 14.1804L5.36955 14.315ZM3.7959 15.8828L3.49755 15.6078L3.6321 15.444C3.68475 15.3914 3.74325 15.3329 3.7959 15.2802C3.9831 15.0579 4.2054 14.8415 4.42185 14.6484L4.5564 14.5139L4.85475 14.8181L4.7202 14.9526C4.50375 15.1749 4.3107 15.3621 4.1235 15.5844C4.07085 15.6371 4.01235 15.6956 3.9597 15.7482L3.7959 15.8828ZM2.4387 17.6378L2.0877 17.3921L2.22225 17.2283C2.4387 16.9241 2.65515 16.6257 2.90085 16.3215L3.0354 16.1577L3.363 16.4327L3.22845 16.5965C2.98275 16.8714 2.7663 17.1756 2.54985 17.474L2.4387 17.6378ZM1.3272 19.5273L0.946946 19.3343L1.02885 19.1412C1.19265 18.8136 1.37985 18.4802 1.5729 18.1526L1.68405 17.9595L2.03505 18.1818L1.9239 18.3749C1.7367 18.7025 1.5729 19.0067 1.37985 19.3343L1.3272 19.5273ZM34.5259 19.9661L34.4733 19.7438C34.3914 19.3869 34.2861 19.0301 34.1457 18.6732L34.0638 18.4509L34.4733 18.3164L34.5552 18.5387C34.6663 18.8955 34.7716 19.2524 34.8828 19.6385L34.9354 19.8608L34.5259 19.9661ZM0.595946 21.6158L0.186446 21.5046L0.239096 21.2823C0.320996 20.9255 0.455546 20.5394 0.590096 20.1825L0.671996 19.9895L1.0815 20.1533L0.999596 20.3463C0.865046 20.7032 0.753896 21.06 0.648596 21.3876L0.595946 21.6158ZM34.9062 22.1657L34.8769 21.9434C34.8243 21.5865 34.7658 21.2297 34.7131 20.8436L34.6605 20.6213L35.0934 20.5394L35.146 20.7617C35.2279 21.1478 35.2806 21.528 35.3098 21.8849L35.3391 22.1072L34.9062 22.1657ZM0.022646 23.8095V23.5872C0.022646 23.4527 0.022646 23.283 0.022646 23.1485C0.022646 22.9262 0.0226459 22.6805 0.0518959 22.4348L0.0811459 22.2125L0.514046 22.2651L0.484796 22.4874C0.455546 22.7097 0.455546 22.9262 0.455546 23.1485C0.455546 23.283 0.455546 23.4234 0.455546 23.5872V23.8095H0.022646ZM35.3683 24.3887L34.9354 24.3594V24.1371C34.9354 23.9148 34.9647 23.6984 34.9647 23.4761C34.9647 23.3415 34.9647 23.1719 34.9647 23.0373V22.815H35.3976V23.0373C35.3976 23.1719 35.3976 23.3415 35.3976 23.5053C35.3976 23.7276 35.3976 23.9733 35.3683 24.1898V24.3887ZM0.619346 26.0325L0.537446 25.8395C0.402896 25.4826 0.268346 25.1258 0.186446 24.7397L0.133796 24.5174L0.543296 24.4062L0.595946 24.6285C0.677846 24.9854 0.783146 25.3422 0.946946 25.6698L1.02885 25.8629L0.619346 26.0325ZM34.9296 26.6351L34.5201 26.5005L34.5727 26.2782C34.6839 25.9214 34.7599 25.5645 34.8184 25.2077L34.8477 24.9854L35.2806 25.0673L35.2513 25.2896C35.1694 25.6757 35.1168 26.0559 34.9822 26.4128L34.9296 26.6351ZM1.9239 27.9513L1.78935 27.7875C1.52025 27.5126 1.29795 27.185 1.0815 26.8574L0.970346 26.6643L1.32135 26.442L1.4325 26.6351C1.6197 26.9393 1.8654 27.2142 2.08185 27.4833L2.2164 27.6471L1.9239 27.9513ZM33.9292 28.7235L33.5782 28.5012L33.6894 28.3082C33.8766 28.004 34.0404 27.6764 34.2042 27.3488L34.2861 27.1557L34.6663 27.3488L34.5844 27.5418C34.4206 27.8987 34.2334 28.2263 34.0404 28.5597L33.9292 28.7235ZM3.6906 29.408L3.5268 29.2734C3.22845 29.0511 2.90085 28.8054 2.63175 28.5597L2.46795 28.4252L2.73705 28.0976L2.90085 28.2321C3.16995 28.4544 3.4683 28.7001 3.76665 28.9166L3.93045 29.0511L3.6906 29.408ZM32.379 30.3966L32.1099 30.069L32.2737 29.9345C32.5428 29.6888 32.8177 29.4431 33.0634 29.1681L33.198 29.0043L33.5256 29.2793L33.391 29.4431C33.1453 29.718 32.8762 29.993 32.5779 30.2387L32.379 30.3966ZM5.6445 30.5312L5.4573 30.4493C5.1063 30.2855 4.7787 30.0924 4.48035 29.8994L4.29315 29.7882L4.5096 29.4314L4.6968 29.5425C4.99515 29.7356 5.32275 29.8994 5.67375 30.0632L5.86095 30.1451L5.6445 30.5312ZM7.73295 31.4087L7.5165 31.3268C7.1655 31.1922 6.80865 31.0518 6.45765 30.9173L6.27045 30.8354L6.43425 30.4493L6.62145 30.5312C6.94905 30.6657 7.30005 30.8061 7.65105 30.9407L7.8675 31.0226L7.73295 31.4087ZM30.4543 31.631L30.2671 31.2449L30.4543 31.1337C30.7819 30.9699 31.1037 30.7769 31.402 30.5838L31.5892 30.4727L31.8349 30.8295L31.6477 30.9407C31.3494 31.163 31.0218 31.3502 30.6708 31.514L30.4543 31.631ZM9.8799 32.0112L9.66345 31.9586C9.2832 31.8767 8.9322 31.7655 8.57535 31.6544L8.3589 31.6017L8.49345 31.1922L8.7099 31.2449C9.0609 31.356 9.41775 31.4379 9.76875 31.5198L9.9852 31.5725L9.8799 32.0112ZM28.36 32.45L28.2255 32.0405L28.4419 31.9586C28.7929 31.8474 29.1498 31.7129 29.4715 31.6017L29.6587 31.5198L29.8225 31.9293L29.6353 32.0112C29.2843 32.1458 28.9275 32.2862 28.5765 32.3973L28.36 32.45ZM12.0736 32.4792L11.8572 32.45C11.4769 32.3681 11.0967 32.3154 10.7457 32.2277L10.5292 32.175L10.6111 31.7655L10.8276 31.8182C11.1786 31.9001 11.5354 31.9527 11.9157 32.0405L12.1321 32.0697L12.0736 32.4792ZM14.3025 32.8068L14.086 32.7776C13.7058 32.7249 13.3255 32.6664 12.9745 32.643L12.7581 32.6138L12.84 32.175L13.0564 32.2043C13.4074 32.2569 13.7643 32.3154 14.1679 32.3388L14.3844 32.3681L14.3025 32.8068ZM26.1663 32.9472L26.0844 32.5085L26.3008 32.4792C26.6518 32.3973 27.0321 32.3447 27.3889 32.2569L27.6054 32.2043L27.7165 32.6138L27.5001 32.6664C27.1491 32.7483 26.7688 32.8302 26.3886 32.8887L26.1663 32.9472ZM16.5255 33.0584L16.309 33.0291C15.958 32.9999 15.5778 32.9472 15.1975 32.918L14.9811 32.8887L15.0337 32.45L15.2502 32.4792C15.6304 32.5319 15.9814 32.5611 16.3617 32.5904L16.5781 32.6196L16.5255 33.0584ZM23.9374 33.2222L23.9082 32.7834L24.1246 32.7542C24.5049 32.7249 24.8559 32.6723 25.2127 32.643L25.4292 32.6138L25.4818 33.0525L25.2654 33.0818C24.9144 33.1344 24.5341 33.1637 24.1539 33.1929L23.9374 33.2222ZM18.7543 33.2222H18.5379C18.1869 33.1929 17.8066 33.1695 17.4264 33.1403L17.2099 33.111L17.2392 32.6723L17.4556 32.7015C17.8359 32.7308 18.1869 32.7542 18.5671 32.7834H18.7836L18.7543 33.2222ZM20.9773 33.3333H20.7609C20.4099 33.3333 20.0296 33.3333 19.6494 33.3041H19.4329L19.4622 32.8653H19.6786C20.0589 32.8653 20.4391 32.8946 20.7901 32.8946H21.0066L20.9773 33.3333ZM21.6852 33.3333V32.8946H21.9016C22.2819 32.8946 22.6621 32.8946 23.0131 32.8653H23.2296L23.2588 33.3041H23.0424C22.6914 33.3041 22.3111 33.3333 21.9309 33.3333H21.6852Z" fill="#ED1C24" />
        <path d="M16.3678 6.66948L16.1514 6.31263L16.3386 6.20148C16.5024 6.09033 16.6662 6.00843 16.83 5.89728L17.0172 5.78613L17.2336 6.14298L17.0464 6.25413C16.8826 6.36528 16.7188 6.44718 16.555 6.55833L16.3678 6.66948Z" fill="#ED1C24" />
    </g>
</svg>