<?xml version="1.0" encoding="UTF-8"?>
<svg xmlns="http://www.w3.org/2000/svg" width="512" height="512" viewBox="0 0 512 512">
  <defs>
    <linearGradient id="fractalGradient" x1="85.4%" y1="14.6%" x2="14.6%" y2="85.4%">
      <stop offset="0%" stop-color="#86efac" />
      <stop offset="33.33333333333333%" stop-color="#22c55e" />
      <stop offset="66.66666666666666%" stop-color="#15803d" />
      <stop offset="100%" stop-color="#14532d" />
    </linearGradient>
  </defs>
  <title>type=mandelbrot | resolution=400 | centerX=-0.5 | centerY=0 | zoom=3 | maxIter=100 | contours=90 | points=2768</title>
  <rect x="0" y="0" width="512" height="512" fill="none" />
  <circle cx="256" cy="256" r="251" fill="white" />
  <path d="M 312.58 86.18 L 312.39 86.26 L 312.58 86.66 L 312.66 86.26 L 312.58 86.18 M 311.35 87.30 L 311.28 87.49 L 311.35 87.56 L 311.75 87.49 L 311.35 87.30 M 319.96 109.52 L 319.85 109.63 L 319.81 110.86 L 318.73 111.94 L 317.50 111.97 L 316.27 112.00 L 316.15 112.09 L 316.17 113.32 L 315.89 114.55 L 315.04 115.56 L 314.99 115.78 L 315.04 115.83 L 316.18 117.01 L 316.12 118.24 L 315.04 119.32 L 313.96 118.24 L 313.81 118.15 L 313.70 118.24 L 312.58 119.36 L 312.39 119.47 L 311.35 120.51 L 310.31 119.47 L 310.12 119.38 L 308.89 119.34 L 308.80 119.47 L 308.79 120.70 L 307.66 121.83 L 307.55 121.93 L 306.43 123.05 L 305.20 123.06 L 303.97 123.02 L 302.74 123.03 L 301.51 123.03 L 301.41 123.16 L 301.51 123.33 L 302.57 124.39 L 302.64 125.62 L 302.74 125.72 L 303.87 126.85 L 303.37 128.08 L 302.74 128.71 L 301.51 129.22 L 301.43 129.31 L 301.39 130.54 L 300.28 131.65 L 300.19 131.77 L 299.05 132.91 L 298.96 133.00 L 299.05 133.08 L 300.20 134.23 L 300.28 134.32 L 300.44 134.23 L 301.51 133.16 L 302.58 134.23 L 302.48 135.46 L 302.63 136.69 L 301.51 137.81 L 300.28 137.83 L 300.18 137.92 L 300.20 139.15 L 300.28 139.25 L 300.92 139.15 L 301.51 138.56 L 302.10 139.15 L 302.74 139.27 L 303.85 140.38 L 302.74 141.49 L 302.62 141.61 L 302.74 141.70 L 303.88 142.84 L 303.97 143.15 L 305.20 143.04 L 306.23 144.07 L 305.20 145.10 L 305.12 145.30 L 305.20 145.38 L 306.43 145.39 L 307.66 145.49 L 308.70 146.53 L 308.80 147.76 L 308.89 147.86 L 310.12 147.86 L 311.35 147.88 L 312.58 147.92 L 313.65 148.99 L 312.58 150.06 L 311.35 150.10 L 310.12 150.12 L 308.89 150.12 L 307.66 150.13 L 306.52 148.99 L 306.43 148.91 L 306.34 148.99 L 305.20 150.13 L 303.97 150.18 L 302.83 148.99 L 302.74 148.91 L 301.51 148.91 L 300.84 148.99 L 301.51 149.11 L 302.62 150.22 L 301.51 151.33 L 300.40 150.22 L 300.28 149.55 L 299.05 150.09 L 298.96 150.22 L 297.82 151.36 L 296.59 151.21 L 295.60 150.22 L 295.52 148.99 L 295.36 148.87 L 295.26 148.99 L 294.13 150.12 L 294.05 150.22 L 294.13 150.32 L 295.26 151.45 L 294.13 152.58 L 293.00 151.45 L 292.90 151.37 L 292.80 151.45 L 291.67 152.58 L 290.54 151.45 L 290.44 151.33 L 289.33 150.22 L 289.50 148.99 L 289.66 147.76 L 289.21 147.69 L 289.06 147.76 L 287.98 148.84 L 287.89 148.99 L 287.98 149.08 L 289.12 150.22 L 288.98 151.45 L 287.98 152.45 L 287.89 152.68 L 287.85 153.91 L 286.75 155.01 L 285.65 153.91 L 285.61 152.68 L 285.52 152.60 L 285.44 152.68 L 285.43 153.91 L 284.29 155.05 L 283.06 155.05 L 281.92 153.91 L 281.83 153.81 L 280.70 152.68 L 280.60 152.58 L 279.37 152.57 L 278.25 151.45 L 278.14 151.28 L 276.91 151.33 L 275.68 151.36 L 275.60 151.45 L 275.68 151.54 L 276.82 152.68 L 276.77 153.91 L 276.81 155.14 L 276.77 156.37 L 275.68 157.46 L 275.34 157.60 L 274.45 158.49 L 274.36 158.83 L 273.22 159.97 L 272.08 158.83 L 271.99 158.74 L 270.85 157.60 L 270.76 157.51 L 269.53 157.50 L 269.44 157.60 L 269.53 157.71 L 270.65 158.83 L 269.53 159.95 L 269.45 160.06 L 269.53 160.32 L 270.50 161.29 L 269.53 162.26 L 268.30 162.42 L 267.12 161.29 L 267.07 161.24 L 266.80 161.29 L 266.50 162.52 L 265.84 163.18 L 265.74 163.75 L 264.61 164.88 L 263.38 164.89 L 263.27 164.98 L 262.15 166.10 L 261.03 164.98 L 262.15 163.86 L 262.24 163.75 L 262.15 163.61 L 261.06 162.52 L 262.15 161.42 L 262.58 161.29 L 262.15 161.21 L 261.01 160.06 L 260.92 159.94 L 259.81 158.83 L 259.69 158.73 L 258.56 157.60 L 258.56 156.37 L 258.55 155.14 L 258.46 155.03 L 258.37 155.14 L 258.34 156.37 L 257.23 157.48 L 256.00 157.50 L 254.77 157.47 L 253.54 157.35 L 252.31 157.08 L 251.60 156.37 L 251.08 156.13 L 250.09 155.14 L 249.85 155.04 L 249.27 155.14 L 249.69 156.37 L 248.62 157.44 L 247.98 157.60 L 248.62 157.70 L 249.75 158.83 L 248.62 159.96 L 248.52 160.06 L 248.62 160.60 L 249.31 161.29 L 248.62 161.98 L 248.51 162.52 L 247.39 163.64 L 247.30 163.75 L 247.29 164.98 L 247.39 165.07 L 248.62 165.11 L 249.72 166.21 L 249.75 167.44 L 249.85 167.58 L 250.94 168.67 L 250.97 169.90 L 251.08 169.98 L 251.37 169.90 L 252.31 168.96 L 253.25 169.90 L 253.54 169.99 L 254.77 170.01 L 255.89 171.13 L 254.77 172.25 L 254.56 172.36 L 253.54 173.38 L 252.31 173.48 L 252.02 173.59 L 251.08 174.53 L 249.85 174.73 L 249.62 174.82 L 249.18 176.05 L 248.62 176.61 L 248.52 177.28 L 247.39 178.41 L 246.26 177.28 L 246.16 177.18 L 244.93 177.18 L 244.78 177.28 L 244.77 178.51 L 243.70 179.58 L 243.62 179.74 L 242.47 180.89 L 242.35 180.97 L 241.24 182.08 L 241.16 182.20 L 241.15 183.43 L 241.14 184.66 L 240.01 185.79 L 238.88 184.66 L 238.78 184.53 L 237.68 183.43 L 237.55 183.32 L 236.43 182.20 L 236.32 182.06 L 236.18 182.20 L 235.09 183.29 L 233.86 183.32 L 232.63 183.30 L 231.53 182.20 L 231.40 182.06 L 230.17 182.11 L 230.07 182.20 L 230.17 182.30 L 231.30 183.43 L 231.40 183.71 L 232.35 184.66 L 231.40 185.61 L 231.32 185.89 L 231.40 185.99 L 232.53 187.12 L 231.40 188.25 L 230.86 188.35 L 231.40 188.43 L 232.63 188.50 L 233.86 188.77 L 234.67 189.58 L 235.09 189.67 L 236.23 190.81 L 235.09 191.95 L 234.93 192.04 L 234.68 193.27 L 233.86 194.09 L 232.63 194.41 L 231.40 194.39 L 231.01 194.50 L 231.31 195.73 L 231.40 195.91 L 232.45 196.96 L 231.40 198.01 L 231.31 198.19 L 231.27 199.42 L 230.17 200.52 L 229.07 199.42 L 229.03 198.19 L 228.94 198.10 L 227.71 198.02 L 226.69 198.19 L 226.48 198.40 L 225.25 199.27 L 224.02 199.32 L 223.92 199.42 L 222.79 200.55 L 222.71 200.65 L 222.79 200.73 L 223.94 201.88 L 224.02 201.96 L 225.25 201.93 L 226.11 203.11 L 226.48 203.28 L 227.71 203.40 L 228.65 204.34 L 227.71 205.28 L 226.48 205.40 L 225.25 204.93 L 225.17 205.57 L 225.25 205.74 L 226.31 206.80 L 226.12 208.03 L 226.18 209.26 L 225.25 210.19 L 224.32 209.26 L 224.38 208.03 L 224.02 207.95 L 223.85 208.03 L 222.79 209.09 L 221.56 209.17 L 220.33 208.34 L 220.00 209.26 L 220.33 209.36 L 221.46 210.49 L 221.48 211.72 L 221.56 211.80 L 222.79 211.82 L 223.02 211.72 L 224.02 210.72 L 225.02 211.72 L 224.02 212.72 L 223.92 212.95 L 222.79 214.08 L 222.68 214.18 L 221.56 215.30 L 220.33 215.33 L 220.18 215.41 L 219.10 216.49 L 217.87 216.32 L 217.78 216.64 L 217.87 216.72 L 219.10 216.73 L 220.24 217.87 L 220.33 218.00 L 221.43 219.10 L 221.44 220.33 L 220.33 221.44 L 219.10 221.47 L 218.93 221.56 L 217.87 222.62 L 217.74 222.79 L 217.87 222.88 L 219.01 224.02 L 219.10 224.23 L 220.12 225.25 L 219.10 226.27 L 217.87 226.31 L 217.43 226.48 L 217.65 227.71 L 216.64 228.85 L 216.59 228.94 L 216.64 229.00 L 217.73 230.17 L 216.64 231.26 L 216.55 231.40 L 216.64 231.51 L 217.76 232.63 L 216.64 233.75 L 216.52 233.86 L 216.55 235.09 L 216.55 236.32 L 216.55 237.55 L 216.54 238.78 L 216.38 240.01 L 215.41 240.98 L 215.32 241.24 L 215.41 241.56 L 216.32 242.47 L 216.28 243.70 L 215.41 244.57 L 215.30 244.93 L 215.27 246.16 L 214.18 247.25 L 213.09 246.16 L 213.06 244.93 L 213.05 243.70 L 213.05 242.47 L 213.04 241.24 L 212.95 241.15 L 211.81 240.01 L 211.72 239.85 L 210.65 238.78 L 211.72 237.71 L 211.80 237.55 L 211.72 237.46 L 210.58 236.32 L 210.57 235.09 L 210.49 234.98 L 209.37 233.86 L 209.26 233.74 L 208.15 232.63 L 208.12 231.40 L 208.03 231.29 L 206.80 230.89 L 206.08 230.17 L 206.80 229.45 L 206.94 228.94 L 206.80 228.80 L 205.57 228.85 L 204.34 228.71 L 203.34 227.71 L 203.30 226.48 L 203.24 225.25 L 203.11 225.16 L 201.88 224.97 L 200.93 224.02 L 201.88 223.07 L 201.96 222.79 L 201.88 222.44 L 200.65 222.69 L 199.42 222.47 L 198.19 222.26 L 196.96 222.63 L 195.89 221.56 L 195.82 220.33 L 196.32 219.10 L 195.88 217.87 L 195.73 217.77 L 194.50 217.79 L 194.41 217.87 L 194.38 219.10 L 193.27 220.21 L 192.16 219.10 L 192.04 218.81 L 191.10 217.87 L 190.81 217.78 L 189.58 217.77 L 188.45 216.64 L 188.47 215.41 L 188.46 214.18 L 188.35 213.99 L 187.12 214.07 L 186.47 214.18 L 185.89 214.76 L 184.66 215.32 L 183.43 215.32 L 182.20 215.08 L 180.97 215.13 L 179.74 215.31 L 178.51 215.22 L 177.28 215.31 L 176.15 214.18 L 176.15 212.95 L 176.15 211.72 L 177.28 210.59 L 177.36 210.49 L 177.28 210.40 L 176.05 210.39 L 174.92 209.26 L 174.82 209.09 L 173.59 209.01 L 173.50 209.26 L 172.36 210.40 L 171.13 210.37 L 171.04 210.49 L 171.13 210.65 L 172.20 211.72 L 172.06 212.95 L 172.25 214.18 L 171.13 215.30 L 169.90 215.30 L 168.78 214.18 L 168.67 214.10 L 168.22 214.18 L 167.44 214.96 L 166.21 215.31 L 165.06 214.18 L 164.98 213.77 L 164.87 214.18 L 163.75 215.27 L 163.65 215.41 L 162.52 216.54 L 161.29 216.24 L 161.18 216.64 L 160.06 217.76 L 158.94 216.64 L 158.83 216.56 L 158.74 216.64 L 157.60 217.78 L 157.49 217.87 L 156.37 218.99 L 155.25 217.87 L 155.25 216.64 L 156.37 215.52 L 156.45 215.41 L 156.37 215.31 L 155.24 214.18 L 155.14 214.08 L 154.01 212.95 L 153.91 212.81 L 152.68 212.85 L 151.45 212.84 L 150.33 211.72 L 150.22 211.61 L 149.10 210.49 L 148.99 210.40 L 148.83 210.49 L 147.76 211.56 L 147.65 211.72 L 147.76 211.86 L 148.85 212.95 L 147.76 214.04 L 147.66 214.18 L 146.90 215.41 L 146.53 215.78 L 146.39 216.64 L 146.53 216.77 L 147.63 217.87 L 146.78 219.10 L 147.76 219.36 L 148.73 220.33 L 148.79 221.56 L 148.88 222.79 L 148.80 224.02 L 147.76 225.06 L 147.44 225.25 L 146.53 226.16 L 145.30 226.38 L 144.07 226.31 L 143.97 226.48 L 143.66 227.71 L 142.84 228.53 L 142.74 228.94 L 142.69 230.17 L 141.61 231.25 L 140.53 230.17 L 140.38 229.30 L 139.15 229.98 L 137.92 229.77 L 137.27 230.17 L 136.69 230.75 L 136.61 231.40 L 136.69 231.50 L 137.82 232.63 L 137.92 232.72 L 139.06 233.86 L 137.92 235.00 L 137.83 235.09 L 137.81 236.32 L 136.69 237.44 L 135.57 236.32 L 135.46 236.24 L 135.34 236.32 L 135.31 237.55 L 135.46 237.72 L 136.52 238.78 L 135.46 239.84 L 135.36 240.01 L 135.46 240.39 L 136.31 241.24 L 135.46 242.09 L 134.61 241.24 L 134.23 241.14 L 134.12 241.24 L 134.06 242.47 L 134.13 243.70 L 134.23 243.93 L 135.23 244.93 L 134.23 245.93 L 133.00 246.07 L 132.92 246.16 L 132.91 247.39 L 132.91 248.62 L 132.89 249.85 L 133.00 250.04 L 134.04 251.08 L 133.00 252.12 L 131.96 251.08 L 131.77 250.97 L 130.65 249.85 L 130.54 249.73 L 129.43 248.62 L 129.63 247.39 L 129.31 247.30 L 128.17 246.16 L 128.08 246.06 L 127.97 246.16 L 126.85 247.28 L 125.73 246.16 L 125.62 246.05 L 124.39 245.83 L 123.27 244.93 L 123.16 244.90 L 123.12 244.93 L 122.91 246.16 L 121.93 247.14 L 120.95 246.16 L 120.70 246.07 L 120.59 246.16 L 119.47 247.28 L 118.35 246.16 L 118.24 246.06 L 117.01 246.05 L 116.91 246.16 L 116.91 247.39 L 115.78 248.52 L 115.69 248.62 L 114.55 249.76 L 114.46 249.85 L 114.46 251.08 L 114.45 252.31 L 114.43 253.54 L 113.32 254.65 L 112.09 254.43 L 110.86 254.62 L 109.63 254.53 L 109.53 254.77 L 108.40 255.90 L 107.17 255.92 L 105.94 255.92 L 104.71 255.92 L 103.48 255.93 L 102.25 255.92 L 101.02 255.92 L 99.79 255.93 L 98.56 255.93 L 97.33 255.92 L 96.10 255.92 L 94.87 255.92 L 93.64 255.93 L 92.41 255.93 L 91.18 255.93 L 89.95 255.93 L 88.72 255.93 L 87.49 255.93 L 86.26 255.93 L 85.03 255.93 L 83.80 255.93 L 82.57 255.93 L 81.34 255.93 L 80.11 255.93 L 78.88 255.93 L 77.65 255.93 L 76.42 255.93 L 75.19 255.93 L 73.96 255.93 L 72.73 255.93 L 71.50 255.93 L 70.27 255.93 L 69.04 255.93 L 67.81 255.93 L 66.58 255.93 L 65.35 255.93 L 64.12 255.93 L 62.89 255.93 L 61.66 255.93 L 60.43 255.93 L 59.20 255.93 L 57.97 255.93 L 56.74 255.93 L 55.51 255.93 L 54.28 255.93 L 53.05 255.93 L 51.82 255.92 L 50.67 254.77 L 50.59 254.67 L 49.36 254.55 L 48.95 254.77 L 48.13 255.59 L 46.90 255.92 L 45.67 255.93 L 44.44 255.93 L 43.21 255.93 L 41.98 255.93 L 40.75 255.93 L 39.52 255.93 L 38.29 255.93 L 37.06 255.93 L 35.83 255.93 L 34.60 255.93 L 33.37 255.93 L 32.14 255.93 L 30.91 255.93 L 29.68 255.93 L 28.45 255.93 L 27.22 255.93 L 25.99 255.93 L 24.76 255.93 L 23.53 255.93 L 22.30 255.93 L 21.07 255.93 L 19.84 255.93 L 18.61 255.93 L 17.38 255.93 L 16.15 255.93 L 14.92 255.93 L 13.69 255.93 L 12.46 255.93 L 11.23 255.93 L 10.00 255.94 M 319.96 109.52 L 320.14 109.63 L 320.11 110.86 L 321.19 111.94 L 321.32 112.09 L 322.42 113.19 L 322.59 113.32 L 322.55 114.55 L 322.55 115.78 L 322.51 117.01 L 322.42 117.11 L 321.29 118.24 L 322.42 119.37 L 322.88 119.47 L 323.65 120.24 L 324.88 120.58 L 325.07 120.70 L 326.11 121.74 L 327.15 120.70 L 327.34 120.62 L 327.62 120.70 L 328.57 121.65 L 328.66 121.93 L 329.80 123.07 L 329.88 123.16 L 329.90 124.39 L 330.01 125.62 L 331.03 126.64 L 332.05 125.62 L 332.26 125.34 L 333.49 125.05 L 334.72 125.49 L 334.83 125.62 L 334.72 126.35 L 334.22 126.85 L 333.49 127.05 L 332.26 127.02 L 331.20 128.08 L 332.26 129.14 L 332.37 129.31 L 332.55 130.54 L 332.38 131.77 L 332.38 133.00 L 333.49 134.11 L 334.72 134.07 L 334.82 134.23 L 334.72 134.38 L 333.49 134.61 L 332.64 135.46 L 332.43 136.69 L 332.36 137.92 L 333.49 139.05 L 333.58 139.15 L 333.49 139.24 L 332.26 139.27 L 331.15 140.38 L 331.44 141.61 L 331.03 141.73 L 329.92 142.84 L 329.91 144.07 L 329.88 145.30 L 329.80 145.38 L 328.65 146.53 L 328.57 146.61 L 328.43 146.53 L 327.34 145.44 L 326.25 146.53 L 326.11 146.69 L 325.04 147.76 L 324.88 147.86 L 323.65 147.88 L 322.42 147.92 L 321.35 148.99 L 322.42 150.06 L 323.65 150.10 L 324.88 150.12 L 326.11 150.12 L 327.34 150.13 L 328.57 150.13 L 329.80 150.13 L 331.03 149.45 L 331.19 150.22 L 332.26 151.29 L 333.33 150.22 L 333.49 150.08 L 333.65 150.22 L 334.72 151.29 L 335.79 150.22 L 335.87 148.99 L 335.95 148.91 L 337.18 148.92 L 337.26 148.99 L 337.18 149.08 L 336.04 150.22 L 337.18 151.36 L 337.37 151.45 L 338.41 152.49 L 339.45 151.45 L 338.41 150.41 L 338.32 150.22 L 338.41 150.14 L 339.56 148.99 L 339.56 147.76 L 339.64 147.69 L 339.78 147.76 L 340.87 148.85 L 342.10 148.92 L 342.17 148.99 L 342.10 149.07 L 340.87 149.10 L 339.75 150.22 L 340.55 151.45 L 340.87 151.77 L 342.10 152.39 L 343.33 152.60 L 344.56 152.25 L 345.36 151.45 L 345.79 151.31 L 346.88 150.22 L 346.08 148.99 L 347.02 148.77 L 347.15 148.99 L 347.11 150.22 L 347.16 151.45 L 347.14 152.68 L 347.12 153.91 L 348.25 155.04 L 349.48 155.05 L 350.71 154.98 L 350.81 155.14 L 351.94 156.27 L 353.17 156.28 L 353.27 156.37 L 354.40 157.50 L 355.15 157.60 L 355.63 158.08 L 356.11 157.60 L 355.63 157.12 L 355.53 156.37 L 354.40 155.24 L 354.31 155.14 L 354.32 153.91 L 354.40 153.83 L 355.55 152.68 L 355.63 151.50 L 355.75 152.68 L 356.86 153.79 L 358.09 153.73 L 359.14 152.68 L 359.32 152.56 L 360.55 152.56 L 360.64 152.68 L 360.55 152.81 L 359.45 153.91 L 360.55 155.01 L 360.65 155.14 L 360.65 156.37 L 360.55 156.72 L 359.67 157.60 L 359.32 157.71 L 358.20 158.83 L 359.32 159.95 L 360.55 159.97 L 360.65 160.06 L 361.78 161.19 L 361.95 161.29 L 363.01 162.35 L 364.24 162.42 L 365.37 161.29 L 365.47 161.20 L 366.70 161.20 L 367.84 160.06 L 367.93 159.96 L 368.03 160.06 L 368.04 161.29 L 368.01 162.52 L 367.93 162.72 L 366.90 163.75 L 367.93 164.78 L 369.16 164.89 L 370.33 163.75 L 370.39 163.69 L 371.62 163.70 L 371.67 163.75 L 371.62 163.81 L 370.48 164.98 L 370.39 165.23 L 369.41 166.21 L 370.39 167.19 L 371.62 167.34 L 371.72 167.44 L 372.85 168.57 L 373.06 168.67 L 374.08 169.69 L 374.21 169.90 L 375.31 171.00 L 375.43 171.13 L 376.54 172.24 L 377.65 171.13 L 377.64 169.90 L 376.54 168.80 L 376.45 168.67 L 376.54 168.53 L 377.63 167.44 L 376.54 166.35 L 376.45 166.21 L 376.54 166.12 L 377.68 164.98 L 377.77 164.86 L 378.88 163.75 L 378.78 162.52 L 379.00 162.43 L 380.23 162.41 L 381.46 162.42 L 382.59 161.29 L 381.46 160.16 L 381.38 160.06 L 381.46 159.96 L 382.59 158.83 L 382.69 158.68 L 382.77 158.83 L 383.92 159.98 L 384.01 160.06 L 385.15 161.20 L 386.38 161.21 L 386.47 161.29 L 387.61 162.43 L 387.71 162.52 L 388.84 163.65 L 389.97 162.52 L 389.99 161.29 L 390.07 161.21 L 390.38 161.29 L 391.30 162.21 L 392.53 162.42 L 392.71 162.52 L 392.63 163.75 L 392.63 164.98 L 392.53 165.07 L 391.30 165.10 L 390.19 166.21 L 391.30 167.32 L 391.38 167.44 L 391.45 168.67 L 391.39 169.90 L 392.53 171.10 L 392.56 171.13 L 393.76 172.28 L 393.90 172.36 L 393.76 172.44 L 392.53 172.44 L 391.30 172.45 L 390.07 172.59 L 389.07 173.59 L 388.94 174.82 L 388.84 174.91 L 387.61 174.96 L 386.38 174.97 L 385.30 176.05 L 385.15 176.13 L 383.92 176.14 L 382.69 176.18 L 382.55 176.05 L 381.46 174.96 L 380.37 176.05 L 381.46 177.14 L 381.59 177.28 L 382.69 178.38 L 383.92 178.42 L 384.00 178.51 L 385.15 179.66 L 385.23 179.74 L 385.31 180.97 L 385.35 182.20 L 386.38 183.23 L 387.61 183.34 L 388.84 183.05 L 390.07 183.12 L 390.14 183.43 L 390.07 183.51 L 388.84 183.88 L 388.06 184.66 L 388.84 185.44 L 390.07 185.81 L 390.17 185.89 L 391.30 187.02 L 392.53 187.02 L 392.78 187.12 L 392.74 188.35 L 392.67 189.58 L 392.53 189.67 L 391.39 190.81 L 392.53 191.95 L 392.61 192.04 L 393.76 193.19 L 394.99 193.18 L 395.71 193.27 L 394.99 193.35 L 393.84 194.50 L 394.99 195.65 L 395.07 195.73 L 395.07 196.96 L 395.08 198.19 L 395.10 199.42 L 396.22 200.54 L 397.34 199.42 L 397.36 198.19 L 397.45 198.10 L 398.68 197.89 L 399.61 196.96 L 399.91 196.77 L 401.14 196.79 L 401.58 196.96 L 402.37 197.71 L 402.48 198.19 L 403.60 199.31 L 404.83 199.33 L 404.99 199.42 L 405.06 200.65 L 404.83 200.74 L 403.69 201.88 L 403.60 202.14 L 402.63 203.11 L 402.37 203.32 L 401.35 204.34 L 401.14 204.48 L 399.91 204.43 L 398.68 204.43 L 398.55 204.34 L 397.45 203.24 L 396.35 204.34 L 397.45 205.44 L 397.54 205.57 L 398.68 206.71 L 398.76 206.80 L 398.68 206.90 L 397.55 208.03 L 398.68 209.16 L 398.90 209.26 L 398.76 210.49 L 399.91 211.64 L 400.07 211.72 L 400.00 212.95 L 399.91 213.04 L 398.77 214.18 L 399.91 215.32 L 399.99 215.41 L 399.99 216.64 L 399.91 216.74 L 398.78 217.87 L 399.91 219.00 L 401.04 217.87 L 401.14 217.79 L 401.45 217.87 L 402.37 218.79 L 403.60 218.88 L 403.69 219.10 L 404.83 220.24 L 404.94 220.33 L 404.96 221.56 L 404.83 221.64 L 403.60 221.66 L 402.47 222.79 L 402.37 222.87 L 401.14 222.87 L 401.04 222.79 L 399.91 221.66 L 398.78 222.79 L 399.91 223.92 L 399.99 224.02 L 399.99 225.25 L 400.00 226.48 L 400.07 227.71 L 399.91 228.17 L 399.14 228.94 L 398.77 230.17 L 399.91 231.31 L 401.14 231.32 L 401.24 231.40 L 402.37 232.53 L 402.60 232.63 L 402.37 232.89 L 401.14 232.74 L 400.02 233.86 L 399.91 233.93 L 399.71 233.86 L 398.68 232.83 L 397.65 233.86 L 397.53 235.09 L 397.59 236.32 L 397.45 236.40 L 396.30 237.55 L 397.45 238.70 L 398.68 238.70 L 398.75 238.78 L 398.68 238.92 L 397.59 240.01 L 397.45 240.10 L 396.22 240.09 L 395.07 241.24 L 395.06 242.47 L 395.07 243.70 L 394.99 244.31 L 394.37 244.93 L 393.76 245.01 L 392.61 246.16 L 392.84 247.39 L 392.53 247.47 L 391.30 247.47 L 390.15 248.62 L 390.29 249.85 L 390.07 249.99 L 388.98 251.08 L 388.84 251.15 L 387.68 252.31 L 387.61 252.38 L 386.38 252.38 L 385.22 253.54 L 385.15 253.61 L 383.92 253.62 L 382.77 254.77 L 382.69 254.85 L 381.46 254.85 L 380.23 254.86 L 379.09 256.00 L 380.23 257.14 L 381.46 257.15 L 382.69 257.15 L 382.77 257.23 L 383.92 258.38 L 385.15 258.39 L 385.22 258.46 L 386.38 259.62 L 387.61 259.62 L 387.68 259.69 L 388.84 260.85 L 388.98 260.92 L 390.07 262.01 L 390.29 262.15 L 390.15 263.38 L 391.30 264.53 L 392.53 264.53 L 392.84 264.61 L 392.61 265.84 L 393.76 266.99 L 394.37 267.07 L 394.99 267.69 L 395.07 268.30 L 395.06 269.53 L 395.07 270.76 L 396.22 271.91 L 397.45 271.90 L 397.59 271.99 L 398.68 273.08 L 398.75 273.22 L 398.68 273.30 L 397.45 273.30 L 396.30 274.45 L 397.45 275.60 L 397.59 275.68 L 397.53 276.91 L 397.65 278.14 L 398.68 279.17 L 399.71 278.14 L 399.91 278.07 L 400.02 278.14 L 401.14 279.26 L 402.37 279.11 L 402.60 279.37 L 402.37 279.47 L 401.24 280.60 L 401.14 280.68 L 399.91 280.69 L 398.77 281.83 L 399.14 283.06 L 399.91 283.83 L 400.07 284.29 L 400.00 285.52 L 399.99 286.75 L 399.99 287.98 L 399.91 288.08 L 398.78 289.21 L 399.91 290.34 L 401.04 289.21 L 401.14 289.13 L 402.37 289.13 L 402.47 289.21 L 403.60 290.34 L 404.83 290.36 L 404.96 290.44 L 404.94 291.67 L 404.83 291.76 L 403.69 292.90 L 403.60 293.12 L 402.37 293.21 L 401.45 294.13 L 401.14 294.21 L 401.04 294.13 L 399.91 293.00 L 398.78 294.13 L 399.91 295.26 L 399.99 295.36 L 399.99 296.59 L 399.91 296.68 L 398.77 297.82 L 399.91 298.96 L 400.00 299.05 L 400.07 300.28 L 399.91 300.36 L 398.76 301.51 L 398.90 302.74 L 398.68 302.84 L 397.55 303.97 L 398.68 305.10 L 398.76 305.20 L 398.68 305.29 L 397.54 306.43 L 397.45 306.56 L 396.35 307.66 L 397.45 308.76 L 398.55 307.66 L 398.68 307.57 L 399.91 307.57 L 401.14 307.52 L 401.35 307.66 L 402.37 308.68 L 402.63 308.89 L 403.60 309.86 L 403.69 310.12 L 404.83 311.26 L 405.06 311.35 L 404.99 312.58 L 404.83 312.67 L 403.60 312.69 L 402.48 313.81 L 402.37 314.29 L 401.58 315.04 L 401.14 315.21 L 399.91 315.23 L 399.61 315.04 L 398.68 314.11 L 397.45 313.90 L 397.36 313.81 L 397.34 312.58 L 396.22 311.46 L 395.10 312.58 L 395.08 313.81 L 395.07 315.04 L 395.07 316.27 L 394.99 316.35 L 393.84 317.50 L 394.99 318.65 L 395.71 318.73 L 394.99 318.82 L 393.76 318.81 L 392.61 319.96 L 392.53 320.05 L 391.39 321.19 L 392.53 322.33 L 392.67 322.42 L 392.74 323.65 L 392.78 324.88 L 392.53 324.98 L 391.30 324.98 L 390.17 326.11 L 390.07 326.19 L 388.84 326.56 L 388.06 327.34 L 388.84 328.12 L 390.07 328.49 L 390.14 328.57 L 390.07 328.88 L 388.84 328.95 L 387.61 328.66 L 386.38 328.77 L 385.35 329.80 L 385.31 331.03 L 385.23 332.26 L 385.15 332.34 L 384.00 333.49 L 383.92 333.58 L 382.69 333.62 L 381.59 334.72 L 381.46 334.86 L 380.37 335.95 L 381.46 337.04 L 382.55 335.95 L 382.69 335.82 L 383.92 335.86 L 385.15 335.87 L 385.30 335.95 L 386.38 337.03 L 387.61 337.04 L 388.84 337.09 L 388.94 337.18 L 389.07 338.41 L 390.07 339.41 L 391.30 339.55 L 392.53 339.56 L 393.76 339.56 L 393.90 339.64 L 393.76 339.72 L 392.56 340.87 L 392.53 340.90 L 391.39 342.10 L 391.45 343.33 L 391.38 344.56 L 391.30 344.68 L 390.19 345.79 L 391.30 346.90 L 392.53 346.93 L 392.63 347.02 L 392.63 348.25 L 392.71 349.48 L 392.53 349.58 L 391.30 349.79 L 390.38 350.71 L 390.07 350.79 L 389.99 350.71 L 389.97 349.48 L 388.84 348.35 L 387.71 349.48 L 387.61 349.57 L 386.47 350.71 L 386.38 350.79 L 385.15 350.80 L 384.01 351.94 L 383.92 352.02 L 382.77 353.17 L 382.69 353.32 L 382.59 353.17 L 381.46 352.04 L 381.38 351.94 L 381.46 351.84 L 382.59 350.71 L 381.46 349.58 L 380.23 349.59 L 379.00 349.57 L 378.78 349.48 L 378.88 348.25 L 377.77 347.14 L 377.68 347.02 L 376.54 345.88 L 376.45 345.79 L 376.54 345.65 L 377.63 344.56 L 376.54 343.47 L 376.45 343.33 L 376.54 343.20 L 377.64 342.10 L 377.65 340.87 L 376.54 339.76 L 375.43 340.87 L 375.31 341.00 L 374.21 342.10 L 374.08 342.31 L 373.06 343.33 L 372.85 343.43 L 371.72 344.56 L 371.62 344.66 L 370.39 344.81 L 369.41 345.79 L 370.39 346.77 L 370.48 347.02 L 371.62 348.19 L 371.67 348.25 L 371.62 348.30 L 370.39 348.31 L 370.33 348.25 L 369.16 347.11 L 367.93 347.22 L 366.90 348.25 L 367.93 349.28 L 368.01 349.48 L 368.04 350.71 L 368.03 351.94 L 367.93 352.04 L 367.84 351.94 L 366.70 350.80 L 365.47 350.80 L 365.37 350.71 L 364.24 349.58 L 363.01 349.65 L 361.95 350.71 L 361.78 350.81 L 360.65 351.94 L 360.55 352.03 L 359.32 352.05 L 358.20 353.17 L 359.32 354.29 L 359.67 354.40 L 360.55 355.28 L 360.65 355.63 L 360.65 356.86 L 360.55 356.99 L 359.45 358.09 L 360.55 359.19 L 360.64 359.32 L 360.55 359.44 L 359.32 359.44 L 359.14 359.32 L 358.09 358.27 L 356.86 358.21 L 355.75 359.32 L 355.63 360.50 L 355.55 359.32 L 354.40 358.17 L 354.32 358.09 L 354.31 356.86 L 354.40 356.76 L 355.53 355.63 L 355.63 354.88 L 356.11 354.40 L 355.63 353.92 L 355.15 354.40 L 354.40 354.50 L 353.27 355.63 L 353.17 355.72 L 351.94 355.73 L 350.81 356.86 L 350.71 357.02 L 349.48 356.95 L 348.25 356.96 L 347.12 358.09 L 347.14 359.32 L 347.16 360.55 L 347.11 361.78 L 347.15 363.01 L 347.02 363.23 L 346.08 363.01 L 346.88 361.78 L 345.79 360.69 L 345.36 360.55 L 344.56 359.75 L 343.33 359.40 L 342.10 359.61 L 340.87 360.23 L 340.55 360.55 L 339.75 361.78 L 340.87 362.90 L 342.10 362.93 L 342.17 363.01 L 342.10 363.08 L 340.87 363.15 L 339.78 364.24 L 339.64 364.31 L 339.56 364.24 L 339.56 363.01 L 338.41 361.86 L 338.32 361.78 L 338.41 361.59 L 339.45 360.55 L 338.41 359.51 L 337.37 360.55 L 337.18 360.64 L 336.04 361.78 L 337.18 362.92 L 337.26 363.01 L 337.18 363.08 L 335.95 363.09 L 335.87 363.01 L 335.79 361.78 L 334.72 360.71 L 333.65 361.78 L 333.49 361.92 L 333.33 361.78 L 332.26 360.71 L 331.19 361.78 L 331.03 362.55 L 329.80 361.87 L 328.57 361.87 L 327.34 361.87 L 326.11 361.88 L 324.88 361.88 L 323.65 361.90 L 322.42 361.94 L 321.35 363.01 L 322.42 364.08 L 323.65 364.12 L 324.88 364.14 L 325.04 364.24 L 326.11 365.31 L 326.25 365.47 L 327.34 366.56 L 328.43 365.47 L 328.57 365.39 L 328.65 365.47 L 329.80 366.62 L 329.88 366.70 L 329.91 367.93 L 329.92 369.16 L 331.03 370.27 L 331.44 370.39 L 331.15 371.62 L 332.26 372.73 L 333.49 372.76 L 333.58 372.85 L 333.49 372.95 L 332.36 374.08 L 332.43 375.31 L 332.64 376.54 L 333.49 377.39 L 334.72 377.62 L 334.82 377.77 L 334.72 377.93 L 333.49 377.89 L 332.38 379.00 L 332.38 380.23 L 332.55 381.46 L 332.37 382.69 L 332.26 382.86 L 331.20 383.92 L 332.26 384.98 L 333.49 384.95 L 334.22 385.15 L 334.72 385.65 L 334.83 386.38 L 334.72 386.51 L 333.49 386.95 L 332.26 386.66 L 332.05 386.38 L 331.03 385.36 L 330.01 386.38 L 329.90 387.61 L 329.88 388.84 L 329.80 388.93 L 328.66 390.07 L 328.57 390.35 L 327.62 391.30 L 327.34 391.38 L 327.15 391.30 L 326.11 390.26 L 325.07 391.30 L 324.88 391.42 L 323.65 391.76 L 322.88 392.53 L 322.42 392.63 L 321.29 393.76 L 322.42 394.89 L 322.51 394.99 L 322.55 396.22 L 322.55 397.45 L 322.59 398.68 L 322.42 398.81 L 321.32 399.91 L 321.19 400.06 L 320.11 401.14 L 320.14 402.37 L 319.96 402.48 L 319.85 402.37 L 319.81 401.14 L 318.73 400.06 L 317.50 400.03 L 316.27 400.00 L 316.15 399.91 L 316.17 398.68 L 315.89 397.45 L 315.04 396.44 L 314.99 396.22 L 315.04 396.17 L 316.18 394.99 L 316.12 393.76 L 315.04 392.68 L 313.96 393.76 L 313.81 393.85 L 313.70 393.76 L 312.58 392.64 L 312.39 392.53 L 311.35 391.49 L 310.31 392.53 L 310.12 392.62 L 308.89 392.66 L 308.80 392.53 L 308.79 391.30 L 307.66 390.17 L 307.55 390.07 L 306.43 388.95 L 305.20 388.94 L 303.97 388.98 L 302.74 388.97 L 301.51 388.97 L 301.41 388.84 L 301.51 388.67 L 302.57 387.61 L 302.64 386.38 L 302.74 386.28 L 303.87 385.15 L 303.37 383.92 L 302.74 383.29 L 301.51 382.78 L 301.43 382.69 L 301.39 381.46 L 300.28 380.35 L 300.19 380.23 L 299.05 379.09 L 298.96 379.00 L 299.05 378.92 L 300.20 377.77 L 300.28 377.68 L 300.44 377.77 L 301.51 378.84 L 302.58 377.77 L 302.48 376.54 L 302.63 375.31 L 301.51 374.19 L 300.28 374.17 L 300.18 374.08 L 300.20 372.85 L 300.28 372.75 L 300.92 372.85 L 301.51 373.44 L 302.10 372.85 L 302.74 372.73 L 303.85 371.62 L 302.74 370.51 L 302.62 370.39 L 302.74 370.30 L 303.88 369.16 L 303.97 368.85 L 305.20 368.96 L 306.23 367.93 L 305.20 366.90 L 305.12 366.70 L 305.20 366.62 L 306.43 366.61 L 307.66 366.51 L 308.70 365.47 L 308.80 364.24 L 308.89 364.14 L 310.12 364.14 L 311.35 364.12 L 312.58 364.08 L 313.65 363.01 L 312.58 361.94 L 311.35 361.90 L 310.12 361.88 L 308.89 361.88 L 307.66 361.87 L 306.52 363.01 L 306.43 363.09 L 306.34 363.01 L 305.20 361.87 L 303.97 361.82 L 302.83 363.01 L 302.74 363.09 L 301.51 363.09 L 300.84 363.01 L 301.51 362.89 L 302.62 361.78 L 301.51 360.67 L 300.40 361.78 L 300.28 362.45 L 299.05 361.91 L 298.96 361.78 L 297.82 360.64 L 296.59 360.79 L 295.60 361.78 L 295.52 363.01 L 295.36 363.13 L 295.26 363.01 L 294.13 361.88 L 294.05 361.78 L 294.13 361.68 L 295.26 360.55 L 294.13 359.42 L 293.00 360.55 L 292.90 360.63 L 292.80 360.55 L 291.67 359.42 L 290.54 360.55 L 290.44 360.67 L 289.33 361.78 L 289.50 363.01 L 289.66 364.24 L 289.21 364.31 L 289.06 364.24 L 287.98 363.16 L 287.89 363.01 L 287.98 362.92 L 289.12 361.78 L 288.98 360.55 L 287.98 359.55 L 287.89 359.32 L 287.85 358.09 L 286.75 356.99 L 285.65 358.09 L 285.61 359.32 L 285.52 359.40 L 285.44 359.32 L 285.43 358.09 L 284.29 356.95 L 283.06 356.95 L 281.92 358.09 L 281.83 358.19 L 280.70 359.32 L 280.60 359.42 L 279.37 359.43 L 278.25 360.55 L 278.14 360.72 L 276.91 360.67 L 275.68 360.64 L 275.60 360.55 L 275.68 360.46 L 276.82 359.32 L 276.77 358.09 L 276.81 356.86 L 276.77 355.63 L 275.68 354.54 L 275.34 354.40 L 274.45 353.51 L 274.36 353.17 L 273.22 352.03 L 272.08 353.17 L 271.99 353.26 L 270.85 354.40 L 270.76 354.49 L 269.53 354.50 L 269.44 354.40 L 269.53 354.29 L 270.65 353.17 L 269.53 352.05 L 269.45 351.94 L 269.53 351.68 L 270.50 350.71 L 269.53 349.74 L 268.30 349.58 L 267.12 350.71 L 267.07 350.76 L 266.80 350.71 L 266.50 349.48 L 265.84 348.82 L 265.74 348.25 L 264.61 347.12 L 263.38 347.11 L 263.27 347.02 L 262.15 345.90 L 261.03 347.02 L 262.15 348.14 L 262.24 348.25 L 262.15 348.39 L 261.06 349.48 L 262.15 350.58 L 262.58 350.71 L 262.15 350.79 L 261.01 351.94 L 260.92 352.06 L 259.81 353.17 L 259.69 353.27 L 258.56 354.40 L 258.56 355.63 L 258.55 356.86 L 258.46 356.97 L 258.37 356.86 L 258.34 355.63 L 257.23 354.52 L 256.00 354.50 L 254.77 354.53 L 253.54 354.65 L 252.31 354.92 L 251.60 355.63 L 251.08 355.87 L 250.09 356.86 L 249.85 356.96 L 249.27 356.86 L 249.69 355.63 L 248.62 354.56 L 247.98 354.40 L 248.62 354.30 L 249.75 353.17 L 248.62 352.04 L 248.52 351.94 L 248.62 351.40 L 249.31 350.71 L 248.62 350.02 L 248.51 349.48 L 247.39 348.36 L 247.30 348.25 L 247.29 347.02 L 247.39 346.93 L 248.62 346.89 L 249.72 345.79 L 249.75 344.56 L 249.85 344.42 L 250.94 343.33 L 250.97 342.10 L 251.08 342.02 L 251.37 342.10 L 252.31 343.04 L 253.25 342.10 L 253.54 342.01 L 254.77 341.99 L 255.89 340.87 L 254.77 339.75 L 254.56 339.64 L 253.54 338.62 L 252.31 338.52 L 252.02 338.41 L 251.08 337.47 L 249.85 337.27 L 249.62 337.18 L 249.18 335.95 L 248.62 335.39 L 248.52 334.72 L 247.39 333.59 L 246.26 334.72 L 246.16 334.82 L 244.93 334.82 L 244.78 334.72 L 244.77 333.49 L 243.70 332.42 L 243.62 332.26 L 242.47 331.11 L 242.35 331.03 L 241.24 329.92 L 241.16 329.80 L 241.15 328.57 L 241.14 327.34 L 240.01 326.21 L 238.88 327.34 L 238.78 327.47 L 237.68 328.57 L 237.55 328.68 L 236.43 329.80 L 236.32 329.94 L 236.18 329.80 L 235.09 328.71 L 233.86 328.68 L 232.63 328.70 L 231.53 329.80 L 231.40 329.94 L 230.17 329.89 L 230.07 329.80 L 230.17 329.70 L 231.30 328.57 L 231.40 328.29 L 232.35 327.34 L 231.40 326.39 L 231.32 326.11 L 231.40 326.01 L 232.53 324.88 L 231.40 323.75 L 230.86 323.65 L 231.40 323.57 L 232.63 323.50 L 233.86 323.23 L 234.67 322.42 L 235.09 322.33 L 236.23 321.19 L 235.09 320.05 L 234.93 319.96 L 234.68 318.73 L 233.86 317.91 L 232.63 317.59 L 231.40 317.61 L 231.01 317.50 L 231.31 316.27 L 231.40 316.09 L 232.45 315.04 L 231.40 313.99 L 231.31 313.81 L 231.27 312.58 L 230.17 311.48 L 229.07 312.58 L 229.03 313.81 L 228.94 313.90 L 227.71 313.98 L 226.69 313.81 L 226.48 313.60 L 225.25 312.73 L 224.02 312.68 L 223.92 312.58 L 222.79 311.45 L 222.71 311.35 L 222.79 311.27 L 223.94 310.12 L 224.02 310.04 L 225.25 310.07 L 226.11 308.89 L 226.48 308.72 L 227.71 308.60 L 228.65 307.66 L 227.71 306.72 L 226.48 306.60 L 225.25 307.07 L 225.17 306.43 L 225.25 306.26 L 226.31 305.20 L 226.12 303.97 L 226.18 302.74 L 225.25 301.81 L 224.32 302.74 L 224.38 303.97 L 224.02 304.05 L 223.85 303.97 L 222.79 302.91 L 221.56 302.83 L 220.33 303.66 L 220.00 302.74 L 220.33 302.64 L 221.46 301.51 L 221.48 300.28 L 221.56 300.20 L 222.79 300.18 L 223.02 300.28 L 224.02 301.28 L 225.02 300.28 L 224.02 299.28 L 223.92 299.05 L 222.79 297.92 L 222.68 297.82 L 221.56 296.70 L 220.33 296.67 L 220.18 296.59 L 219.10 295.51 L 217.87 295.68 L 217.78 295.36 L 217.87 295.28 L 219.10 295.27 L 220.24 294.13 L 220.33 294.00 L 221.43 292.90 L 221.44 291.67 L 220.33 290.56 L 219.10 290.53 L 218.93 290.44 L 217.87 289.38 L 217.74 289.21 L 217.87 289.12 L 219.01 287.98 L 219.10 287.77 L 220.12 286.75 L 219.10 285.73 L 217.87 285.69 L 217.43 285.52 L 217.65 284.29 L 216.64 283.15 L 216.59 283.06 L 216.64 283.00 L 217.73 281.83 L 216.64 280.74 L 216.55 280.60 L 216.64 280.49 L 217.76 279.37 L 216.64 278.25 L 216.52 278.14 L 216.55 276.91 L 216.55 275.68 L 216.55 274.45 L 216.54 273.22 L 216.38 271.99 L 215.41 271.02 L 215.32 270.76 L 215.41 270.44 L 216.32 269.53 L 216.28 268.30 L 215.41 267.43 L 215.30 267.07 L 215.27 265.84 L 214.18 264.75 L 213.09 265.84 L 213.06 267.07 L 213.05 268.30 L 213.05 269.53 L 213.04 270.76 L 212.95 270.85 L 211.81 271.99 L 211.72 272.15 L 210.65 273.22 L 211.72 274.29 L 211.80 274.45 L 211.72 274.54 L 210.58 275.68 L 210.57 276.91 L 210.49 277.02 L 209.37 278.14 L 209.26 278.26 L 208.15 279.37 L 208.12 280.60 L 208.03 280.71 L 206.80 281.11 L 206.08 281.83 L 206.80 282.55 L 206.94 283.06 L 206.80 283.20 L 205.57 283.15 L 204.34 283.29 L 203.34 284.29 L 203.30 285.52 L 203.24 286.75 L 203.11 286.84 L 201.88 287.03 L 200.93 287.98 L 201.88 288.93 L 201.96 289.21 L 201.88 289.56 L 200.65 289.31 L 199.42 289.53 L 198.19 289.74 L 196.96 289.37 L 195.89 290.44 L 195.82 291.67 L 196.32 292.90 L 195.88 294.13 L 195.73 294.23 L 194.50 294.21 L 194.41 294.13 L 194.38 292.90 L 193.27 291.79 L 192.16 292.90 L 192.04 293.19 L 191.10 294.13 L 190.81 294.22 L 189.58 294.23 L 188.45 295.36 L 188.47 296.59 L 188.46 297.82 L 188.35 298.01 L 187.12 297.93 L 186.47 297.82 L 185.89 297.24 L 184.66 296.68 L 183.43 296.68 L 182.20 296.92 L 180.97 296.87 L 179.74 296.69 L 178.51 296.78 L 177.28 296.69 L 176.15 297.82 L 176.15 299.05 L 176.15 300.28 L 177.28 301.41 L 177.36 301.51 L 177.28 301.60 L 176.05 301.61 L 174.92 302.74 L 174.82 302.91 L 173.59 302.99 L 173.50 302.74 L 172.36 301.60 L 171.13 301.63 L 171.04 301.51 L 171.13 301.35 L 172.20 300.28 L 172.06 299.05 L 172.25 297.82 L 171.13 296.70 L 169.90 296.70 L 168.78 297.82 L 168.67 297.90 L 168.22 297.82 L 167.44 297.04 L 166.21 296.69 L 165.06 297.82 L 164.98 298.23 L 164.87 297.82 L 163.75 296.73 L 163.65 296.59 L 162.52 295.46 L 161.29 295.76 L 161.18 295.36 L 160.06 294.24 L 158.94 295.36 L 158.83 295.44 L 158.74 295.36 L 157.60 294.22 L 157.49 294.13 L 156.37 293.01 L 155.25 294.13 L 155.25 295.36 L 156.37 296.48 L 156.45 296.59 L 156.37 296.69 L 155.24 297.82 L 155.14 297.92 L 154.01 299.05 L 153.91 299.19 L 152.68 299.15 L 151.45 299.16 L 150.33 300.28 L 150.22 300.39 L 149.10 301.51 L 148.99 301.60 L 148.83 301.51 L 147.76 300.44 L 147.65 300.28 L 147.76 300.14 L 148.85 299.05 L 147.76 297.96 L 147.66 297.82 L 146.90 296.59 L 146.53 296.22 L 146.39 295.36 L 146.53 295.23 L 147.63 294.13 L 146.78 292.90 L 147.76 292.64 L 148.73 291.67 L 148.79 290.44 L 148.88 289.21 L 148.80 287.98 L 147.76 286.94 L 147.44 286.75 L 146.53 285.84 L 145.30 285.62 L 144.07 285.69 L 143.97 285.52 L 143.66 284.29 L 142.84 283.47 L 142.74 283.06 L 142.69 281.83 L 141.61 280.75 L 140.53 281.83 L 140.38 282.70 L 139.15 282.02 L 137.92 282.23 L 137.27 281.83 L 136.69 281.25 L 136.61 280.60 L 136.69 280.50 L 137.82 279.37 L 137.92 279.28 L 139.06 278.14 L 137.92 277.00 L 137.83 276.91 L 137.81 275.68 L 136.69 274.56 L 135.57 275.68 L 135.46 275.76 L 135.34 275.68 L 135.31 274.45 L 135.46 274.28 L 136.52 273.22 L 135.46 272.16 L 135.36 271.99 L 135.46 271.61 L 136.31 270.76 L 135.46 269.91 L 134.61 270.76 L 134.23 270.86 L 134.12 270.76 L 134.06 269.53 L 134.13 268.30 L 134.23 268.07 L 135.23 267.07 L 134.23 266.07 L 133.00 265.93 L 132.92 265.84 L 132.91 264.61 L 132.91 263.38 L 132.89 262.15 L 133.00 261.96 L 134.04 260.92 L 133.00 259.88 L 131.96 260.92 L 131.77 261.03 L 130.65 262.15 L 130.54 262.27 L 129.43 263.38 L 129.63 264.61 L 129.31 264.70 L 128.17 265.84 L 128.08 265.94 L 127.97 265.84 L 126.85 264.72 L 125.73 265.84 L 125.62 265.95 L 124.39 266.17 L 123.27 267.07 L 123.16 267.10 L 123.12 267.07 L 122.91 265.84 L 121.93 264.86 L 120.95 265.84 L 120.70 265.93 L 120.59 265.84 L 119.47 264.72 L 118.35 265.84 L 118.24 265.94 L 117.01 265.95 L 116.91 265.84 L 116.91 264.61 L 115.78 263.48 L 115.69 263.38 L 114.55 262.24 L 114.46 262.15 L 114.46 260.92 L 114.45 259.69 L 114.43 258.46 L 113.32 257.35 L 112.09 257.57 L 110.86 257.38 L 109.63 257.47 L 109.53 257.23 L 108.40 256.10 L 107.17 256.08 L 105.94 256.08 L 104.71 256.08 L 103.48 256.07 L 102.25 256.08 L 101.02 256.08 L 99.79 256.07 L 98.56 256.07 L 97.33 256.08 L 96.10 256.08 L 94.87 256.08 L 93.64 256.07 L 92.41 256.07 L 91.18 256.07 L 89.95 256.07 L 88.72 256.07 L 87.49 256.07 L 86.26 256.07 L 85.03 256.07 L 83.80 256.07 L 82.57 256.07 L 81.34 256.07 L 80.11 256.07 L 78.88 256.07 L 77.65 256.07 L 76.42 256.07 L 75.19 256.07 L 73.96 256.07 L 72.73 256.07 L 71.50 256.07 L 70.27 256.07 L 69.04 256.07 L 67.81 256.07 L 66.58 256.07 L 65.35 256.07 L 64.12 256.07 L 62.89 256.07 L 61.66 256.07 L 60.43 256.07 L 59.20 256.07 L 57.97 256.07 L 56.74 256.07 L 55.51 256.07 L 54.28 256.07 L 53.05 256.07 L 51.82 256.08 L 50.67 257.23 L 50.59 257.33 L 49.36 257.45 L 48.95 257.23 L 48.13 256.41 L 46.90 256.08 L 45.67 256.07 L 44.44 256.07 L 43.21 256.07 L 41.98 256.07 L 40.75 256.07 L 39.52 256.07 L 38.29 256.07 L 37.06 256.07 L 35.83 256.07 L 34.60 256.07 L 33.37 256.07 L 32.14 256.07 L 30.91 256.07 L 29.68 256.07 L 28.45 256.07 L 27.22 256.07 L 25.99 256.07 L 24.76 256.07 L 23.53 256.07 L 22.30 256.07 L 21.07 256.07 L 19.84 256.07 L 18.61 256.07 L 17.38 256.07 L 16.15 256.07 L 14.92 256.07 L 13.69 256.07 L 12.46 256.07 L 11.23 256.07 L 10.00 256.06 M 300.28 128.00 L 300.20 128.08 L 300.28 128.16 L 300.37 128.08 L 300.28 128.00 M 337.18 134.15 L 337.08 134.23 L 337.18 134.35 L 337.26 134.23 L 337.18 134.15 M 299.05 136.66 L 299.02 136.69 L 299.05 136.73 L 299.09 136.69 L 299.05 136.66 M 332.26 142.43 L 332.14 142.84 L 332.26 142.94 L 333.49 142.85 L 333.50 142.84 L 333.49 142.83 L 332.26 142.43 M 302.74 143.98 L 302.66 144.07 L 302.74 144.15 L 303.05 144.07 L 302.74 143.98 M 251.08 146.45 L 251.00 146.53 L 251.08 146.61 L 251.16 146.53 L 251.08 146.45 M 299.05 147.69 L 298.97 147.76 L 299.05 147.89 L 299.13 147.76 L 299.05 147.69 M 345.79 147.69 L 345.72 147.76 L 345.79 148.70 L 346.01 147.76 L 345.79 147.69 M 291.67 150.14 L 291.55 150.22 L 291.67 150.32 L 291.75 150.22 L 291.67 150.14 M 350.71 150.15 L 349.88 150.22 L 350.71 150.29 L 350.78 150.22 L 350.71 150.15 M 397.45 150.15 L 397.35 150.22 L 397.45 150.30 L 397.53 150.22 L 397.45 150.15 M 281.83 151.38 L 281.75 151.45 L 281.83 151.53 L 281.89 151.45 L 281.83 151.38 M 356.86 151.37 L 355.68 151.45 L 356.86 151.57 L 356.98 151.45 L 356.86 151.37 M 260.92 153.87 L 260.88 153.91 L 260.92 153.95 L 260.96 153.91 L 260.92 153.87 M 274.45 154.16 L 274.40 155.14 L 274.45 155.19 L 274.52 155.14 L 274.45 154.16 M 363.01 155.06 L 362.94 155.14 L 363.01 155.21 L 363.06 155.14 L 363.01 155.06 M 365.47 158.76 L 365.39 158.83 L 365.47 158.92 L 365.56 158.83 L 365.47 158.76 M 363.01 159.97 L 362.91 160.06 L 363.01 160.23 L 363.09 160.06 L 363.01 159.97 M 247.39 161.19 L 247.31 161.29 L 247.39 161.40 L 247.93 161.29 L 247.39 161.19 M 376.54 163.67 L 376.46 163.75 L 376.54 163.84 L 376.66 163.75 L 376.54 163.67 M 246.16 166.11 L 246.08 166.21 L 246.16 166.29 L 246.25 166.21 L 246.16 166.11 M 372.85 166.13 L 372.75 166.21 L 372.85 166.31 L 372.93 166.21 L 372.85 166.13 M 257.23 169.76 L 257.09 169.90 L 257.23 170.04 L 257.37 169.90 L 257.23 169.76 M 241.24 174.75 L 241.17 174.82 L 241.24 174.90 L 241.32 174.82 L 241.24 174.75 M 242.47 175.97 L 242.39 176.05 L 242.47 176.28 L 242.62 176.05 L 242.47 175.97 M 235.09 179.67 L 235.01 179.74 L 235.09 179.83 L 235.22 179.74 L 235.09 179.67 M 232.63 180.89 L 232.49 180.97 L 232.63 181.10 L 232.71 180.97 L 232.63 180.89 M 387.61 180.89 L 387.45 180.97 L 387.61 181.06 L 387.69 180.97 L 387.61 180.89 M 227.71 182.08 L 227.62 182.20 L 227.71 182.38 L 227.81 182.20 L 227.71 182.08 M 393.76 184.59 L 393.69 184.66 L 393.76 184.74 L 393.84 184.66 L 393.76 184.59 M 394.99 186.95 L 394.74 187.12 L 394.99 187.21 L 396.22 187.20 L 396.29 187.12 L 396.22 186.82 L 394.99 186.95 M 224.02 194.42 L 223.93 194.50 L 223.94 195.73 L 224.02 195.82 L 224.10 195.73 L 224.10 194.50 L 224.02 194.42 M 403.60 195.62 L 403.48 195.73 L 403.60 195.82 L 403.68 195.73 L 403.60 195.62 M 399.91 207.95 L 399.81 208.03 L 399.91 208.25 L 399.98 208.03 L 399.91 207.95 M 219.10 210.16 L 219.00 210.49 L 219.10 210.57 L 219.20 210.49 L 219.10 210.16 M 184.66 212.87 L 184.58 212.95 L 184.66 213.04 L 185.89 213.60 L 186.00 212.95 L 185.89 212.87 L 184.66 212.87 M 150.22 220.46 L 149.12 221.56 L 150.22 222.66 L 151.45 222.39 L 152.28 221.56 L 151.45 220.73 L 150.22 220.46 M 216.64 221.48 L 216.49 221.56 L 216.64 221.69 L 216.81 221.56 L 216.64 221.48 M 146.53 223.94 L 146.44 224.02 L 146.53 224.34 L 146.72 224.02 L 146.53 223.94 M 216.64 225.17 L 216.56 225.25 L 216.64 225.69 L 216.81 225.25 L 216.64 225.17 M 136.69 227.62 L 136.60 227.71 L 136.58 228.94 L 136.69 229.59 L 137.09 228.94 L 136.78 227.71 L 136.69 227.62 M 398.68 241.10 L 398.59 241.24 L 398.68 241.31 L 398.76 241.24 L 398.68 241.10 M 398.68 270.69 L 398.59 270.76 L 398.68 270.90 L 398.76 270.76 L 398.68 270.69 M 136.69 282.41 L 136.58 283.06 L 136.60 284.29 L 136.69 284.38 L 136.78 284.29 L 137.09 283.06 L 136.69 282.41 M 216.64 286.31 L 216.56 286.75 L 216.64 286.83 L 216.81 286.75 L 216.64 286.31 M 146.53 287.66 L 146.44 287.98 L 146.53 288.06 L 146.72 287.98 L 146.53 287.66 M 150.22 289.34 L 149.12 290.44 L 150.22 291.54 L 151.45 291.27 L 152.28 290.44 L 151.45 289.61 L 150.22 289.34 M 216.64 290.31 L 216.49 290.44 L 216.64 290.52 L 216.81 290.44 L 216.64 290.31 M 184.66 298.96 L 184.58 299.05 L 184.66 299.13 L 185.89 299.13 L 186.00 299.05 L 185.89 298.40 L 184.66 298.96 M 219.10 301.43 L 219.00 301.51 L 219.10 301.84 L 219.20 301.51 L 219.10 301.43 M 399.91 303.75 L 399.81 303.97 L 399.91 304.05 L 399.98 303.97 L 399.91 303.75 M 224.02 316.18 L 223.94 316.27 L 223.93 317.50 L 224.02 317.58 L 224.10 317.50 L 224.10 316.27 L 224.02 316.18 M 403.60 316.18 L 403.48 316.27 L 403.60 316.38 L 403.68 316.27 L 403.60 316.18 M 394.99 324.79 L 394.74 324.88 L 394.99 325.05 L 396.22 325.18 L 396.29 324.88 L 396.22 324.80 L 394.99 324.79 M 393.76 327.26 L 393.69 327.34 L 393.76 327.41 L 393.84 327.34 L 393.76 327.26 M 227.71 329.62 L 227.62 329.80 L 227.71 329.92 L 227.81 329.80 L 227.71 329.62 M 232.63 330.90 L 232.49 331.03 L 232.63 331.11 L 232.71 331.03 L 232.63 330.90 M 387.61 330.94 L 387.45 331.03 L 387.61 331.11 L 387.69 331.03 L 387.61 330.94 M 235.09 332.17 L 235.01 332.26 L 235.09 332.33 L 235.22 332.26 L 235.09 332.17 M 242.47 335.72 L 242.39 335.95 L 242.47 336.03 L 242.62 335.95 L 242.47 335.72 M 241.24 337.10 L 241.17 337.18 L 241.24 337.25 L 241.32 337.18 L 241.24 337.10 M 257.23 341.96 L 257.09 342.10 L 257.23 342.24 L 257.37 342.10 L 257.23 341.96 M 246.16 345.71 L 246.08 345.79 L 246.16 345.89 L 246.25 345.79 L 246.16 345.71 M 372.85 345.69 L 372.75 345.79 L 372.85 345.87 L 372.93 345.79 L 372.85 345.69 M 376.54 348.16 L 376.46 348.25 L 376.54 348.33 L 376.66 348.25 L 376.54 348.16 M 247.39 350.60 L 247.31 350.71 L 247.39 350.81 L 247.93 350.71 L 247.39 350.60 M 363.01 351.77 L 362.91 351.94 L 363.01 352.03 L 363.09 351.94 L 363.01 351.77 M 365.47 353.08 L 365.39 353.17 L 365.47 353.24 L 365.56 353.17 L 365.47 353.08 M 274.45 356.81 L 274.40 356.86 L 274.45 357.84 L 274.52 356.86 L 274.45 356.81 M 363.01 356.79 L 362.94 356.86 L 363.01 356.94 L 363.06 356.86 L 363.01 356.79 M 260.92 358.05 L 260.88 358.09 L 260.92 358.13 L 260.96 358.09 L 260.92 358.05 M 281.83 360.47 L 281.75 360.55 L 281.83 360.62 L 281.89 360.55 L 281.83 360.47 M 356.86 360.43 L 355.68 360.55 L 356.86 360.63 L 356.98 360.55 L 356.86 360.43 M 291.67 361.68 L 291.55 361.78 L 291.67 361.86 L 291.75 361.78 L 291.67 361.68 M 350.71 361.71 L 349.88 361.78 L 350.71 361.85 L 350.78 361.78 L 350.71 361.71 M 397.45 361.70 L 397.35 361.78 L 397.45 361.85 L 397.53 361.78 L 397.45 361.70 M 299.05 364.11 L 298.97 364.24 L 299.05 364.31 L 299.13 364.24 L 299.05 364.11 M 345.79 363.30 L 345.72 364.24 L 345.79 364.31 L 346.01 364.24 L 345.79 363.30 M 251.08 365.39 L 251.00 365.47 L 251.08 365.55 L 251.16 365.47 L 251.08 365.39 M 302.74 367.85 L 302.66 367.93 L 302.74 368.02 L 303.05 367.93 L 302.74 367.85 M 332.26 369.06 L 332.14 369.16 L 332.26 369.57 L 333.49 369.17 L 333.50 369.16 L 333.49 369.15 L 332.26 369.06 M 299.05 375.27 L 299.02 375.31 L 299.05 375.34 L 299.09 375.31 L 299.05 375.27 M 337.18 377.65 L 337.08 377.77 L 337.18 377.85 L 337.26 377.77 L 337.18 377.65 M 300.28 383.84 L 300.20 383.92 L 300.28 384.00 L 300.37 383.92 L 300.28 383.84 M 311.35 424.44 L 311.28 424.51 L 311.35 424.70 L 311.75 424.51 L 311.35 424.44 M 312.58 425.34 L 312.39 425.74 L 312.58 425.82 L 312.66 425.74 L 312.58 425.34" fill="url(#fractalGradient)" stroke="none" stroke-width="0" fill-rule="evenodd" />
</svg>
