<svg width="354" height="354" viewBox="0 0 354 354" fill="none" xmlns="http://www.w3.org/2000/svg">
<path d="M354 177C354 274.754 274.754 354 177 354C79.2456 354 0 274.754 0 177C0 79.2456 79.2456 0 177 0C274.754 0 354 79.2456 354 177Z" fill="#FF2C29"/>
<path fill-rule="evenodd" clip-rule="evenodd" d="M157.308 246.893H237.798V218.929H182.526V214.786C195.308 207.018 212.58 193.381 222.944 180.952C231.062 171.286 239.525 157.821 239.525 142.113C239.525 120.363 224.844 105 197.553 105C170.435 105 156.272 118.637 156.272 147.464V160.929H186.671V144.357C186.671 130.72 188.744 120.536 197.898 120.536C207.916 120.536 209.471 131.929 209.471 141.94C209.471 154.542 205.844 163 194.617 174.911C182.353 188.03 170.09 200.113 157.308 212.369V246.893Z" fill="#FCFCFC"/>
<path fill-rule="evenodd" clip-rule="evenodd" d="M257.835 246.893V178.881H247.472V152.988H286.853V246.893H257.835Z" fill="#FCFCFC"/>
<path fill-rule="evenodd" clip-rule="evenodd" d="M271.309 140.214C258.7 140.214 251.619 134 251.619 122.78C251.619 111.214 258.7 105 271.309 105C283.918 105 291 111.214 291 122.78C291 134 283.918 140.214 271.309 140.214Z" fill="#FCFCFC"/>
<path d="M93.0542 250C106.872 250 114.299 243.095 117.754 228.25H121.899L124.145 246.893H145.908V178.881H107.218V203.048H115.854V205.292C115.854 222.036 112.399 229.286 104.281 229.286C96.336 229.286 93.0542 222.036 93.0542 205.292V144.357C93.0542 127.613 96.5087 120.536 104.454 120.536C112.399 120.536 115.854 127.613 115.854 144.357V160.929H145.908V147.119C145.908 118.81 131.572 105 104.454 105C77.5089 105 63 118.119 63 145.738V205.81C63 235.327 73.709 250 93.0542 250Z" fill="#FCFCFC"/>
</svg>
