<?xml version="1.0" encoding="UTF-8"?>
<svg xmlns="http://www.w3.org/2000/svg" width="512" height="512" viewBox="0 0 512 512">
  <defs>
    <linearGradient id="fractalGradient" x1="85.4%" y1="14.6%" x2="14.6%" y2="85.4%">
      <stop offset="0%" stop-color="#4f46e5" />
      <stop offset="50%" stop-color="#7c3aed" />
      <stop offset="100%" stop-color="#a855f7" />
    </linearGradient>
  </defs>
  <title>type=gosper | dimension=2.0000 | iter=4 | segments=2402</title>
  <rect x="0" y="0" width="512" height="512" fill="none" />
  <circle cx="256" cy="256" r="251" fill="#f5f5f4" />
  <path d="M 311.2421 441.3841 L 318.1474 441.3841 L 321.6000 435.4040 L 314.6947 435.4040 L 311.2421 429.4239 L 318.1474 429.4239 L 325.0526 429.4239 L 328.5053 435.4040 L 335.4105 435.4040 L 338.8632 429.4239 L 342.3158 423.4437 L 335.4105 423.4437 L 331.9579 429.4239 L 328.5053 423.4437 L 331.9579 417.4636 L 328.5053 411.4835 L 321.6000 411.4835 L 314.6947 411.4835 L 318.1474 417.4636 L 325.0526 417.4636 L 321.6000 423.4437 L 314.6947 423.4437 L 311.2421 417.4636 L 304.3368 417.4636 L 307.7895 423.4437 L 304.3368 429.4239 L 300.8842 423.4437 L 297.4316 417.4636 L 300.8842 411.4835 L 307.7895 411.4835 L 311.2421 405.5033 L 304.3368 405.5033 L 300.8842 399.5232 L 307.7895 399.5232 L 314.6947 399.5232 L 318.1474 405.5033 L 325.0526 405.5033 L 328.5053 399.5232 L 321.6000 399.5232 L 318.1474 393.5431 L 325.0526 393.5431 L 331.9579 393.5431 L 335.4105 399.5232 L 331.9579 405.5033 L 335.4105 411.4835 L 338.8632 417.4636 L 342.3158 411.4835 L 338.8632 405.5033 L 345.7684 405.5033 L 349.2211 411.4835 L 356.1263 411.4835 L 359.5789 405.5033 L 352.6737 405.5033 L 349.2211 399.5232 L 356.1263 399.5232 L 363.0316 399.5232 L 366.4842 405.5033 L 373.3895 405.5033 L 376.8421 399.5232 L 380.2947 393.5431 L 373.3895 393.5431 L 369.9368 399.5232 L 366.4842 393.5431 L 369.9368 387.5629 L 376.8421 387.5629 L 380.2947 381.5828 L 383.7474 375.6027 L 376.8421 375.6027 L 373.3895 381.5828 L 369.9368 375.6027 L 373.3895 369.6225 L 369.9368 363.6424 L 363.0316 363.6424 L 356.1263 363.6424 L 359.5789 369.6225 L 366.4842 369.6225 L 363.0316 375.6027 L 356.1263 375.6027 L 352.6737 381.5828 L 356.1263 387.5629 L 359.5789 381.5828 L 366.4842 381.5828 L 363.0316 387.5629 L 359.5789 393.5431 L 352.6737 393.5431 L 349.2211 387.5629 L 342.3158 387.5629 L 345.7684 393.5431 L 342.3158 399.5232 L 338.8632 393.5431 L 335.4105 387.5629 L 338.8632 381.5828 L 345.7684 381.5828 L 349.2211 375.6027 L 352.6737 369.6225 L 345.7684 369.6225 L 342.3158 375.6027 L 338.8632 369.6225 L 342.3158 363.6424 L 338.8632 357.6623 L 331.9579 357.6623 L 335.4105 363.6424 L 331.9579 369.6225 L 328.5053 363.6424 L 325.0526 357.6623 L 328.5053 351.6821 L 325.0526 345.7020 L 318.1474 345.7020 L 311.2421 345.7020 L 314.6947 351.6821 L 321.6000 351.6821 L 318.1474 357.6623 L 311.2421 357.6623 L 307.7895 351.6821 L 300.8842 351.6821 L 293.9789 351.6821 L 297.4316 357.6623 L 304.3368 357.6623 L 300.8842 363.6424 L 293.9789 363.6424 L 290.5263 369.6225 L 293.9789 375.6027 L 297.4316 381.5828 L 300.8842 375.6027 L 297.4316 369.6225 L 304.3368 369.6225 L 307.7895 375.6027 L 314.6947 375.6027 L 318.1474 369.6225 L 311.2421 369.6225 L 307.7895 363.6424 L 314.6947 363.6424 L 321.6000 363.6424 L 325.0526 369.6225 L 321.6000 375.6027 L 325.0526 381.5828 L 328.5053 375.6027 L 335.4105 375.6027 L 331.9579 381.5828 L 328.5053 387.5629 L 321.6000 387.5629 L 318.1474 381.5828 L 311.2421 381.5828 L 304.3368 381.5828 L 307.7895 387.5629 L 314.6947 387.5629 L 311.2421 393.5431 L 304.3368 393.5431 L 300.8842 387.5629 L 293.9789 387.5629 L 297.4316 393.5431 L 293.9789 399.5232 L 290.5263 393.5431 L 287.0737 387.5629 L 290.5263 381.5828 L 287.0737 375.6027 L 280.1684 375.6027 L 273.2632 375.6027 L 276.7158 381.5828 L 283.6211 381.5828 L 280.1684 387.5629 L 273.2632 387.5629 L 269.8105 393.5431 L 273.2632 399.5232 L 276.7158 405.5033 L 280.1684 399.5232 L 276.7158 393.5431 L 283.6211 393.5431 L 287.0737 399.5232 L 283.6211 405.5033 L 287.0737 411.4835 L 290.5263 405.5033 L 297.4316 405.5033 L 293.9789 411.4835 L 290.5263 417.4636 L 283.6211 417.4636 L 280.1684 411.4835 L 273.2632 411.4835 L 276.7158 417.4636 L 273.2632 423.4437 L 269.8105 417.4636 L 266.3579 411.4835 L 269.8105 405.5033 L 266.3579 399.5232 L 259.4526 399.5232 L 262.9053 405.5033 L 259.4526 411.4835 L 256.0000 405.5033 L 252.5474 399.5232 L 256.0000 393.5431 L 262.9053 393.5431 L 266.3579 387.5629 L 269.8105 381.5828 L 262.9053 381.5828 L 259.4526 387.5629 L 256.0000 381.5828 L 259.4526 375.6027 L 266.3579 375.6027 L 269.8105 369.6225 L 262.9053 369.6225 L 259.4526 363.6424 L 266.3579 363.6424 L 273.2632 363.6424 L 276.7158 369.6225 L 283.6211 369.6225 L 287.0737 363.6424 L 290.5263 357.6623 L 283.6211 357.6623 L 280.1684 363.6424 L 276.7158 357.6623 L 280.1684 351.6821 L 276.7158 345.7020 L 269.8105 345.7020 L 262.9053 345.7020 L 266.3579 351.6821 L 273.2632 351.6821 L 269.8105 357.6623 L 262.9053 357.6623 L 259.4526 351.6821 L 252.5474 351.6821 L 256.0000 357.6623 L 252.5474 363.6424 L 249.0947 357.6623 L 245.6421 351.6821 L 249.0947 345.7020 L 256.0000 345.7020 L 259.4526 339.7219 L 252.5474 339.7219 L 249.0947 333.7417 L 256.0000 333.7417 L 262.9053 333.7417 L 266.3579 339.7219 L 273.2632 339.7219 L 276.7158 333.7417 L 269.8105 333.7417 L 266.3579 327.7616 L 273.2632 327.7616 L 280.1684 327.7616 L 283.6211 333.7417 L 280.1684 339.7219 L 283.6211 345.7020 L 287.0737 351.6821 L 290.5263 345.7020 L 287.0737 339.7219 L 293.9789 339.7219 L 297.4316 345.7020 L 304.3368 345.7020 L 307.7895 339.7219 L 300.8842 339.7219 L 297.4316 333.7417 L 304.3368 333.7417 L 311.2421 333.7417 L 314.6947 339.7219 L 321.6000 339.7219 L 325.0526 333.7417 L 328.5053 327.7616 L 321.6000 327.7616 L 318.1474 333.7417 L 314.6947 327.7616 L 318.1474 321.7815 L 314.6947 315.8013 L 307.7895 315.8013 L 300.8842 315.8013 L 304.3368 321.7815 L 311.2421 321.7815 L 307.7895 327.7616 L 300.8842 327.7616 L 297.4316 321.7815 L 290.5263 321.7815 L 293.9789 327.7616 L 290.5263 333.7417 L 287.0737 327.7616 L 283.6211 321.7815 L 287.0737 315.8013 L 293.9789 315.8013 L 297.4316 309.8212 L 290.5263 309.8212 L 287.0737 303.8411 L 293.9789 303.8411 L 300.8842 303.8411 L 304.3368 309.8212 L 311.2421 309.8212 L 314.6947 303.8411 L 307.7895 303.8411 L 304.3368 297.8609 L 311.2421 297.8609 L 318.1474 297.8609 L 321.6000 303.8411 L 318.1474 309.8212 L 321.6000 315.8013 L 325.0526 321.7815 L 328.5053 315.8013 L 325.0526 309.8212 L 331.9579 309.8212 L 335.4105 315.8013 L 331.9579 321.7815 L 335.4105 327.7616 L 338.8632 321.7815 L 345.7684 321.7815 L 342.3158 327.7616 L 338.8632 333.7417 L 331.9579 333.7417 L 328.5053 339.7219 L 331.9579 345.7020 L 335.4105 351.6821 L 338.8632 345.7020 L 335.4105 339.7219 L 342.3158 339.7219 L 345.7684 345.7020 L 342.3158 351.6821 L 345.7684 357.6623 L 349.2211 363.6424 L 352.6737 357.6623 L 349.2211 351.6821 L 356.1263 351.6821 L 359.5789 357.6623 L 366.4842 357.6623 L 369.9368 351.6821 L 373.3895 345.7020 L 366.4842 345.7020 L 363.0316 351.6821 L 359.5789 345.7020 L 363.0316 339.7219 L 359.5789 333.7417 L 352.6737 333.7417 L 356.1263 339.7219 L 352.6737 345.7020 L 349.2211 339.7219 L 345.7684 333.7417 L 349.2211 327.7616 L 356.1263 327.7616 L 359.5789 321.7815 L 352.6737 321.7815 L 349.2211 315.8013 L 356.1263 315.8013 L 363.0316 315.8013 L 366.4842 321.7815 L 363.0316 327.7616 L 366.4842 333.7417 L 369.9368 339.7219 L 373.3895 333.7417 L 369.9368 327.7616 L 376.8421 327.7616 L 380.2947 333.7417 L 387.2000 333.7417 L 390.6526 327.7616 L 383.7474 327.7616 L 380.2947 321.7815 L 387.2000 321.7815 L 394.1053 321.7815 L 397.5579 327.7616 L 404.4632 327.7616 L 407.9158 321.7815 L 411.3684 315.8013 L 404.4632 315.8013 L 401.0105 321.7815 L 397.5579 315.8013 L 401.0105 309.8212 L 397.5579 303.8411 L 390.6526 303.8411 L 383.7474 303.8411 L 387.2000 309.8212 L 394.1053 309.8212 L 390.6526 315.8013 L 383.7474 315.8013 L 380.2947 309.8212 L 373.3895 309.8212 L 376.8421 315.8013 L 373.3895 321.7815 L 369.9368 315.8013 L 366.4842 309.8212 L 369.9368 303.8411 L 376.8421 303.8411 L 380.2947 297.8609 L 373.3895 297.8609 L 369.9368 291.8808 L 376.8421 291.8808 L 383.7474 291.8808 L 387.2000 297.8609 L 394.1053 297.8609 L 397.5579 291.8808 L 390.6526 291.8808 L 387.2000 285.9007 L 394.1053 285.9007 L 401.0105 285.9007 L 404.4632 291.8808 L 401.0105 297.8609 L 404.4632 303.8411 L 407.9158 309.8212 L 411.3684 303.8411 L 407.9158 297.8609 L 414.8211 297.8609 L 418.2737 303.8411 L 425.1789 303.8411 L 428.6316 297.8609 L 421.7263 297.8609 L 418.2737 291.8808 L 425.1789 291.8808 L 432.0842 291.8808 L 435.5368 297.8609 L 442.4421 297.8609 L 445.8947 291.8808 L 449.3474 285.9007 L 442.4421 285.9007 L 438.9895 291.8808 L 435.5368 285.9007 L 438.9895 279.9205 L 445.8947 279.9205 L 449.3474 273.9404 L 452.8000 267.9603 L 445.8947 267.9603 L 442.4421 273.9404 L 438.9895 267.9603 L 442.4421 261.9801 L 438.9895 256.0000 L 432.0842 256.0000 L 425.1789 256.0000 L 428.6316 261.9801 L 435.5368 261.9801 L 432.0842 267.9603 L 425.1789 267.9603 L 421.7263 273.9404 L 425.1789 279.9205 L 428.6316 273.9404 L 435.5368 273.9404 L 432.0842 279.9205 L 428.6316 285.9007 L 421.7263 285.9007 L 418.2737 279.9205 L 411.3684 279.9205 L 414.8211 285.9007 L 411.3684 291.8808 L 407.9158 285.9007 L 404.4632 279.9205 L 407.9158 273.9404 L 414.8211 273.9404 L 418.2737 267.9603 L 421.7263 261.9801 L 414.8211 261.9801 L 411.3684 267.9603 L 407.9158 261.9801 L 411.3684 256.0000 L 418.2737 256.0000 L 421.7263 250.0199 L 414.8211 250.0199 L 411.3684 244.0397 L 418.2737 244.0397 L 425.1789 244.0397 L 428.6316 250.0199 L 435.5368 250.0199 L 438.9895 244.0397 L 442.4421 238.0596 L 435.5368 238.0596 L 432.0842 244.0397 L 428.6316 238.0596 L 432.0842 232.0795 L 438.9895 232.0795 L 442.4421 226.0993 L 445.8947 220.1192 L 438.9895 220.1192 L 435.5368 226.0993 L 432.0842 220.1192 L 435.5368 214.1391 L 432.0842 208.1589 L 425.1789 208.1589 L 418.2737 208.1589 L 421.7263 214.1391 L 428.6316 214.1391 L 425.1789 220.1192 L 418.2737 220.1192 L 414.8211 226.0993 L 418.2737 232.0795 L 421.7263 226.0993 L 428.6316 226.0993 L 425.1789 232.0795 L 421.7263 238.0596 L 414.8211 238.0596 L 411.3684 232.0795 L 404.4632 232.0795 L 407.9158 238.0596 L 404.4632 244.0397 L 401.0105 238.0596 L 397.5579 232.0795 L 401.0105 226.0993 L 407.9158 226.0993 L 411.3684 220.1192 L 414.8211 214.1391 L 407.9158 214.1391 L 404.4632 220.1192 L 401.0105 214.1391 L 404.4632 208.1589 L 401.0105 202.1788 L 394.1053 202.1788 L 397.5579 208.1589 L 394.1053 214.1391 L 390.6526 208.1589 L 387.2000 202.1788 L 390.6526 196.1987 L 387.2000 190.2185 L 380.2947 190.2185 L 373.3895 190.2185 L 376.8421 196.1987 L 383.7474 196.1987 L 380.2947 202.1788 L 373.3895 202.1788 L 369.9368 196.1987 L 363.0316 196.1987 L 356.1263 196.1987 L 359.5789 202.1788 L 366.4842 202.1788 L 363.0316 208.1589 L 356.1263 208.1589 L 352.6737 214.1391 L 356.1263 220.1192 L 359.5789 226.0993 L 363.0316 220.1192 L 359.5789 214.1391 L 366.4842 214.1391 L 369.9368 220.1192 L 376.8421 220.1192 L 380.2947 214.1391 L 373.3895 214.1391 L 369.9368 208.1589 L 376.8421 208.1589 L 383.7474 208.1589 L 387.2000 214.1391 L 383.7474 220.1192 L 387.2000 226.0993 L 390.6526 220.1192 L 397.5579 220.1192 L 394.1053 226.0993 L 390.6526 232.0795 L 383.7474 232.0795 L 380.2947 226.0993 L 373.3895 226.0993 L 366.4842 226.0993 L 369.9368 232.0795 L 376.8421 232.0795 L 373.3895 238.0596 L 366.4842 238.0596 L 363.0316 244.0397 L 366.4842 250.0199 L 369.9368 244.0397 L 376.8421 244.0397 L 373.3895 250.0199 L 369.9368 256.0000 L 363.0316 256.0000 L 359.5789 261.9801 L 363.0316 267.9603 L 366.4842 273.9404 L 369.9368 267.9603 L 366.4842 261.9801 L 373.3895 261.9801 L 376.8421 267.9603 L 383.7474 267.9603 L 387.2000 261.9801 L 390.6526 256.0000 L 383.7474 256.0000 L 380.2947 261.9801 L 376.8421 256.0000 L 380.2947 250.0199 L 387.2000 250.0199 L 390.6526 244.0397 L 383.7474 244.0397 L 380.2947 238.0596 L 387.2000 238.0596 L 394.1053 238.0596 L 397.5579 244.0397 L 394.1053 250.0199 L 397.5579 256.0000 L 401.0105 250.0199 L 407.9158 250.0199 L 404.4632 256.0000 L 401.0105 261.9801 L 394.1053 261.9801 L 390.6526 267.9603 L 394.1053 273.9404 L 397.5579 267.9603 L 404.4632 267.9603 L 401.0105 273.9404 L 397.5579 279.9205 L 390.6526 279.9205 L 387.2000 273.9404 L 380.2947 273.9404 L 373.3895 273.9404 L 376.8421 279.9205 L 383.7474 279.9205 L 380.2947 285.9007 L 373.3895 285.9007 L 369.9368 279.9205 L 363.0316 279.9205 L 366.4842 285.9007 L 363.0316 291.8808 L 359.5789 285.9007 L 356.1263 279.9205 L 359.5789 273.9404 L 356.1263 267.9603 L 349.2211 267.9603 L 342.3158 267.9603 L 345.7684 273.9404 L 352.6737 273.9404 L 349.2211 279.9205 L 342.3158 279.9205 L 338.8632 285.9007 L 342.3158 291.8808 L 345.7684 297.8609 L 349.2211 291.8808 L 345.7684 285.9007 L 352.6737 285.9007 L 356.1263 291.8808 L 352.6737 297.8609 L 356.1263 303.8411 L 359.5789 297.8609 L 366.4842 297.8609 L 363.0316 303.8411 L 359.5789 309.8212 L 352.6737 309.8212 L 349.2211 303.8411 L 342.3158 303.8411 L 345.7684 309.8212 L 342.3158 315.8013 L 338.8632 309.8212 L 335.4105 303.8411 L 338.8632 297.8609 L 335.4105 291.8808 L 328.5053 291.8808 L 331.9579 297.8609 L 328.5053 303.8411 L 325.0526 297.8609 L 321.6000 291.8808 L 325.0526 285.9007 L 331.9579 285.9007 L 335.4105 279.9205 L 338.8632 273.9404 L 331.9579 273.9404 L 328.5053 279.9205 L 325.0526 273.9404 L 328.5053 267.9603 L 335.4105 267.9603 L 338.8632 261.9801 L 331.9579 261.9801 L 328.5053 256.0000 L 335.4105 256.0000 L 342.3158 256.0000 L 345.7684 261.9801 L 352.6737 261.9801 L 356.1263 256.0000 L 359.5789 250.0199 L 352.6737 250.0199 L 349.2211 256.0000 L 345.7684 250.0199 L 349.2211 244.0397 L 356.1263 244.0397 L 359.5789 238.0596 L 363.0316 232.0795 L 356.1263 232.0795 L 352.6737 238.0596 L 349.2211 232.0795 L 352.6737 226.0993 L 349.2211 220.1192 L 342.3158 220.1192 L 335.4105 220.1192 L 338.8632 226.0993 L 345.7684 226.0993 L 342.3158 232.0795 L 335.4105 232.0795 L 331.9579 238.0596 L 335.4105 244.0397 L 338.8632 238.0596 L 345.7684 238.0596 L 342.3158 244.0397 L 338.8632 250.0199 L 331.9579 250.0199 L 328.5053 244.0397 L 321.6000 244.0397 L 325.0526 250.0199 L 321.6000 256.0000 L 318.1474 250.0199 L 314.6947 244.0397 L 318.1474 238.0596 L 325.0526 238.0596 L 328.5053 232.0795 L 331.9579 226.0993 L 325.0526 226.0993 L 321.6000 232.0795 L 318.1474 226.0993 L 321.6000 220.1192 L 318.1474 214.1391 L 311.2421 214.1391 L 314.6947 220.1192 L 311.2421 226.0993 L 307.7895 220.1192 L 304.3368 214.1391 L 307.7895 208.1589 L 304.3368 202.1788 L 297.4316 202.1788 L 290.5263 202.1788 L 293.9789 208.1589 L 300.8842 208.1589 L 297.4316 214.1391 L 290.5263 214.1391 L 287.0737 220.1192 L 290.5263 226.0993 L 293.9789 232.0795 L 297.4316 226.0993 L 293.9789 220.1192 L 300.8842 220.1192 L 304.3368 226.0993 L 300.8842 232.0795 L 304.3368 238.0596 L 307.7895 232.0795 L 314.6947 232.0795 L 311.2421 238.0596 L 307.7895 244.0397 L 300.8842 244.0397 L 297.4316 238.0596 L 290.5263 238.0596 L 293.9789 244.0397 L 290.5263 250.0199 L 287.0737 244.0397 L 283.6211 238.0596 L 287.0737 232.0795 L 283.6211 226.0993 L 276.7158 226.0993 L 280.1684 232.0795 L 276.7158 238.0596 L 273.2632 232.0795 L 269.8105 226.0993 L 273.2632 220.1192 L 280.1684 220.1192 L 283.6211 214.1391 L 287.0737 208.1589 L 280.1684 208.1589 L 276.7158 214.1391 L 273.2632 208.1589 L 276.7158 202.1788 L 273.2632 196.1987 L 266.3579 196.1987 L 269.8105 202.1788 L 266.3579 208.1589 L 262.9053 202.1788 L 259.4526 196.1987 L 262.9053 190.2185 L 259.4526 184.2384 L 252.5474 184.2384 L 245.6421 184.2384 L 249.0947 190.2185 L 256.0000 190.2185 L 252.5474 196.1987 L 245.6421 196.1987 L 242.1895 190.2185 L 235.2842 190.2185 L 228.3789 190.2185 L 231.8316 196.1987 L 238.7368 196.1987 L 235.2842 202.1788 L 228.3789 202.1788 L 224.9263 208.1589 L 228.3789 214.1391 L 231.8316 220.1192 L 235.2842 214.1391 L 231.8316 208.1589 L 238.7368 208.1589 L 242.1895 214.1391 L 249.0947 214.1391 L 252.5474 208.1589 L 245.6421 208.1589 L 242.1895 202.1788 L 249.0947 202.1788 L 256.0000 202.1788 L 259.4526 208.1589 L 256.0000 214.1391 L 259.4526 220.1192 L 262.9053 214.1391 L 269.8105 214.1391 L 266.3579 220.1192 L 262.9053 226.0993 L 256.0000 226.0993 L 252.5474 220.1192 L 245.6421 220.1192 L 238.7368 220.1192 L 242.1895 226.0993 L 249.0947 226.0993 L 245.6421 232.0795 L 238.7368 232.0795 L 235.2842 226.0993 L 228.3789 226.0993 L 231.8316 232.0795 L 228.3789 238.0596 L 224.9263 232.0795 L 221.4737 226.0993 L 224.9263 220.1192 L 221.4737 214.1391 L 214.5684 214.1391 L 207.6632 214.1391 L 211.1158 220.1192 L 218.0211 220.1192 L 214.5684 226.0993 L 207.6632 226.0993 L 204.2105 220.1192 L 197.3053 220.1192 L 190.4000 220.1192 L 193.8526 226.0993 L 200.7579 226.0993 L 197.3053 232.0795 L 190.4000 232.0795 L 186.9474 238.0596 L 190.4000 244.0397 L 193.8526 250.0199 L 197.3053 244.0397 L 193.8526 238.0596 L 200.7579 238.0596 L 204.2105 244.0397 L 211.1158 244.0397 L 214.5684 238.0596 L 207.6632 238.0596 L 204.2105 232.0795 L 211.1158 232.0795 L 218.0211 232.0795 L 221.4737 238.0596 L 218.0211 244.0397 L 221.4737 250.0199 L 224.9263 244.0397 L 231.8316 244.0397 L 228.3789 250.0199 L 224.9263 256.0000 L 218.0211 256.0000 L 214.5684 250.0199 L 207.6632 250.0199 L 200.7579 250.0199 L 204.2105 256.0000 L 211.1158 256.0000 L 207.6632 261.9801 L 200.7579 261.9801 L 197.3053 267.9603 L 200.7579 273.9404 L 204.2105 267.9603 L 211.1158 267.9603 L 207.6632 273.9404 L 204.2105 279.9205 L 197.3053 279.9205 L 193.8526 285.9007 L 197.3053 291.8808 L 200.7579 297.8609 L 204.2105 291.8808 L 200.7579 285.9007 L 207.6632 285.9007 L 211.1158 291.8808 L 207.6632 297.8609 L 211.1158 303.8411 L 214.5684 309.8212 L 218.0211 303.8411 L 214.5684 297.8609 L 221.4737 297.8609 L 224.9263 303.8411 L 231.8316 303.8411 L 235.2842 297.8609 L 238.7368 291.8808 L 231.8316 291.8808 L 228.3789 297.8609 L 224.9263 291.8808 L 228.3789 285.9007 L 224.9263 279.9205 L 218.0211 279.9205 L 221.4737 285.9007 L 218.0211 291.8808 L 214.5684 285.9007 L 211.1158 279.9205 L 214.5684 273.9404 L 221.4737 273.9404 L 224.9263 267.9603 L 218.0211 267.9603 L 214.5684 261.9801 L 221.4737 261.9801 L 228.3789 261.9801 L 231.8316 267.9603 L 228.3789 273.9404 L 231.8316 279.9205 L 235.2842 285.9007 L 238.7368 279.9205 L 235.2842 273.9404 L 242.1895 273.9404 L 245.6421 279.9205 L 252.5474 279.9205 L 256.0000 273.9404 L 249.0947 273.9404 L 245.6421 267.9603 L 252.5474 267.9603 L 259.4526 267.9603 L 262.9053 273.9404 L 269.8105 273.9404 L 273.2632 267.9603 L 276.7158 261.9801 L 269.8105 261.9801 L 266.3579 267.9603 L 262.9053 261.9801 L 266.3579 256.0000 L 262.9053 250.0199 L 256.0000 250.0199 L 249.0947 250.0199 L 252.5474 256.0000 L 259.4526 256.0000 L 256.0000 261.9801 L 249.0947 261.9801 L 245.6421 256.0000 L 238.7368 256.0000 L 242.1895 261.9801 L 238.7368 267.9603 L 235.2842 261.9801 L 231.8316 256.0000 L 235.2842 250.0199 L 242.1895 250.0199 L 245.6421 244.0397 L 238.7368 244.0397 L 235.2842 238.0596 L 242.1895 238.0596 L 249.0947 238.0596 L 252.5474 244.0397 L 259.4526 244.0397 L 262.9053 238.0596 L 256.0000 238.0596 L 252.5474 232.0795 L 259.4526 232.0795 L 266.3579 232.0795 L 269.8105 238.0596 L 266.3579 244.0397 L 269.8105 250.0199 L 273.2632 256.0000 L 276.7158 250.0199 L 273.2632 244.0397 L 280.1684 244.0397 L 283.6211 250.0199 L 280.1684 256.0000 L 283.6211 261.9801 L 287.0737 256.0000 L 293.9789 256.0000 L 290.5263 261.9801 L 287.0737 267.9603 L 280.1684 267.9603 L 276.7158 273.9404 L 280.1684 279.9205 L 283.6211 285.9007 L 287.0737 279.9205 L 283.6211 273.9404 L 290.5263 273.9404 L 293.9789 279.9205 L 300.8842 279.9205 L 304.3368 273.9404 L 307.7895 267.9603 L 300.8842 267.9603 L 297.4316 273.9404 L 293.9789 267.9603 L 297.4316 261.9801 L 304.3368 261.9801 L 307.7895 256.0000 L 300.8842 256.0000 L 297.4316 250.0199 L 304.3368 250.0199 L 311.2421 250.0199 L 314.6947 256.0000 L 311.2421 261.9801 L 314.6947 267.9603 L 318.1474 261.9801 L 325.0526 261.9801 L 321.6000 267.9603 L 318.1474 273.9404 L 311.2421 273.9404 L 307.7895 279.9205 L 311.2421 285.9007 L 314.6947 279.9205 L 321.6000 279.9205 L 318.1474 285.9007 L 314.6947 291.8808 L 307.7895 291.8808 L 304.3368 285.9007 L 297.4316 285.9007 L 290.5263 285.9007 L 293.9789 291.8808 L 300.8842 291.8808 L 297.4316 297.8609 L 290.5263 297.8609 L 287.0737 291.8808 L 280.1684 291.8808 L 283.6211 297.8609 L 280.1684 303.8411 L 276.7158 297.8609 L 273.2632 291.8808 L 276.7158 285.9007 L 273.2632 279.9205 L 266.3579 279.9205 L 259.4526 279.9205 L 262.9053 285.9007 L 269.8105 285.9007 L 266.3579 291.8808 L 259.4526 291.8808 L 256.0000 285.9007 L 249.0947 285.9007 L 242.1895 285.9007 L 245.6421 291.8808 L 252.5474 291.8808 L 249.0947 297.8609 L 242.1895 297.8609 L 238.7368 303.8411 L 242.1895 309.8212 L 245.6421 315.8013 L 249.0947 309.8212 L 245.6421 303.8411 L 252.5474 303.8411 L 256.0000 309.8212 L 262.9053 309.8212 L 266.3579 303.8411 L 259.4526 303.8411 L 256.0000 297.8609 L 262.9053 297.8609 L 269.8105 297.8609 L 273.2632 303.8411 L 269.8105 309.8212 L 273.2632 315.8013 L 276.7158 309.8212 L 283.6211 309.8212 L 280.1684 315.8013 L 276.7158 321.7815 L 269.8105 321.7815 L 266.3579 315.8013 L 259.4526 315.8013 L 252.5474 315.8013 L 256.0000 321.7815 L 262.9053 321.7815 L 259.4526 327.7616 L 252.5474 327.7616 L 249.0947 321.7815 L 242.1895 321.7815 L 245.6421 327.7616 L 242.1895 333.7417 L 238.7368 327.7616 L 235.2842 321.7815 L 238.7368 315.8013 L 235.2842 309.8212 L 228.3789 309.8212 L 221.4737 309.8212 L 224.9263 315.8013 L 231.8316 315.8013 L 228.3789 321.7815 L 221.4737 321.7815 L 218.0211 327.7616 L 221.4737 333.7417 L 224.9263 339.7219 L 228.3789 333.7417 L 224.9263 327.7616 L 231.8316 327.7616 L 235.2842 333.7417 L 231.8316 339.7219 L 235.2842 345.7020 L 238.7368 339.7219 L 245.6421 339.7219 L 242.1895 345.7020 L 238.7368 351.6821 L 231.8316 351.6821 L 228.3789 345.7020 L 221.4737 345.7020 L 224.9263 351.6821 L 221.4737 357.6623 L 218.0211 351.6821 L 214.5684 345.7020 L 218.0211 339.7219 L 214.5684 333.7417 L 207.6632 333.7417 L 211.1158 339.7219 L 207.6632 345.7020 L 204.2105 339.7219 L 200.7579 333.7417 L 204.2105 327.7616 L 211.1158 327.7616 L 214.5684 321.7815 L 218.0211 315.8013 L 211.1158 315.8013 L 207.6632 321.7815 L 204.2105 315.8013 L 207.6632 309.8212 L 204.2105 303.8411 L 197.3053 303.8411 L 200.7579 309.8212 L 197.3053 315.8013 L 193.8526 309.8212 L 190.4000 303.8411 L 193.8526 297.8609 L 190.4000 291.8808 L 183.4947 291.8808 L 176.5895 291.8808 L 180.0421 297.8609 L 186.9474 297.8609 L 183.4947 303.8411 L 176.5895 303.8411 L 173.1368 297.8609 L 166.2316 297.8609 L 159.3263 297.8609 L 162.7789 303.8411 L 169.6842 303.8411 L 166.2316 309.8212 L 159.3263 309.8212 L 155.8737 315.8013 L 159.3263 321.7815 L 162.7789 327.7616 L 166.2316 321.7815 L 162.7789 315.8013 L 169.6842 315.8013 L 173.1368 321.7815 L 180.0421 321.7815 L 183.4947 315.8013 L 176.5895 315.8013 L 173.1368 309.8212 L 180.0421 309.8212 L 186.9474 309.8212 L 190.4000 315.8013 L 186.9474 321.7815 L 190.4000 327.7616 L 193.8526 321.7815 L 200.7579 321.7815 L 197.3053 327.7616 L 193.8526 333.7417 L 186.9474 333.7417 L 183.4947 327.7616 L 176.5895 327.7616 L 169.6842 327.7616 L 173.1368 333.7417 L 180.0421 333.7417 L 176.5895 339.7219 L 169.6842 339.7219 L 166.2316 345.7020 L 169.6842 351.6821 L 173.1368 345.7020 L 180.0421 345.7020 L 176.5895 351.6821 L 173.1368 357.6623 L 166.2316 357.6623 L 162.7789 363.6424 L 166.2316 369.6225 L 169.6842 375.6027 L 173.1368 369.6225 L 169.6842 363.6424 L 176.5895 363.6424 L 180.0421 369.6225 L 176.5895 375.6027 L 180.0421 381.5828 L 183.4947 387.5629 L 186.9474 381.5828 L 183.4947 375.6027 L 190.4000 375.6027 L 193.8526 381.5828 L 200.7579 381.5828 L 204.2105 375.6027 L 207.6632 369.6225 L 200.7579 369.6225 L 197.3053 375.6027 L 193.8526 369.6225 L 197.3053 363.6424 L 193.8526 357.6623 L 186.9474 357.6623 L 190.4000 363.6424 L 186.9474 369.6225 L 183.4947 363.6424 L 180.0421 357.6623 L 183.4947 351.6821 L 190.4000 351.6821 L 193.8526 345.7020 L 186.9474 345.7020 L 183.4947 339.7219 L 190.4000 339.7219 L 197.3053 339.7219 L 200.7579 345.7020 L 197.3053 351.6821 L 200.7579 357.6623 L 204.2105 363.6424 L 207.6632 357.6623 L 204.2105 351.6821 L 211.1158 351.6821 L 214.5684 357.6623 L 211.1158 363.6424 L 214.5684 369.6225 L 218.0211 363.6424 L 224.9263 363.6424 L 221.4737 369.6225 L 218.0211 375.6027 L 211.1158 375.6027 L 207.6632 381.5828 L 211.1158 387.5629 L 214.5684 393.5431 L 218.0211 387.5629 L 214.5684 381.5828 L 221.4737 381.5828 L 224.9263 387.5629 L 231.8316 387.5629 L 235.2842 381.5828 L 238.7368 375.6027 L 231.8316 375.6027 L 228.3789 381.5828 L 224.9263 375.6027 L 228.3789 369.6225 L 235.2842 369.6225 L 238.7368 363.6424 L 231.8316 363.6424 L 228.3789 357.6623 L 235.2842 357.6623 L 242.1895 357.6623 L 245.6421 363.6424 L 242.1895 369.6225 L 245.6421 375.6027 L 249.0947 369.6225 L 256.0000 369.6225 L 252.5474 375.6027 L 249.0947 381.5828 L 242.1895 381.5828 L 238.7368 387.5629 L 242.1895 393.5431 L 245.6421 387.5629 L 252.5474 387.5629 L 249.0947 393.5431 L 245.6421 399.5232 L 238.7368 399.5232 L 235.2842 393.5431 L 228.3789 393.5431 L 221.4737 393.5431 L 224.9263 399.5232 L 231.8316 399.5232 L 228.3789 405.5033 L 221.4737 405.5033 L 218.0211 399.5232 L 211.1158 399.5232 L 214.5684 405.5033 L 211.1158 411.4835 L 207.6632 405.5033 L 204.2105 399.5232 L 207.6632 393.5431 L 204.2105 387.5629 L 197.3053 387.5629 L 190.4000 387.5629 L 193.8526 393.5431 L 200.7579 393.5431 L 197.3053 399.5232 L 190.4000 399.5232 L 186.9474 405.5033 L 190.4000 411.4835 L 193.8526 417.4636 L 197.3053 411.4835 L 193.8526 405.5033 L 200.7579 405.5033 L 204.2105 411.4835 L 200.7579 417.4636 L 204.2105 423.4437 L 207.6632 417.4636 L 214.5684 417.4636 L 211.1158 423.4437 L 207.6632 429.4239 L 200.7579 429.4239 L 197.3053 423.4437 L 190.4000 423.4437 L 193.8526 429.4239 L 190.4000 435.4040 L 186.9474 429.4239 L 183.4947 423.4437 L 186.9474 417.4636 L 183.4947 411.4835 L 176.5895 411.4835 L 180.0421 417.4636 L 176.5895 423.4437 L 173.1368 417.4636 L 169.6842 411.4835 L 173.1368 405.5033 L 180.0421 405.5033 L 183.4947 399.5232 L 186.9474 393.5431 L 180.0421 393.5431 L 176.5895 399.5232 L 173.1368 393.5431 L 176.5895 387.5629 L 173.1368 381.5828 L 166.2316 381.5828 L 169.6842 387.5629 L 166.2316 393.5431 L 162.7789 387.5629 L 159.3263 381.5828 L 162.7789 375.6027 L 159.3263 369.6225 L 152.4211 369.6225 L 145.5158 369.6225 L 148.9684 375.6027 L 155.8737 375.6027 L 152.4211 381.5828 L 145.5158 381.5828 L 142.0632 387.5629 L 145.5158 393.5431 L 148.9684 399.5232 L 152.4211 393.5431 L 148.9684 387.5629 L 155.8737 387.5629 L 159.3263 393.5431 L 155.8737 399.5232 L 159.3263 405.5033 L 162.7789 399.5232 L 169.6842 399.5232 L 166.2316 405.5033 L 162.7789 411.4835 L 155.8737 411.4835 L 152.4211 405.5033 L 145.5158 405.5033 L 148.9684 411.4835 L 145.5158 417.4636 L 142.0632 411.4835 L 138.6105 405.5033 L 142.0632 399.5232 L 138.6105 393.5431 L 131.7053 393.5431 L 135.1579 399.5232 L 131.7053 405.5033 L 128.2526 399.5232 L 124.8000 393.5431 L 128.2526 387.5629 L 135.1579 387.5629 L 138.6105 381.5828 L 142.0632 375.6027 L 135.1579 375.6027 L 131.7053 381.5828 L 128.2526 375.6027 L 131.7053 369.6225 L 138.6105 369.6225 L 142.0632 363.6424 L 135.1579 363.6424 L 131.7053 357.6623 L 138.6105 357.6623 L 145.5158 357.6623 L 148.9684 363.6424 L 155.8737 363.6424 L 159.3263 357.6623 L 162.7789 351.6821 L 155.8737 351.6821 L 152.4211 357.6623 L 148.9684 351.6821 L 152.4211 345.7020 L 159.3263 345.7020 L 162.7789 339.7219 L 166.2316 333.7417 L 159.3263 333.7417 L 155.8737 339.7219 L 152.4211 333.7417 L 155.8737 327.7616 L 152.4211 321.7815 L 145.5158 321.7815 L 138.6105 321.7815 L 142.0632 327.7616 L 148.9684 327.7616 L 145.5158 333.7417 L 138.6105 333.7417 L 135.1579 339.7219 L 138.6105 345.7020 L 142.0632 339.7219 L 148.9684 339.7219 L 145.5158 345.7020 L 142.0632 351.6821 L 135.1579 351.6821 L 131.7053 345.7020 L 124.8000 345.7020 L 128.2526 351.6821 L 124.8000 357.6623 L 121.3474 351.6821 L 117.8947 345.7020 L 121.3474 339.7219 L 128.2526 339.7219 L 131.7053 333.7417 L 135.1579 327.7616 L 128.2526 327.7616 L 124.8000 333.7417 L 121.3474 327.7616 L 124.8000 321.7815 L 131.7053 321.7815 L 135.1579 315.8013 L 128.2526 315.8013 L 124.8000 309.8212 L 131.7053 309.8212 L 138.6105 309.8212 L 142.0632 315.8013 L 148.9684 315.8013 L 152.4211 309.8212 L 155.8737 303.8411 L 148.9684 303.8411 L 145.5158 309.8212 L 142.0632 303.8411 L 145.5158 297.8609 L 142.0632 291.8808 L 135.1579 291.8808 L 128.2526 291.8808 L 131.7053 297.8609 L 138.6105 297.8609 L 135.1579 303.8411 L 128.2526 303.8411 L 124.8000 297.8609 L 117.8947 297.8609 L 121.3474 303.8411 L 117.8947 309.8212 L 114.4421 303.8411 L 110.9895 297.8609 L 114.4421 291.8808 L 121.3474 291.8808 L 124.8000 285.9007 L 117.8947 285.9007 L 114.4421 279.9205 L 121.3474 279.9205 L 128.2526 279.9205 L 131.7053 285.9007 L 138.6105 285.9007 L 142.0632 279.9205 L 135.1579 279.9205 L 131.7053 273.9404 L 138.6105 273.9404 L 145.5158 273.9404 L 148.9684 279.9205 L 145.5158 285.9007 L 148.9684 291.8808 L 152.4211 297.8609 L 155.8737 291.8808 L 152.4211 285.9007 L 159.3263 285.9007 L 162.7789 291.8808 L 169.6842 291.8808 L 173.1368 285.9007 L 166.2316 285.9007 L 162.7789 279.9205 L 169.6842 279.9205 L 176.5895 279.9205 L 180.0421 285.9007 L 186.9474 285.9007 L 190.4000 279.9205 L 193.8526 273.9404 L 186.9474 273.9404 L 183.4947 279.9205 L 180.0421 273.9404 L 183.4947 267.9603 L 190.4000 267.9603 L 193.8526 261.9801 L 197.3053 256.0000 L 190.4000 256.0000 L 186.9474 261.9801 L 183.4947 256.0000 L 186.9474 250.0199 L 183.4947 244.0397 L 176.5895 244.0397 L 169.6842 244.0397 L 173.1368 250.0199 L 180.0421 250.0199 L 176.5895 256.0000 L 169.6842 256.0000 L 166.2316 261.9801 L 169.6842 267.9603 L 173.1368 261.9801 L 180.0421 261.9801 L 176.5895 267.9603 L 173.1368 273.9404 L 166.2316 273.9404 L 162.7789 267.9603 L 155.8737 267.9603 L 159.3263 273.9404 L 155.8737 279.9205 L 152.4211 273.9404 L 148.9684 267.9603 L 152.4211 261.9801 L 159.3263 261.9801 L 162.7789 256.0000 L 166.2316 250.0199 L 159.3263 250.0199 L 155.8737 256.0000 L 152.4211 250.0199 L 155.8737 244.0397 L 152.4211 238.0596 L 145.5158 238.0596 L 148.9684 244.0397 L 145.5158 250.0199 L 142.0632 244.0397 L 138.6105 238.0596 L 142.0632 232.0795 L 138.6105 226.0993 L 131.7053 226.0993 L 124.8000 226.0993 L 128.2526 232.0795 L 135.1579 232.0795 L 131.7053 238.0596 L 124.8000 238.0596 L 121.3474 232.0795 L 114.4421 232.0795 L 107.5368 232.0795 L 110.9895 238.0596 L 117.8947 238.0596 L 114.4421 244.0397 L 107.5368 244.0397 L 104.0842 250.0199 L 107.5368 256.0000 L 110.9895 261.9801 L 114.4421 256.0000 L 110.9895 250.0199 L 117.8947 250.0199 L 121.3474 256.0000 L 128.2526 256.0000 L 131.7053 250.0199 L 124.8000 250.0199 L 121.3474 244.0397 L 128.2526 244.0397 L 135.1579 244.0397 L 138.6105 250.0199 L 135.1579 256.0000 L 138.6105 261.9801 L 142.0632 256.0000 L 148.9684 256.0000 L 145.5158 261.9801 L 142.0632 267.9603 L 135.1579 267.9603 L 131.7053 261.9801 L 124.8000 261.9801 L 117.8947 261.9801 L 121.3474 267.9603 L 128.2526 267.9603 L 124.8000 273.9404 L 117.8947 273.9404 L 114.4421 267.9603 L 107.5368 267.9603 L 110.9895 273.9404 L 107.5368 279.9205 L 104.0842 273.9404 L 100.6316 267.9603 L 104.0842 261.9801 L 100.6316 256.0000 L 93.7263 256.0000 L 86.8211 256.0000 L 90.2737 261.9801 L 97.1789 261.9801 L 93.7263 267.9603 L 86.8211 267.9603 L 83.3684 273.9404 L 86.8211 279.9205 L 90.2737 285.9007 L 93.7263 279.9205 L 90.2737 273.9404 L 97.1789 273.9404 L 100.6316 279.9205 L 97.1789 285.9007 L 100.6316 291.8808 L 104.0842 285.9007 L 110.9895 285.9007 L 107.5368 291.8808 L 104.0842 297.8609 L 97.1789 297.8609 L 93.7263 291.8808 L 86.8211 291.8808 L 90.2737 297.8609 L 86.8211 303.8411 L 83.3684 297.8609 L 79.9158 291.8808 L 83.3684 285.9007 L 79.9158 279.9205 L 73.0105 279.9205 L 76.4632 285.9007 L 73.0105 291.8808 L 69.5579 285.9007 L 66.1053 279.9205 L 69.5579 273.9404 L 76.4632 273.9404 L 79.9158 267.9603 L 83.3684 261.9801 L 76.4632 261.9801 L 73.0105 267.9603 L 69.5579 261.9801 L 73.0105 256.0000 L 79.9158 256.0000 L 83.3684 250.0199 L 76.4632 250.0199 L 73.0105 244.0397 L 79.9158 244.0397 L 86.8211 244.0397 L 90.2737 250.0199 L 97.1789 250.0199 L 100.6316 244.0397 L 104.0842 238.0596 L 97.1789 238.0596 L 93.7263 244.0397 L 90.2737 238.0596 L 93.7263 232.0795 L 90.2737 226.0993 L 83.3684 226.0993 L 76.4632 226.0993 L 79.9158 232.0795 L 86.8211 232.0795 L 83.3684 238.0596 L 76.4632 238.0596 L 73.0105 232.0795 L 66.1053 232.0795 L 69.5579 238.0596 L 66.1053 244.0397 L 62.6526 238.0596 L 59.2000 232.0795 L 62.6526 226.0993 L 69.5579 226.0993 L 73.0105 220.1192 L 66.1053 220.1192 L 62.6526 214.1391 L 69.5579 214.1391 L 76.4632 214.1391 L 79.9158 220.1192 L 86.8211 220.1192 L 90.2737 214.1391 L 83.3684 214.1391 L 79.9158 208.1589 L 86.8211 208.1589 L 93.7263 208.1589 L 97.1789 214.1391 L 93.7263 220.1192 L 97.1789 226.0993 L 100.6316 232.0795 L 104.0842 226.0993 L 100.6316 220.1192 L 107.5368 220.1192 L 110.9895 226.0993 L 117.8947 226.0993 L 121.3474 220.1192 L 114.4421 220.1192 L 110.9895 214.1391 L 117.8947 214.1391 L 124.8000 214.1391 L 128.2526 220.1192 L 135.1579 220.1192 L 138.6105 214.1391 L 142.0632 208.1589 L 135.1579 208.1589 L 131.7053 214.1391 L 128.2526 208.1589 L 131.7053 202.1788 L 128.2526 196.1987 L 121.3474 196.1987 L 114.4421 196.1987 L 117.8947 202.1788 L 124.8000 202.1788 L 121.3474 208.1589 L 114.4421 208.1589 L 110.9895 202.1788 L 104.0842 202.1788 L 107.5368 208.1589 L 104.0842 214.1391 L 100.6316 208.1589 L 97.1789 202.1788 L 100.6316 196.1987 L 107.5368 196.1987 L 110.9895 190.2185 L 104.0842 190.2185 L 100.6316 184.2384 L 107.5368 184.2384 L 114.4421 184.2384 L 117.8947 190.2185 L 124.8000 190.2185 L 128.2526 184.2384 L 121.3474 184.2384 L 117.8947 178.2583 L 124.8000 178.2583 L 131.7053 178.2583 L 135.1579 184.2384 L 131.7053 190.2185 L 135.1579 196.1987 L 138.6105 202.1788 L 142.0632 196.1987 L 138.6105 190.2185 L 145.5158 190.2185 L 148.9684 196.1987 L 145.5158 202.1788 L 148.9684 208.1589 L 152.4211 202.1788 L 159.3263 202.1788 L 155.8737 208.1589 L 152.4211 214.1391 L 145.5158 214.1391 L 142.0632 220.1192 L 145.5158 226.0993 L 148.9684 232.0795 L 152.4211 226.0993 L 148.9684 220.1192 L 155.8737 220.1192 L 159.3263 226.0993 L 155.8737 232.0795 L 159.3263 238.0596 L 162.7789 244.0397 L 166.2316 238.0596 L 162.7789 232.0795 L 169.6842 232.0795 L 173.1368 238.0596 L 180.0421 238.0596 L 183.4947 232.0795 L 186.9474 226.0993 L 180.0421 226.0993 L 176.5895 232.0795 L 173.1368 226.0993 L 176.5895 220.1192 L 173.1368 214.1391 L 166.2316 214.1391 L 169.6842 220.1192 L 166.2316 226.0993 L 162.7789 220.1192 L 159.3263 214.1391 L 162.7789 208.1589 L 169.6842 208.1589 L 173.1368 202.1788 L 166.2316 202.1788 L 162.7789 196.1987 L 169.6842 196.1987 L 176.5895 196.1987 L 180.0421 202.1788 L 176.5895 208.1589 L 180.0421 214.1391 L 183.4947 220.1192 L 186.9474 214.1391 L 183.4947 208.1589 L 190.4000 208.1589 L 193.8526 214.1391 L 200.7579 214.1391 L 204.2105 208.1589 L 197.3053 208.1589 L 193.8526 202.1788 L 200.7579 202.1788 L 207.6632 202.1788 L 211.1158 208.1589 L 218.0211 208.1589 L 221.4737 202.1788 L 224.9263 196.1987 L 218.0211 196.1987 L 214.5684 202.1788 L 211.1158 196.1987 L 214.5684 190.2185 L 211.1158 184.2384 L 204.2105 184.2384 L 197.3053 184.2384 L 200.7579 190.2185 L 207.6632 190.2185 L 204.2105 196.1987 L 197.3053 196.1987 L 193.8526 190.2185 L 186.9474 190.2185 L 190.4000 196.1987 L 186.9474 202.1788 L 183.4947 196.1987 L 180.0421 190.2185 L 183.4947 184.2384 L 190.4000 184.2384 L 193.8526 178.2583 L 186.9474 178.2583 L 183.4947 172.2781 L 190.4000 172.2781 L 197.3053 172.2781 L 200.7579 178.2583 L 207.6632 178.2583 L 211.1158 172.2781 L 204.2105 172.2781 L 200.7579 166.2980 L 207.6632 166.2980 L 214.5684 166.2980 L 218.0211 172.2781 L 214.5684 178.2583 L 218.0211 184.2384 L 221.4737 190.2185 L 224.9263 184.2384 L 221.4737 178.2583 L 228.3789 178.2583 L 231.8316 184.2384 L 238.7368 184.2384 L 242.1895 178.2583 L 235.2842 178.2583 L 231.8316 172.2781 L 238.7368 172.2781 L 245.6421 172.2781 L 249.0947 178.2583 L 256.0000 178.2583 L 259.4526 172.2781 L 262.9053 166.2980 L 256.0000 166.2980 L 252.5474 172.2781 L 249.0947 166.2980 L 252.5474 160.3179 L 259.4526 160.3179 L 262.9053 154.3377 L 266.3579 148.3576 L 259.4526 148.3576 L 256.0000 154.3377 L 252.5474 148.3576 L 256.0000 142.3775 L 252.5474 136.3973 L 245.6421 136.3973 L 238.7368 136.3973 L 242.1895 142.3775 L 249.0947 142.3775 L 245.6421 148.3576 L 238.7368 148.3576 L 235.2842 154.3377 L 238.7368 160.3179 L 242.1895 154.3377 L 249.0947 154.3377 L 245.6421 160.3179 L 242.1895 166.2980 L 235.2842 166.2980 L 231.8316 160.3179 L 224.9263 160.3179 L 228.3789 166.2980 L 224.9263 172.2781 L 221.4737 166.2980 L 218.0211 160.3179 L 221.4737 154.3377 L 228.3789 154.3377 L 231.8316 148.3576 L 235.2842 142.3775 L 228.3789 142.3775 L 224.9263 148.3576 L 221.4737 142.3775 L 224.9263 136.3973 L 221.4737 130.4172 L 214.5684 130.4172 L 218.0211 136.3973 L 214.5684 142.3775 L 211.1158 136.3973 L 207.6632 130.4172 L 211.1158 124.4371 L 207.6632 118.4569 L 200.7579 118.4569 L 193.8526 118.4569 L 197.3053 124.4371 L 204.2105 124.4371 L 200.7579 130.4172 L 193.8526 130.4172 L 190.4000 124.4371 L 183.4947 124.4371 L 176.5895 124.4371 L 180.0421 130.4172 L 186.9474 130.4172 L 183.4947 136.3973 L 176.5895 136.3973 L 173.1368 142.3775 L 176.5895 148.3576 L 180.0421 154.3377 L 183.4947 148.3576 L 180.0421 142.3775 L 186.9474 142.3775 L 190.4000 148.3576 L 197.3053 148.3576 L 200.7579 142.3775 L 193.8526 142.3775 L 190.4000 136.3973 L 197.3053 136.3973 L 204.2105 136.3973 L 207.6632 142.3775 L 204.2105 148.3576 L 207.6632 154.3377 L 211.1158 148.3576 L 218.0211 148.3576 L 214.5684 154.3377 L 211.1158 160.3179 L 204.2105 160.3179 L 200.7579 154.3377 L 193.8526 154.3377 L 186.9474 154.3377 L 190.4000 160.3179 L 197.3053 160.3179 L 193.8526 166.2980 L 186.9474 166.2980 L 183.4947 160.3179 L 176.5895 160.3179 L 180.0421 166.2980 L 176.5895 172.2781 L 173.1368 166.2980 L 169.6842 160.3179 L 173.1368 154.3377 L 169.6842 148.3576 L 162.7789 148.3576 L 155.8737 148.3576 L 159.3263 154.3377 L 166.2316 154.3377 L 162.7789 160.3179 L 155.8737 160.3179 L 152.4211 166.2980 L 155.8737 172.2781 L 159.3263 178.2583 L 162.7789 172.2781 L 159.3263 166.2980 L 166.2316 166.2980 L 169.6842 172.2781 L 166.2316 178.2583 L 169.6842 184.2384 L 173.1368 178.2583 L 180.0421 178.2583 L 176.5895 184.2384 L 173.1368 190.2185 L 166.2316 190.2185 L 162.7789 184.2384 L 155.8737 184.2384 L 159.3263 190.2185 L 155.8737 196.1987 L 152.4211 190.2185 L 148.9684 184.2384 L 152.4211 178.2583 L 148.9684 172.2781 L 142.0632 172.2781 L 145.5158 178.2583 L 142.0632 184.2384 L 138.6105 178.2583 L 135.1579 172.2781 L 138.6105 166.2980 L 145.5158 166.2980 L 148.9684 160.3179 L 152.4211 154.3377 L 145.5158 154.3377 L 142.0632 160.3179 L 138.6105 154.3377 L 142.0632 148.3576 L 148.9684 148.3576 L 152.4211 142.3775 L 145.5158 142.3775 L 142.0632 136.3973 L 148.9684 136.3973 L 155.8737 136.3973 L 159.3263 142.3775 L 166.2316 142.3775 L 169.6842 136.3973 L 173.1368 130.4172 L 166.2316 130.4172 L 162.7789 136.3973 L 159.3263 130.4172 L 162.7789 124.4371 L 159.3263 118.4569 L 152.4211 118.4569 L 145.5158 118.4569 L 148.9684 124.4371 L 155.8737 124.4371 L 152.4211 130.4172 L 145.5158 130.4172 L 142.0632 124.4371 L 135.1579 124.4371 L 138.6105 130.4172 L 135.1579 136.3973 L 131.7053 130.4172 L 128.2526 124.4371 L 131.7053 118.4569 L 138.6105 118.4569 L 142.0632 112.4768 L 135.1579 112.4768 L 131.7053 106.4967 L 138.6105 106.4967 L 145.5158 106.4967 L 148.9684 112.4768 L 155.8737 112.4768 L 159.3263 106.4967 L 152.4211 106.4967 L 148.9684 100.5165 L 155.8737 100.5165 L 162.7789 100.5165 L 166.2316 106.4967 L 162.7789 112.4768 L 166.2316 118.4569 L 169.6842 124.4371 L 173.1368 118.4569 L 169.6842 112.4768 L 176.5895 112.4768 L 180.0421 118.4569 L 186.9474 118.4569 L 190.4000 112.4768 L 183.4947 112.4768 L 180.0421 106.4967 L 186.9474 106.4967 L 193.8526 106.4967 L 197.3053 112.4768 L 204.2105 112.4768 L 207.6632 106.4967 L 211.1158 100.5165 L 204.2105 100.5165 L 200.7579 106.4967 L 197.3053 100.5165 L 200.7579 94.5364 L 197.3053 88.5563 L 190.4000 88.5563 L 183.4947 88.5563 L 186.9474 94.5364 L 193.8526 94.5364 L 190.4000 100.5165 L 183.4947 100.5165 L 180.0421 94.5364 L 173.1368 94.5364 L 176.5895 100.5165 L 173.1368 106.4967 L 169.6842 100.5165 L 166.2316 94.5364 L 169.6842 88.5563 L 176.5895 88.5563 L 180.0421 82.5761 L 173.1368 82.5761 L 169.6842 76.5960 L 176.5895 76.5960 L 183.4947 76.5960 L 186.9474 82.5761 L 193.8526 82.5761 L 197.3053 76.5960 L 190.4000 76.5960 L 186.9474 70.6159 L 193.8526 70.6159 L 200.7579 70.6159 L 204.2105 76.5960 L 200.7579 82.5761 L 204.2105 88.5563 L 207.6632 94.5364 L 211.1158 88.5563 L 207.6632 82.5761 L 214.5684 82.5761 L 218.0211 88.5563 L 214.5684 94.5364 L 218.0211 100.5165 L 221.4737 94.5364 L 228.3789 94.5364 L 224.9263 100.5165 L 221.4737 106.4967 L 214.5684 106.4967 L 211.1158 112.4768 L 214.5684 118.4569 L 218.0211 124.4371 L 221.4737 118.4569 L 218.0211 112.4768 L 224.9263 112.4768 L 228.3789 118.4569 L 224.9263 124.4371 L 228.3789 130.4172 L 231.8316 136.3973 L 235.2842 130.4172 L 231.8316 124.4371 L 238.7368 124.4371 L 242.1895 130.4172 L 249.0947 130.4172 L 252.5474 124.4371 L 256.0000 118.4569 L 249.0947 118.4569 L 245.6421 124.4371 L 242.1895 118.4569 L 245.6421 112.4768 L 242.1895 106.4967 L 235.2842 106.4967 L 238.7368 112.4768 L 235.2842 118.4569 L 231.8316 112.4768 L 228.3789 106.4967 L 231.8316 100.5165 L 238.7368 100.5165 L 242.1895 94.5364 L 235.2842 94.5364 L 231.8316 88.5563 L 238.7368 88.5563 L 245.6421 88.5563 L 249.0947 94.5364 L 245.6421 100.5165 L 249.0947 106.4967 L 252.5474 112.4768 L 256.0000 106.4967 L 252.5474 100.5165 L 259.4526 100.5165 L 262.9053 106.4967 L 259.4526 112.4768 L 262.9053 118.4569 L 266.3579 112.4768 L 273.2632 112.4768 L 269.8105 118.4569 L 266.3579 124.4371 L 259.4526 124.4371 L 256.0000 130.4172 L 259.4526 136.3973 L 262.9053 142.3775 L 266.3579 136.3973 L 262.9053 130.4172 L 269.8105 130.4172 L 273.2632 136.3973 L 280.1684 136.3973 L 283.6211 130.4172 L 287.0737 124.4371 L 280.1684 124.4371 L 276.7158 130.4172 L 273.2632 124.4371 L 276.7158 118.4569 L 283.6211 118.4569 L 287.0737 112.4768 L 280.1684 112.4768 L 276.7158 106.4967 L 283.6211 106.4967 L 290.5263 106.4967 L 293.9789 112.4768 L 290.5263 118.4569 L 293.9789 124.4371 L 297.4316 118.4569 L 304.3368 118.4569 L 300.8842 124.4371 L 297.4316 130.4172 L 290.5263 130.4172 L 287.0737 136.3973 L 290.5263 142.3775 L 293.9789 136.3973 L 300.8842 136.3973 L 297.4316 142.3775 L 293.9789 148.3576 L 287.0737 148.3576 L 283.6211 142.3775 L 276.7158 142.3775 L 269.8105 142.3775 L 273.2632 148.3576 L 280.1684 148.3576 L 276.7158 154.3377 L 269.8105 154.3377 L 266.3579 160.3179 L 269.8105 166.2980 L 273.2632 160.3179 L 280.1684 160.3179 L 276.7158 166.2980 L 273.2632 172.2781 L 266.3579 172.2781 L 262.9053 178.2583 L 266.3579 184.2384 L 269.8105 190.2185 L 273.2632 184.2384 L 269.8105 178.2583 L 276.7158 178.2583 L 280.1684 184.2384 L 276.7158 190.2185 L 280.1684 196.1987 L 283.6211 202.1788 L 287.0737 196.1987 L 283.6211 190.2185 L 290.5263 190.2185 L 293.9789 196.1987 L 300.8842 196.1987 L 304.3368 190.2185 L 307.7895 184.2384 L 300.8842 184.2384 L 297.4316 190.2185 L 293.9789 184.2384 L 297.4316 178.2583 L 293.9789 172.2781 L 287.0737 172.2781 L 290.5263 178.2583 L 287.0737 184.2384 L 283.6211 178.2583 L 280.1684 172.2781 L 283.6211 166.2980 L 290.5263 166.2980 L 293.9789 160.3179 L 287.0737 160.3179 L 283.6211 154.3377 L 290.5263 154.3377 L 297.4316 154.3377 L 300.8842 160.3179 L 297.4316 166.2980 L 300.8842 172.2781 L 304.3368 178.2583 L 307.7895 172.2781 L 304.3368 166.2980 L 311.2421 166.2980 L 314.6947 172.2781 L 311.2421 178.2583 L 314.6947 184.2384 L 318.1474 178.2583 L 325.0526 178.2583 L 321.6000 184.2384 L 318.1474 190.2185 L 311.2421 190.2185 L 307.7895 196.1987 L 311.2421 202.1788 L 314.6947 208.1589 L 318.1474 202.1788 L 314.6947 196.1987 L 321.6000 196.1987 L 325.0526 202.1788 L 321.6000 208.1589 L 325.0526 214.1391 L 328.5053 220.1192 L 331.9579 214.1391 L 328.5053 208.1589 L 335.4105 208.1589 L 338.8632 214.1391 L 345.7684 214.1391 L 349.2211 208.1589 L 352.6737 202.1788 L 345.7684 202.1788 L 342.3158 208.1589 L 338.8632 202.1788 L 342.3158 196.1987 L 338.8632 190.2185 L 331.9579 190.2185 L 335.4105 196.1987 L 331.9579 202.1788 L 328.5053 196.1987 L 325.0526 190.2185 L 328.5053 184.2384 L 335.4105 184.2384 L 338.8632 178.2583 L 331.9579 178.2583 L 328.5053 172.2781 L 335.4105 172.2781 L 342.3158 172.2781 L 345.7684 178.2583 L 342.3158 184.2384 L 345.7684 190.2185 L 349.2211 196.1987 L 352.6737 190.2185 L 349.2211 184.2384 L 356.1263 184.2384 L 359.5789 190.2185 L 366.4842 190.2185 L 369.9368 184.2384 L 363.0316 184.2384 L 359.5789 178.2583 L 366.4842 178.2583 L 373.3895 178.2583 L 376.8421 184.2384 L 383.7474 184.2384 L 387.2000 178.2583 L 390.6526 172.2781 L 383.7474 172.2781 L 380.2947 178.2583 L 376.8421 172.2781 L 380.2947 166.2980 L 387.2000 166.2980 L 390.6526 160.3179 L 394.1053 154.3377 L 387.2000 154.3377 L 383.7474 160.3179 L 380.2947 154.3377 L 383.7474 148.3576 L 380.2947 142.3775 L 373.3895 142.3775 L 366.4842 142.3775 L 369.9368 148.3576 L 376.8421 148.3576 L 373.3895 154.3377 L 366.4842 154.3377 L 363.0316 160.3179 L 366.4842 166.2980 L 369.9368 160.3179 L 376.8421 160.3179 L 373.3895 166.2980 L 369.9368 172.2781 L 363.0316 172.2781 L 359.5789 166.2980 L 352.6737 166.2980 L 356.1263 172.2781 L 352.6737 178.2583 L 349.2211 172.2781 L 345.7684 166.2980 L 349.2211 160.3179 L 356.1263 160.3179 L 359.5789 154.3377 L 363.0316 148.3576 L 356.1263 148.3576 L 352.6737 154.3377 L 349.2211 148.3576 L 352.6737 142.3775 L 349.2211 136.3973 L 342.3158 136.3973 L 345.7684 142.3775 L 342.3158 148.3576 L 338.8632 142.3775 L 335.4105 136.3973 L 338.8632 130.4172 L 335.4105 124.4371 L 328.5053 124.4371 L 321.6000 124.4371 L 325.0526 130.4172 L 331.9579 130.4172 L 328.5053 136.3973 L 321.6000 136.3973 L 318.1474 142.3775 L 321.6000 148.3576 L 325.0526 154.3377 L 328.5053 148.3576 L 325.0526 142.3775 L 331.9579 142.3775 L 335.4105 148.3576 L 331.9579 154.3377 L 335.4105 160.3179 L 338.8632 154.3377 L 345.7684 154.3377 L 342.3158 160.3179 L 338.8632 166.2980 L 331.9579 166.2980 L 328.5053 160.3179 L 321.6000 160.3179 L 325.0526 166.2980 L 321.6000 172.2781 L 318.1474 166.2980 L 314.6947 160.3179 L 318.1474 154.3377 L 314.6947 148.3576 L 307.7895 148.3576 L 311.2421 154.3377 L 307.7895 160.3179 L 304.3368 154.3377 L 300.8842 148.3576 L 304.3368 142.3775 L 311.2421 142.3775 L 314.6947 136.3973 L 318.1474 130.4172 L 311.2421 130.4172 L 307.7895 136.3973 L 304.3368 130.4172 L 307.7895 124.4371 L 314.6947 124.4371 L 318.1474 118.4569 L 311.2421 118.4569 L 307.7895 112.4768 L 314.6947 112.4768 L 321.6000 112.4768 L 325.0526 118.4569 L 331.9579 118.4569 L 335.4105 112.4768 L 338.8632 106.4967 L 331.9579 106.4967 L 328.5053 112.4768 L 325.0526 106.4967 L 328.5053 100.5165 L 325.0526 94.5364 L 318.1474 94.5364 L 311.2421 94.5364 L 314.6947 100.5165 L 321.6000 100.5165 L 318.1474 106.4967 L 311.2421 106.4967 L 307.7895 100.5165 L 300.8842 100.5165 L 304.3368 106.4967 L 300.8842 112.4768 L 297.4316 106.4967 L 293.9789 100.5165 L 297.4316 94.5364 L 304.3368 94.5364 L 307.7895 88.5563 L 300.8842 88.5563 L 297.4316 82.5761 L 304.3368 82.5761 L 311.2421 82.5761 L 314.6947 88.5563 L 321.6000 88.5563 L 325.0526 82.5761 L 318.1474 82.5761 L 314.6947 76.5960 L 321.6000 76.5960 L 328.5053 76.5960 L 331.9579 82.5761 L 328.5053 88.5563 L 331.9579 94.5364 L 335.4105 100.5165 L 338.8632 94.5364 L 335.4105 88.5563 L 342.3158 88.5563 L 345.7684 94.5364 L 342.3158 100.5165 L 345.7684 106.4967 L 349.2211 100.5165 L 356.1263 100.5165 L 352.6737 106.4967 L 349.2211 112.4768 L 342.3158 112.4768 L 338.8632 118.4569 L 342.3158 124.4371 L 345.7684 130.4172 L 349.2211 124.4371 L 345.7684 118.4569 L 352.6737 118.4569 L 356.1263 124.4371 L 352.6737 130.4172 L 356.1263 136.3973 L 359.5789 142.3775 L 363.0316 136.3973 L 359.5789 130.4172 L 366.4842 130.4172 L 369.9368 136.3973 L 376.8421 136.3973 L 380.2947 130.4172 L 383.7474 124.4371 L 376.8421 124.4371 L 373.3895 130.4172 L 369.9368 124.4371 L 373.3895 118.4569 L 369.9368 112.4768 L 363.0316 112.4768 L 366.4842 118.4569 L 363.0316 124.4371 L 359.5789 118.4569 L 356.1263 112.4768 L 359.5789 106.4967 L 366.4842 106.4967 L 369.9368 100.5165 L 363.0316 100.5165 L 359.5789 94.5364 L 366.4842 94.5364 L 373.3895 94.5364 L 376.8421 100.5165 L 373.3895 106.4967 L 376.8421 112.4768 L 380.2947 118.4569 L 383.7474 112.4768 L 380.2947 106.4967 L 387.2000 106.4967 L 390.6526 112.4768" fill="none" stroke="url(#fractalGradient)" stroke-width="2.5" stroke-linecap="round" stroke-linejoin="round" />
</svg>
