<?xml version="1.0" encoding="UTF-8"?>
<svg id="Layer_1"
    xmlns="http://www.w3.org/2000/svg" version="1.1" viewBox="0 0 735 735">
    <defs>
        <style>
      .st0 {
        fill: #141414;
      }

      .st1 {
        fill: #d0f6ae;
        fill-rule: evenodd;
      }
        </style>
    </defs>
    <path class="st0" d="M367.5,0h0c203,0,367.5,164.5,367.5,367.5h0c0,203-164.5,367.5-367.5,367.5h0C164.5,735,0,570.5,0,367.5h0C0,164.5,164.5,0,367.5,0Z"/>
    <polygon class="st1" points="69.5 377.8 233.5 335.1 114.7 213.7 212 117.7 331.5 239.4 377 74.5 509.5 111.1 464 275.9 628.9 232.7 664.2 365.2 497.8 408 619 529.3 520.7 625 401.3 503.4 355.8 668.2 223.4 631.7 268.8 466.8 103.9 510 69.5 377.8"/>
</svg>