<?xml version="1.0" encoding="UTF-8"?>
<svg xmlns="http://www.w3.org/2000/svg" width="512" height="512" viewBox="0 0 512 512">
  <title>type=dragon | dimension=2.0000 | iter=12 | segments=4097</title>
  <rect x="0" y="0" width="512" height="512" fill="transparent" />
  <circle cx="256" cy="256" r="242" fill="#18181b" />
  <path d="M 357.7600 296.3200 L 361.6000 296.3200 L 361.6000 292.4800 L 357.7600 292.4800 L 357.7600 288.6400 L 353.9200 288.6400 L 353.9200 292.4800 L 350.0800 292.4800 L 350.0800 288.6400 L 346.2400 288.6400 L 346.2400 292.4800 L 350.0800 292.4800 L 350.0800 296.3200 L 346.2400 296.3200 L 346.2400 300.1600 L 342.4000 300.1600 L 342.4000 296.3200 L 338.5600 296.3200 L 338.5600 300.1600 L 342.4000 300.1600 L 342.4000 304.0000 L 346.2400 304.0000 L 346.2400 300.1600 L 350.0800 300.1600 L 350.0800 304.0000 L 346.2400 304.0000 L 346.2400 307.8400 L 350.0800 307.8400 L 350.0800 311.6800 L 346.2400 311.6800 L 346.2400 315.5200 L 342.4000 315.5200 L 342.4000 311.6800 L 338.5600 311.6800 L 338.5600 315.5200 L 342.4000 315.5200 L 342.4000 319.3600 L 346.2400 319.3600 L 346.2400 315.5200 L 350.0800 315.5200 L 350.0800 319.3600 L 353.9200 319.3600 L 353.9200 315.5200 L 350.0800 315.5200 L 350.0800 311.6800 L 353.9200 311.6800 L 353.9200 307.8400 L 357.7600 307.8400 L 357.7600 311.6800 L 353.9200 311.6800 L 353.9200 315.5200 L 357.7600 315.5200 L 357.7600 319.3600 L 361.6000 319.3600 L 361.6000 315.5200 L 365.4400 315.5200 L 365.4400 319.3600 L 361.6000 319.3600 L 361.6000 323.2000 L 365.4400 323.2000 L 365.4400 327.0400 L 361.6000 327.0400 L 361.6000 330.8800 L 357.7600 330.8800 L 357.7600 327.0400 L 353.9200 327.0400 L 353.9200 330.8800 L 357.7600 330.8800 L 357.7600 334.7200 L 361.6000 334.7200 L 361.6000 330.8800 L 365.4400 330.8800 L 365.4400 334.7200 L 369.2800 334.7200 L 369.2800 330.8800 L 365.4400 330.8800 L 365.4400 327.0400 L 369.2800 327.0400 L 369.2800 323.2000 L 373.1200 323.2000 L 373.1200 327.0400 L 376.9600 327.0400 L 376.9600 323.2000 L 373.1200 323.2000 L 373.1200 319.3600 L 369.2800 319.3600 L 369.2800 323.2000 L 365.4400 323.2000 L 365.4400 319.3600 L 369.2800 319.3600 L 369.2800 315.5200 L 365.4400 315.5200 L 365.4400 311.6800 L 369.2800 311.6800 L 369.2800 307.8400 L 373.1200 307.8400 L 373.1200 311.6800 L 369.2800 311.6800 L 369.2800 315.5200 L 373.1200 315.5200 L 373.1200 319.3600 L 376.9600 319.3600 L 376.9600 315.5200 L 380.8000 315.5200 L 380.8000 319.3600 L 384.6400 319.3600 L 384.6400 315.5200 L 380.8000 315.5200 L 380.8000 311.6800 L 384.6400 311.6800 L 384.6400 307.8400 L 388.4800 307.8400 L 388.4800 311.6800 L 384.6400 311.6800 L 384.6400 315.5200 L 388.4800 315.5200 L 388.4800 319.3600 L 392.3200 319.3600 L 392.3200 315.5200 L 396.1600 315.5200 L 396.1600 319.3600 L 392.3200 319.3600 L 392.3200 323.2000 L 396.1600 323.2000 L 396.1600 327.0400 L 392.3200 327.0400 L 392.3200 330.8800 L 388.4800 330.8800 L 388.4800 327.0400 L 384.6400 327.0400 L 384.6400 330.8800 L 388.4800 330.8800 L 388.4800 334.7200 L 392.3200 334.7200 L 392.3200 330.8800 L 396.1600 330.8800 L 396.1600 334.7200 L 400.0000 334.7200 L 400.0000 330.8800 L 396.1600 330.8800 L 396.1600 327.0400 L 400.0000 327.0400 L 400.0000 323.2000 L 403.8400 323.2000 L 403.8400 327.0400 L 407.6800 327.0400 L 407.6800 323.2000 L 403.8400 323.2000 L 403.8400 319.3600 L 400.0000 319.3600 L 400.0000 323.2000 L 396.1600 323.2000 L 396.1600 319.3600 L 400.0000 319.3600 L 400.0000 315.5200 L 396.1600 315.5200 L 396.1600 311.6800 L 400.0000 311.6800 L 400.0000 307.8400 L 403.8400 307.8400 L 403.8400 311.6800 L 407.6800 311.6800 L 407.6800 307.8400 L 403.8400 307.8400 L 403.8400 304.0000 L 400.0000 304.0000 L 400.0000 307.8400 L 396.1600 307.8400 L 396.1600 304.0000 L 392.3200 304.0000 L 392.3200 307.8400 L 396.1600 307.8400 L 396.1600 311.6800 L 392.3200 311.6800 L 392.3200 315.5200 L 388.4800 315.5200 L 388.4800 311.6800 L 392.3200 311.6800 L 392.3200 307.8400 L 388.4800 307.8400 L 388.4800 304.0000 L 384.6400 304.0000 L 384.6400 307.8400 L 380.8000 307.8400 L 380.8000 304.0000 L 384.6400 304.0000 L 384.6400 300.1600 L 380.8000 300.1600 L 380.8000 296.3200 L 384.6400 296.3200 L 384.6400 292.4800 L 388.4800 292.4800 L 388.4800 296.3200 L 384.6400 296.3200 L 384.6400 300.1600 L 388.4800 300.1600 L 388.4800 304.0000 L 392.3200 304.0000 L 392.3200 300.1600 L 396.1600 300.1600 L 396.1600 304.0000 L 400.0000 304.0000 L 400.0000 300.1600 L 396.1600 300.1600 L 396.1600 296.3200 L 400.0000 296.3200 L 400.0000 292.4800 L 403.8400 292.4800 L 403.8400 296.3200 L 407.6800 296.3200 L 407.6800 292.4800 L 403.8400 292.4800 L 403.8400 288.6400 L 400.0000 288.6400 L 400.0000 292.4800 L 396.1600 292.4800 L 396.1600 288.6400 L 400.0000 288.6400 L 400.0000 284.8000 L 396.1600 284.8000 L 396.1600 280.9600 L 400.0000 280.9600 L 400.0000 277.1200 L 403.8400 277.1200 L 403.8400 280.9600 L 400.0000 280.9600 L 400.0000 284.8000 L 403.8400 284.8000 L 403.8400 288.6400 L 407.6800 288.6400 L 407.6800 284.8000 L 411.5200 284.8000 L 411.5200 288.6400 L 415.3600 288.6400 L 415.3600 284.8000 L 411.5200 284.8000 L 411.5200 280.9600 L 415.3600 280.9600 L 415.3600 277.1200 L 419.2000 277.1200 L 419.2000 280.9600 L 415.3600 280.9600 L 415.3600 284.8000 L 419.2000 284.8000 L 419.2000 288.6400 L 423.0400 288.6400 L 423.0400 284.8000 L 426.8800 284.8000 L 426.8800 288.6400 L 423.0400 288.6400 L 423.0400 292.4800 L 426.8800 292.4800 L 426.8800 296.3200 L 423.0400 296.3200 L 423.0400 300.1600 L 419.2000 300.1600 L 419.2000 296.3200 L 415.3600 296.3200 L 415.3600 300.1600 L 419.2000 300.1600 L 419.2000 304.0000 L 423.0400 304.0000 L 423.0400 300.1600 L 426.8800 300.1600 L 426.8800 304.0000 L 430.7200 304.0000 L 430.7200 300.1600 L 426.8800 300.1600 L 426.8800 296.3200 L 430.7200 296.3200 L 430.7200 292.4800 L 434.5600 292.4800 L 434.5600 296.3200 L 438.4000 296.3200 L 438.4000 292.4800 L 434.5600 292.4800 L 434.5600 288.6400 L 430.7200 288.6400 L 430.7200 292.4800 L 426.8800 292.4800 L 426.8800 288.6400 L 430.7200 288.6400 L 430.7200 284.8000 L 426.8800 284.8000 L 426.8800 280.9600 L 430.7200 280.9600 L 430.7200 277.1200 L 434.5600 277.1200 L 434.5600 280.9600 L 438.4000 280.9600 L 438.4000 277.1200 L 434.5600 277.1200 L 434.5600 273.2800 L 430.7200 273.2800 L 430.7200 277.1200 L 426.8800 277.1200 L 426.8800 273.2800 L 423.0400 273.2800 L 423.0400 277.1200 L 426.8800 277.1200 L 426.8800 280.9600 L 423.0400 280.9600 L 423.0400 284.8000 L 419.2000 284.8000 L 419.2000 280.9600 L 423.0400 280.9600 L 423.0400 277.1200 L 419.2000 277.1200 L 419.2000 273.2800 L 415.3600 273.2800 L 415.3600 277.1200 L 411.5200 277.1200 L 411.5200 273.2800 L 415.3600 273.2800 L 415.3600 269.4400 L 411.5200 269.4400 L 411.5200 265.6000 L 415.3600 265.6000 L 415.3600 261.7600 L 419.2000 261.7600 L 419.2000 265.6000 L 423.0400 265.6000 L 423.0400 261.7600 L 419.2000 261.7600 L 419.2000 257.9200 L 415.3600 257.9200 L 415.3600 261.7600 L 411.5200 261.7600 L 411.5200 257.9200 L 407.6800 257.9200 L 407.6800 261.7600 L 411.5200 261.7600 L 411.5200 265.6000 L 407.6800 265.6000 L 407.6800 269.4400 L 403.8400 269.4400 L 403.8400 265.6000 L 400.0000 265.6000 L 400.0000 269.4400 L 403.8400 269.4400 L 403.8400 273.2800 L 407.6800 273.2800 L 407.6800 269.4400 L 411.5200 269.4400 L 411.5200 273.2800 L 407.6800 273.2800 L 407.6800 277.1200 L 411.5200 277.1200 L 411.5200 280.9600 L 407.6800 280.9600 L 407.6800 284.8000 L 403.8400 284.8000 L 403.8400 280.9600 L 407.6800 280.9600 L 407.6800 277.1200 L 403.8400 277.1200 L 403.8400 273.2800 L 400.0000 273.2800 L 400.0000 277.1200 L 396.1600 277.1200 L 396.1600 273.2800 L 392.3200 273.2800 L 392.3200 277.1200 L 396.1600 277.1200 L 396.1600 280.9600 L 392.3200 280.9600 L 392.3200 284.8000 L 388.4800 284.8000 L 388.4800 280.9600 L 392.3200 280.9600 L 392.3200 277.1200 L 388.4800 277.1200 L 388.4800 273.2800 L 384.6400 273.2800 L 384.6400 277.1200 L 380.8000 277.1200 L 380.8000 273.2800 L 384.6400 273.2800 L 384.6400 269.4400 L 380.8000 269.4400 L 380.8000 265.6000 L 384.6400 265.6000 L 384.6400 261.7600 L 388.4800 261.7600 L 388.4800 265.6000 L 384.6400 265.6000 L 384.6400 269.4400 L 388.4800 269.4400 L 388.4800 273.2800 L 392.3200 273.2800 L 392.3200 269.4400 L 396.1600 269.4400 L 396.1600 273.2800 L 400.0000 273.2800 L 400.0000 269.4400 L 396.1600 269.4400 L 396.1600 265.6000 L 400.0000 265.6000 L 400.0000 261.7600 L 403.8400 261.7600 L 403.8400 265.6000 L 407.6800 265.6000 L 407.6800 261.7600 L 403.8400 261.7600 L 403.8400 257.9200 L 400.0000 257.9200 L 400.0000 261.7600 L 396.1600 261.7600 L 396.1600 257.9200 L 400.0000 257.9200 L 400.0000 254.0800 L 396.1600 254.0800 L 396.1600 250.2400 L 400.0000 250.2400 L 400.0000 246.4000 L 403.8400 246.4000 L 403.8400 250.2400 L 407.6800 250.2400 L 407.6800 246.4000 L 403.8400 246.4000 L 403.8400 242.5600 L 400.0000 242.5600 L 400.0000 246.4000 L 396.1600 246.4000 L 396.1600 242.5600 L 392.3200 242.5600 L 392.3200 246.4000 L 396.1600 246.4000 L 396.1600 250.2400 L 392.3200 250.2400 L 392.3200 254.0800 L 388.4800 254.0800 L 388.4800 250.2400 L 392.3200 250.2400 L 392.3200 246.4000 L 388.4800 246.4000 L 388.4800 242.5600 L 384.6400 242.5600 L 384.6400 246.4000 L 380.8000 246.4000 L 380.8000 242.5600 L 384.6400 242.5600 L 384.6400 238.7200 L 380.8000 238.7200 L 380.8000 234.8800 L 384.6400 234.8800 L 384.6400 231.0400 L 388.4800 231.0400 L 388.4800 234.8800 L 384.6400 234.8800 L 384.6400 238.7200 L 388.4800 238.7200 L 388.4800 242.5600 L 392.3200 242.5600 L 392.3200 238.7200 L 396.1600 238.7200 L 396.1600 242.5600 L 400.0000 242.5600 L 400.0000 238.7200 L 396.1600 238.7200 L 396.1600 234.8800 L 400.0000 234.8800 L 400.0000 231.0400 L 403.8400 231.0400 L 403.8400 234.8800 L 407.6800 234.8800 L 407.6800 231.0400 L 403.8400 231.0400 L 403.8400 227.2000 L 400.0000 227.2000 L 400.0000 231.0400 L 396.1600 231.0400 L 396.1600 227.2000 L 400.0000 227.2000 L 400.0000 223.3600 L 396.1600 223.3600 L 396.1600 219.5200 L 400.0000 219.5200 L 400.0000 215.6800 L 403.8400 215.6800 L 403.8400 219.5200 L 400.0000 219.5200 L 400.0000 223.3600 L 403.8400 223.3600 L 403.8400 227.2000 L 407.6800 227.2000 L 407.6800 223.3600 L 411.5200 223.3600 L 411.5200 227.2000 L 415.3600 227.2000 L 415.3600 223.3600 L 411.5200 223.3600 L 411.5200 219.5200 L 415.3600 219.5200 L 415.3600 215.6800 L 419.2000 215.6800 L 419.2000 219.5200 L 415.3600 219.5200 L 415.3600 223.3600 L 419.2000 223.3600 L 419.2000 227.2000 L 423.0400 227.2000 L 423.0400 223.3600 L 426.8800 223.3600 L 426.8800 227.2000 L 423.0400 227.2000 L 423.0400 231.0400 L 426.8800 231.0400 L 426.8800 234.8800 L 423.0400 234.8800 L 423.0400 238.7200 L 419.2000 238.7200 L 419.2000 234.8800 L 415.3600 234.8800 L 415.3600 238.7200 L 419.2000 238.7200 L 419.2000 242.5600 L 423.0400 242.5600 L 423.0400 238.7200 L 426.8800 238.7200 L 426.8800 242.5600 L 430.7200 242.5600 L 430.7200 238.7200 L 426.8800 238.7200 L 426.8800 234.8800 L 430.7200 234.8800 L 430.7200 231.0400 L 434.5600 231.0400 L 434.5600 234.8800 L 438.4000 234.8800 L 438.4000 231.0400 L 434.5600 231.0400 L 434.5600 227.2000 L 430.7200 227.2000 L 430.7200 231.0400 L 426.8800 231.0400 L 426.8800 227.2000 L 430.7200 227.2000 L 430.7200 223.3600 L 426.8800 223.3600 L 426.8800 219.5200 L 430.7200 219.5200 L 430.7200 215.6800 L 434.5600 215.6800 L 434.5600 219.5200 L 438.4000 219.5200 L 438.4000 215.6800 L 434.5600 215.6800 L 434.5600 211.8400 L 430.7200 211.8400 L 430.7200 215.6800 L 426.8800 215.6800 L 426.8800 211.8400 L 423.0400 211.8400 L 423.0400 215.6800 L 426.8800 215.6800 L 426.8800 219.5200 L 423.0400 219.5200 L 423.0400 223.3600 L 419.2000 223.3600 L 419.2000 219.5200 L 423.0400 219.5200 L 423.0400 215.6800 L 419.2000 215.6800 L 419.2000 211.8400 L 415.3600 211.8400 L 415.3600 215.6800 L 411.5200 215.6800 L 411.5200 211.8400 L 415.3600 211.8400 L 415.3600 208.0000 L 411.5200 208.0000 L 411.5200 204.1600 L 415.3600 204.1600 L 415.3600 200.3200 L 419.2000 200.3200 L 419.2000 204.1600 L 423.0400 204.1600 L 423.0400 200.3200 L 419.2000 200.3200 L 419.2000 196.4800 L 415.3600 196.4800 L 415.3600 200.3200 L 411.5200 200.3200 L 411.5200 196.4800 L 407.6800 196.4800 L 407.6800 200.3200 L 411.5200 200.3200 L 411.5200 204.1600 L 407.6800 204.1600 L 407.6800 208.0000 L 403.8400 208.0000 L 403.8400 204.1600 L 400.0000 204.1600 L 400.0000 208.0000 L 403.8400 208.0000 L 403.8400 211.8400 L 407.6800 211.8400 L 407.6800 208.0000 L 411.5200 208.0000 L 411.5200 211.8400 L 407.6800 211.8400 L 407.6800 215.6800 L 411.5200 215.6800 L 411.5200 219.5200 L 407.6800 219.5200 L 407.6800 223.3600 L 403.8400 223.3600 L 403.8400 219.5200 L 407.6800 219.5200 L 407.6800 215.6800 L 403.8400 215.6800 L 403.8400 211.8400 L 400.0000 211.8400 L 400.0000 215.6800 L 396.1600 215.6800 L 396.1600 211.8400 L 392.3200 211.8400 L 392.3200 215.6800 L 396.1600 215.6800 L 396.1600 219.5200 L 392.3200 219.5200 L 392.3200 223.3600 L 388.4800 223.3600 L 388.4800 219.5200 L 392.3200 219.5200 L 392.3200 215.6800 L 388.4800 215.6800 L 388.4800 211.8400 L 384.6400 211.8400 L 384.6400 215.6800 L 380.8000 215.6800 L 380.8000 211.8400 L 384.6400 211.8400 L 384.6400 208.0000 L 380.8000 208.0000 L 380.8000 204.1600 L 384.6400 204.1600 L 384.6400 200.3200 L 388.4800 200.3200 L 388.4800 204.1600 L 392.3200 204.1600 L 392.3200 200.3200 L 388.4800 200.3200 L 388.4800 196.4800 L 384.6400 196.4800 L 384.6400 200.3200 L 380.8000 200.3200 L 380.8000 196.4800 L 376.9600 196.4800 L 376.9600 200.3200 L 380.8000 200.3200 L 380.8000 204.1600 L 376.9600 204.1600 L 376.9600 208.0000 L 373.1200 208.0000 L 373.1200 204.1600 L 369.2800 204.1600 L 369.2800 208.0000 L 373.1200 208.0000 L 373.1200 211.8400 L 376.9600 211.8400 L 376.9600 208.0000 L 380.8000 208.0000 L 380.8000 211.8400 L 376.9600 211.8400 L 376.9600 215.6800 L 380.8000 215.6800 L 380.8000 219.5200 L 376.9600 219.5200 L 376.9600 223.3600 L 373.1200 223.3600 L 373.1200 219.5200 L 369.2800 219.5200 L 369.2800 223.3600 L 373.1200 223.3600 L 373.1200 227.2000 L 376.9600 227.2000 L 376.9600 223.3600 L 380.8000 223.3600 L 380.8000 227.2000 L 384.6400 227.2000 L 384.6400 223.3600 L 380.8000 223.3600 L 380.8000 219.5200 L 384.6400 219.5200 L 384.6400 215.6800 L 388.4800 215.6800 L 388.4800 219.5200 L 384.6400 219.5200 L 384.6400 223.3600 L 388.4800 223.3600 L 388.4800 227.2000 L 392.3200 227.2000 L 392.3200 223.3600 L 396.1600 223.3600 L 396.1600 227.2000 L 392.3200 227.2000 L 392.3200 231.0400 L 396.1600 231.0400 L 396.1600 234.8800 L 392.3200 234.8800 L 392.3200 238.7200 L 388.4800 238.7200 L 388.4800 234.8800 L 392.3200 234.8800 L 392.3200 231.0400 L 388.4800 231.0400 L 388.4800 227.2000 L 384.6400 227.2000 L 384.6400 231.0400 L 380.8000 231.0400 L 380.8000 227.2000 L 376.9600 227.2000 L 376.9600 231.0400 L 380.8000 231.0400 L 380.8000 234.8800 L 376.9600 234.8800 L 376.9600 238.7200 L 373.1200 238.7200 L 373.1200 234.8800 L 369.2800 234.8800 L 369.2800 238.7200 L 373.1200 238.7200 L 373.1200 242.5600 L 376.9600 242.5600 L 376.9600 238.7200 L 380.8000 238.7200 L 380.8000 242.5600 L 376.9600 242.5600 L 376.9600 246.4000 L 380.8000 246.4000 L 380.8000 250.2400 L 376.9600 250.2400 L 376.9600 254.0800 L 373.1200 254.0800 L 373.1200 250.2400 L 376.9600 250.2400 L 376.9600 246.4000 L 373.1200 246.4000 L 373.1200 242.5600 L 369.2800 242.5600 L 369.2800 246.4000 L 365.4400 246.4000 L 365.4400 242.5600 L 361.6000 242.5600 L 361.6000 246.4000 L 365.4400 246.4000 L 365.4400 250.2400 L 361.6000 250.2400 L 361.6000 254.0800 L 357.7600 254.0800 L 357.7600 250.2400 L 361.6000 250.2400 L 361.6000 246.4000 L 357.7600 246.4000 L 357.7600 242.5600 L 353.9200 242.5600 L 353.9200 246.4000 L 350.0800 246.4000 L 350.0800 242.5600 L 353.9200 242.5600 L 353.9200 238.7200 L 350.0800 238.7200 L 350.0800 234.8800 L 353.9200 234.8800 L 353.9200 231.0400 L 357.7600 231.0400 L 357.7600 234.8800 L 353.9200 234.8800 L 353.9200 238.7200 L 357.7600 238.7200 L 357.7600 242.5600 L 361.6000 242.5600 L 361.6000 238.7200 L 365.4400 238.7200 L 365.4400 242.5600 L 369.2800 242.5600 L 369.2800 238.7200 L 365.4400 238.7200 L 365.4400 234.8800 L 369.2800 234.8800 L 369.2800 231.0400 L 373.1200 231.0400 L 373.1200 234.8800 L 376.9600 234.8800 L 376.9600 231.0400 L 373.1200 231.0400 L 373.1200 227.2000 L 369.2800 227.2000 L 369.2800 231.0400 L 365.4400 231.0400 L 365.4400 227.2000 L 369.2800 227.2000 L 369.2800 223.3600 L 365.4400 223.3600 L 365.4400 219.5200 L 369.2800 219.5200 L 369.2800 215.6800 L 373.1200 215.6800 L 373.1200 219.5200 L 376.9600 219.5200 L 376.9600 215.6800 L 373.1200 215.6800 L 373.1200 211.8400 L 369.2800 211.8400 L 369.2800 215.6800 L 365.4400 215.6800 L 365.4400 211.8400 L 361.6000 211.8400 L 361.6000 215.6800 L 365.4400 215.6800 L 365.4400 219.5200 L 361.6000 219.5200 L 361.6000 223.3600 L 357.7600 223.3600 L 357.7600 219.5200 L 361.6000 219.5200 L 361.6000 215.6800 L 357.7600 215.6800 L 357.7600 211.8400 L 353.9200 211.8400 L 353.9200 215.6800 L 350.0800 215.6800 L 350.0800 211.8400 L 353.9200 211.8400 L 353.9200 208.0000 L 350.0800 208.0000 L 350.0800 204.1600 L 353.9200 204.1600 L 353.9200 200.3200 L 357.7600 200.3200 L 357.7600 204.1600 L 361.6000 204.1600 L 361.6000 200.3200 L 357.7600 200.3200 L 357.7600 196.4800 L 353.9200 196.4800 L 353.9200 200.3200 L 350.0800 200.3200 L 350.0800 196.4800 L 346.2400 196.4800 L 346.2400 200.3200 L 350.0800 200.3200 L 350.0800 204.1600 L 346.2400 204.1600 L 346.2400 208.0000 L 342.4000 208.0000 L 342.4000 204.1600 L 338.5600 204.1600 L 338.5600 208.0000 L 342.4000 208.0000 L 342.4000 211.8400 L 346.2400 211.8400 L 346.2400 208.0000 L 350.0800 208.0000 L 350.0800 211.8400 L 346.2400 211.8400 L 346.2400 215.6800 L 350.0800 215.6800 L 350.0800 219.5200 L 346.2400 219.5200 L 346.2400 223.3600 L 342.4000 223.3600 L 342.4000 219.5200 L 346.2400 219.5200 L 346.2400 215.6800 L 342.4000 215.6800 L 342.4000 211.8400 L 338.5600 211.8400 L 338.5600 215.6800 L 334.7200 215.6800 L 334.7200 211.8400 L 330.8800 211.8400 L 330.8800 215.6800 L 334.7200 215.6800 L 334.7200 219.5200 L 330.8800 219.5200 L 330.8800 223.3600 L 327.0400 223.3600 L 327.0400 219.5200 L 330.8800 219.5200 L 330.8800 215.6800 L 327.0400 215.6800 L 327.0400 211.8400 L 323.2000 211.8400 L 323.2000 215.6800 L 319.3600 215.6800 L 319.3600 211.8400 L 323.2000 211.8400 L 323.2000 208.0000 L 319.3600 208.0000 L 319.3600 204.1600 L 323.2000 204.1600 L 323.2000 200.3200 L 327.0400 200.3200 L 327.0400 204.1600 L 323.2000 204.1600 L 323.2000 208.0000 L 327.0400 208.0000 L 327.0400 211.8400 L 330.8800 211.8400 L 330.8800 208.0000 L 334.7200 208.0000 L 334.7200 211.8400 L 338.5600 211.8400 L 338.5600 208.0000 L 334.7200 208.0000 L 334.7200 204.1600 L 338.5600 204.1600 L 338.5600 200.3200 L 342.4000 200.3200 L 342.4000 204.1600 L 346.2400 204.1600 L 346.2400 200.3200 L 342.4000 200.3200 L 342.4000 196.4800 L 338.5600 196.4800 L 338.5600 200.3200 L 334.7200 200.3200 L 334.7200 196.4800 L 338.5600 196.4800 L 338.5600 192.6400 L 334.7200 192.6400 L 334.7200 188.8000 L 338.5600 188.8000 L 338.5600 184.9600 L 342.4000 184.9600 L 342.4000 188.8000 L 346.2400 188.8000 L 346.2400 184.9600 L 342.4000 184.9600 L 342.4000 181.1200 L 338.5600 181.1200 L 338.5600 184.9600 L 334.7200 184.9600 L 334.7200 181.1200 L 330.8800 181.1200 L 330.8800 184.9600 L 334.7200 184.9600 L 334.7200 188.8000 L 330.8800 188.8000 L 330.8800 192.6400 L 327.0400 192.6400 L 327.0400 188.8000 L 330.8800 188.8000 L 330.8800 184.9600 L 327.0400 184.9600 L 327.0400 181.1200 L 323.2000 181.1200 L 323.2000 184.9600 L 319.3600 184.9600 L 319.3600 181.1200 L 323.2000 181.1200 L 323.2000 177.2800 L 319.3600 177.2800 L 319.3600 173.4400 L 323.2000 173.4400 L 323.2000 169.6000 L 327.0400 169.6000 L 327.0400 173.4400 L 323.2000 173.4400 L 323.2000 177.2800 L 327.0400 177.2800 L 327.0400 181.1200 L 330.8800 181.1200 L 330.8800 177.2800 L 334.7200 177.2800 L 334.7200 181.1200 L 338.5600 181.1200 L 338.5600 177.2800 L 334.7200 177.2800 L 334.7200 173.4400 L 338.5600 173.4400 L 338.5600 169.6000 L 342.4000 169.6000 L 342.4000 173.4400 L 346.2400 173.4400 L 346.2400 169.6000 L 342.4000 169.6000 L 342.4000 165.7600 L 338.5600 165.7600 L 338.5600 169.6000 L 334.7200 169.6000 L 334.7200 165.7600 L 338.5600 165.7600 L 338.5600 161.9200 L 334.7200 161.9200 L 334.7200 158.0800 L 338.5600 158.0800 L 338.5600 154.2400 L 342.4000 154.2400 L 342.4000 158.0800 L 338.5600 158.0800 L 338.5600 161.9200 L 342.4000 161.9200 L 342.4000 165.7600 L 346.2400 165.7600 L 346.2400 161.9200 L 350.0800 161.9200 L 350.0800 165.7600 L 353.9200 165.7600 L 353.9200 161.9200 L 350.0800 161.9200 L 350.0800 158.0800 L 353.9200 158.0800 L 353.9200 154.2400 L 357.7600 154.2400 L 357.7600 158.0800 L 353.9200 158.0800 L 353.9200 161.9200 L 357.7600 161.9200 L 357.7600 165.7600 L 361.6000 165.7600 L 361.6000 161.9200 L 365.4400 161.9200 L 365.4400 165.7600 L 361.6000 165.7600 L 361.6000 169.6000 L 365.4400 169.6000 L 365.4400 173.4400 L 361.6000 173.4400 L 361.6000 177.2800 L 357.7600 177.2800 L 357.7600 173.4400 L 353.9200 173.4400 L 353.9200 177.2800 L 357.7600 177.2800 L 357.7600 181.1200 L 361.6000 181.1200 L 361.6000 177.2800 L 365.4400 177.2800 L 365.4400 181.1200 L 369.2800 181.1200 L 369.2800 177.2800 L 365.4400 177.2800 L 365.4400 173.4400 L 369.2800 173.4400 L 369.2800 169.6000 L 373.1200 169.6000 L 373.1200 173.4400 L 376.9600 173.4400 L 376.9600 169.6000 L 373.1200 169.6000 L 373.1200 165.7600 L 369.2800 165.7600 L 369.2800 169.6000 L 365.4400 169.6000 L 365.4400 165.7600 L 369.2800 165.7600 L 369.2800 161.9200 L 365.4400 161.9200 L 365.4400 158.0800 L 369.2800 158.0800 L 369.2800 154.2400 L 373.1200 154.2400 L 373.1200 158.0800 L 376.9600 158.0800 L 376.9600 154.2400 L 373.1200 154.2400 L 373.1200 150.4000 L 369.2800 150.4000 L 369.2800 154.2400 L 365.4400 154.2400 L 365.4400 150.4000 L 361.6000 150.4000 L 361.6000 154.2400 L 365.4400 154.2400 L 365.4400 158.0800 L 361.6000 158.0800 L 361.6000 161.9200 L 357.7600 161.9200 L 357.7600 158.0800 L 361.6000 158.0800 L 361.6000 154.2400 L 357.7600 154.2400 L 357.7600 150.4000 L 353.9200 150.4000 L 353.9200 154.2400 L 350.0800 154.2400 L 350.0800 150.4000 L 353.9200 150.4000 L 353.9200 146.5600 L 350.0800 146.5600 L 350.0800 142.7200 L 353.9200 142.7200 L 353.9200 138.8800 L 357.7600 138.8800 L 357.7600 142.7200 L 361.6000 142.7200 L 361.6000 138.8800 L 357.7600 138.8800 L 357.7600 135.0400 L 353.9200 135.0400 L 353.9200 138.8800 L 350.0800 138.8800 L 350.0800 135.0400 L 346.2400 135.0400 L 346.2400 138.8800 L 350.0800 138.8800 L 350.0800 142.7200 L 346.2400 142.7200 L 346.2400 146.5600 L 342.4000 146.5600 L 342.4000 142.7200 L 338.5600 142.7200 L 338.5600 146.5600 L 342.4000 146.5600 L 342.4000 150.4000 L 346.2400 150.4000 L 346.2400 146.5600 L 350.0800 146.5600 L 350.0800 150.4000 L 346.2400 150.4000 L 346.2400 154.2400 L 350.0800 154.2400 L 350.0800 158.0800 L 346.2400 158.0800 L 346.2400 161.9200 L 342.4000 161.9200 L 342.4000 158.0800 L 346.2400 158.0800 L 346.2400 154.2400 L 342.4000 154.2400 L 342.4000 150.4000 L 338.5600 150.4000 L 338.5600 154.2400 L 334.7200 154.2400 L 334.7200 150.4000 L 330.8800 150.4000 L 330.8800 154.2400 L 334.7200 154.2400 L 334.7200 158.0800 L 330.8800 158.0800 L 330.8800 161.9200 L 327.0400 161.9200 L 327.0400 158.0800 L 330.8800 158.0800 L 330.8800 154.2400 L 327.0400 154.2400 L 327.0400 150.4000 L 323.2000 150.4000 L 323.2000 154.2400 L 319.3600 154.2400 L 319.3600 150.4000 L 323.2000 150.4000 L 323.2000 146.5600 L 319.3600 146.5600 L 319.3600 142.7200 L 323.2000 142.7200 L 323.2000 138.8800 L 327.0400 138.8800 L 327.0400 142.7200 L 330.8800 142.7200 L 330.8800 138.8800 L 327.0400 138.8800 L 327.0400 135.0400 L 323.2000 135.0400 L 323.2000 138.8800 L 319.3600 138.8800 L 319.3600 135.0400 L 315.5200 135.0400 L 315.5200 138.8800 L 319.3600 138.8800 L 319.3600 142.7200 L 315.5200 142.7200 L 315.5200 146.5600 L 311.6800 146.5600 L 311.6800 142.7200 L 307.8400 142.7200 L 307.8400 146.5600 L 311.6800 146.5600 L 311.6800 150.4000 L 315.5200 150.4000 L 315.5200 146.5600 L 319.3600 146.5600 L 319.3600 150.4000 L 315.5200 150.4000 L 315.5200 154.2400 L 319.3600 154.2400 L 319.3600 158.0800 L 315.5200 158.0800 L 315.5200 161.9200 L 311.6800 161.9200 L 311.6800 158.0800 L 307.8400 158.0800 L 307.8400 161.9200 L 311.6800 161.9200 L 311.6800 165.7600 L 315.5200 165.7600 L 315.5200 161.9200 L 319.3600 161.9200 L 319.3600 165.7600 L 323.2000 165.7600 L 323.2000 161.9200 L 319.3600 161.9200 L 319.3600 158.0800 L 323.2000 158.0800 L 323.2000 154.2400 L 327.0400 154.2400 L 327.0400 158.0800 L 323.2000 158.0800 L 323.2000 161.9200 L 327.0400 161.9200 L 327.0400 165.7600 L 330.8800 165.7600 L 330.8800 161.9200 L 334.7200 161.9200 L 334.7200 165.7600 L 330.8800 165.7600 L 330.8800 169.6000 L 334.7200 169.6000 L 334.7200 173.4400 L 330.8800 173.4400 L 330.8800 177.2800 L 327.0400 177.2800 L 327.0400 173.4400 L 330.8800 173.4400 L 330.8800 169.6000 L 327.0400 169.6000 L 327.0400 165.7600 L 323.2000 165.7600 L 323.2000 169.6000 L 319.3600 169.6000 L 319.3600 165.7600 L 315.5200 165.7600 L 315.5200 169.6000 L 319.3600 169.6000 L 319.3600 173.4400 L 315.5200 173.4400 L 315.5200 177.2800 L 311.6800 177.2800 L 311.6800 173.4400 L 307.8400 173.4400 L 307.8400 177.2800 L 311.6800 177.2800 L 311.6800 181.1200 L 315.5200 181.1200 L 315.5200 177.2800 L 319.3600 177.2800 L 319.3600 181.1200 L 315.5200 181.1200 L 315.5200 184.9600 L 319.3600 184.9600 L 319.3600 188.8000 L 315.5200 188.8000 L 315.5200 192.6400 L 311.6800 192.6400 L 311.6800 188.8000 L 315.5200 188.8000 L 315.5200 184.9600 L 311.6800 184.9600 L 311.6800 181.1200 L 307.8400 181.1200 L 307.8400 184.9600 L 304.0000 184.9600 L 304.0000 181.1200 L 300.1600 181.1200 L 300.1600 184.9600 L 304.0000 184.9600 L 304.0000 188.8000 L 300.1600 188.8000 L 300.1600 192.6400 L 296.3200 192.6400 L 296.3200 188.8000 L 300.1600 188.8000 L 300.1600 184.9600 L 296.3200 184.9600 L 296.3200 181.1200 L 292.4800 181.1200 L 292.4800 184.9600 L 288.6400 184.9600 L 288.6400 181.1200 L 292.4800 181.1200 L 292.4800 177.2800 L 288.6400 177.2800 L 288.6400 173.4400 L 292.4800 173.4400 L 292.4800 169.6000 L 296.3200 169.6000 L 296.3200 173.4400 L 300.1600 173.4400 L 300.1600 169.6000 L 296.3200 169.6000 L 296.3200 165.7600 L 292.4800 165.7600 L 292.4800 169.6000 L 288.6400 169.6000 L 288.6400 165.7600 L 284.8000 165.7600 L 284.8000 169.6000 L 288.6400 169.6000 L 288.6400 173.4400 L 284.8000 173.4400 L 284.8000 177.2800 L 280.9600 177.2800 L 280.9600 173.4400 L 277.1200 173.4400 L 277.1200 177.2800 L 280.9600 177.2800 L 280.9600 181.1200 L 284.8000 181.1200 L 284.8000 177.2800 L 288.6400 177.2800 L 288.6400 181.1200 L 284.8000 181.1200 L 284.8000 184.9600 L 288.6400 184.9600 L 288.6400 188.8000 L 284.8000 188.8000 L 284.8000 192.6400 L 280.9600 192.6400 L 280.9600 188.8000 L 277.1200 188.8000 L 277.1200 192.6400 L 280.9600 192.6400 L 280.9600 196.4800 L 284.8000 196.4800 L 284.8000 192.6400 L 288.6400 192.6400 L 288.6400 196.4800 L 292.4800 196.4800 L 292.4800 192.6400 L 288.6400 192.6400 L 288.6400 188.8000 L 292.4800 188.8000 L 292.4800 184.9600 L 296.3200 184.9600 L 296.3200 188.8000 L 292.4800 188.8000 L 292.4800 192.6400 L 296.3200 192.6400 L 296.3200 196.4800 L 300.1600 196.4800 L 300.1600 192.6400 L 304.0000 192.6400 L 304.0000 196.4800 L 300.1600 196.4800 L 300.1600 200.3200 L 304.0000 200.3200 L 304.0000 204.1600 L 300.1600 204.1600 L 300.1600 208.0000 L 296.3200 208.0000 L 296.3200 204.1600 L 292.4800 204.1600 L 292.4800 208.0000 L 296.3200 208.0000 L 296.3200 211.8400 L 300.1600 211.8400 L 300.1600 208.0000 L 304.0000 208.0000 L 304.0000 211.8400 L 307.8400 211.8400 L 307.8400 208.0000 L 304.0000 208.0000 L 304.0000 204.1600 L 307.8400 204.1600 L 307.8400 200.3200 L 311.6800 200.3200 L 311.6800 204.1600 L 315.5200 204.1600 L 315.5200 200.3200 L 311.6800 200.3200 L 311.6800 196.4800 L 307.8400 196.4800 L 307.8400 200.3200 L 304.0000 200.3200 L 304.0000 196.4800 L 307.8400 196.4800 L 307.8400 192.6400 L 304.0000 192.6400 L 304.0000 188.8000 L 307.8400 188.8000 L 307.8400 184.9600 L 311.6800 184.9600 L 311.6800 188.8000 L 307.8400 188.8000 L 307.8400 192.6400 L 311.6800 192.6400 L 311.6800 196.4800 L 315.5200 196.4800 L 315.5200 192.6400 L 319.3600 192.6400 L 319.3600 196.4800 L 323.2000 196.4800 L 323.2000 192.6400 L 319.3600 192.6400 L 319.3600 188.8000 L 323.2000 188.8000 L 323.2000 184.9600 L 327.0400 184.9600 L 327.0400 188.8000 L 323.2000 188.8000 L 323.2000 192.6400 L 327.0400 192.6400 L 327.0400 196.4800 L 330.8800 196.4800 L 330.8800 192.6400 L 334.7200 192.6400 L 334.7200 196.4800 L 330.8800 196.4800 L 330.8800 200.3200 L 334.7200 200.3200 L 334.7200 204.1600 L 330.8800 204.1600 L 330.8800 208.0000 L 327.0400 208.0000 L 327.0400 204.1600 L 330.8800 204.1600 L 330.8800 200.3200 L 327.0400 200.3200 L 327.0400 196.4800 L 323.2000 196.4800 L 323.2000 200.3200 L 319.3600 200.3200 L 319.3600 196.4800 L 315.5200 196.4800 L 315.5200 200.3200 L 319.3600 200.3200 L 319.3600 204.1600 L 315.5200 204.1600 L 315.5200 208.0000 L 311.6800 208.0000 L 311.6800 204.1600 L 307.8400 204.1600 L 307.8400 208.0000 L 311.6800 208.0000 L 311.6800 211.8400 L 315.5200 211.8400 L 315.5200 208.0000 L 319.3600 208.0000 L 319.3600 211.8400 L 315.5200 211.8400 L 315.5200 215.6800 L 319.3600 215.6800 L 319.3600 219.5200 L 315.5200 219.5200 L 315.5200 223.3600 L 311.6800 223.3600 L 311.6800 219.5200 L 307.8400 219.5200 L 307.8400 223.3600 L 311.6800 223.3600 L 311.6800 227.2000 L 315.5200 227.2000 L 315.5200 223.3600 L 319.3600 223.3600 L 319.3600 227.2000 L 323.2000 227.2000 L 323.2000 223.3600 L 319.3600 223.3600 L 319.3600 219.5200 L 323.2000 219.5200 L 323.2000 215.6800 L 327.0400 215.6800 L 327.0400 219.5200 L 323.2000 219.5200 L 323.2000 223.3600 L 327.0400 223.3600 L 327.0400 227.2000 L 330.8800 227.2000 L 330.8800 223.3600 L 334.7200 223.3600 L 334.7200 227.2000 L 330.8800 227.2000 L 330.8800 231.0400 L 334.7200 231.0400 L 334.7200 234.8800 L 330.8800 234.8800 L 330.8800 238.7200 L 327.0400 238.7200 L 327.0400 234.8800 L 330.8800 234.8800 L 330.8800 231.0400 L 327.0400 231.0400 L 327.0400 227.2000 L 323.2000 227.2000 L 323.2000 231.0400 L 319.3600 231.0400 L 319.3600 227.2000 L 315.5200 227.2000 L 315.5200 231.0400 L 319.3600 231.0400 L 319.3600 234.8800 L 315.5200 234.8800 L 315.5200 238.7200 L 311.6800 238.7200 L 311.6800 234.8800 L 307.8400 234.8800 L 307.8400 238.7200 L 311.6800 238.7200 L 311.6800 242.5600 L 315.5200 242.5600 L 315.5200 238.7200 L 319.3600 238.7200 L 319.3600 242.5600 L 315.5200 242.5600 L 315.5200 246.4000 L 319.3600 246.4000 L 319.3600 250.2400 L 315.5200 250.2400 L 315.5200 254.0800 L 311.6800 254.0800 L 311.6800 250.2400 L 315.5200 250.2400 L 315.5200 246.4000 L 311.6800 246.4000 L 311.6800 242.5600 L 307.8400 242.5600 L 307.8400 246.4000 L 304.0000 246.4000 L 304.0000 242.5600 L 300.1600 242.5600 L 300.1600 246.4000 L 304.0000 246.4000 L 304.0000 250.2400 L 300.1600 250.2400 L 300.1600 254.0800 L 296.3200 254.0800 L 296.3200 250.2400 L 300.1600 250.2400 L 300.1600 246.4000 L 296.3200 246.4000 L 296.3200 242.5600 L 292.4800 242.5600 L 292.4800 246.4000 L 288.6400 246.4000 L 288.6400 242.5600 L 292.4800 242.5600 L 292.4800 238.7200 L 288.6400 238.7200 L 288.6400 234.8800 L 292.4800 234.8800 L 292.4800 231.0400 L 296.3200 231.0400 L 296.3200 234.8800 L 292.4800 234.8800 L 292.4800 238.7200 L 296.3200 238.7200 L 296.3200 242.5600 L 300.1600 242.5600 L 300.1600 238.7200 L 304.0000 238.7200 L 304.0000 242.5600 L 307.8400 242.5600 L 307.8400 238.7200 L 304.0000 238.7200 L 304.0000 234.8800 L 307.8400 234.8800 L 307.8400 231.0400 L 311.6800 231.0400 L 311.6800 234.8800 L 315.5200 234.8800 L 315.5200 231.0400 L 311.6800 231.0400 L 311.6800 227.2000 L 307.8400 227.2000 L 307.8400 231.0400 L 304.0000 231.0400 L 304.0000 227.2000 L 307.8400 227.2000 L 307.8400 223.3600 L 304.0000 223.3600 L 304.0000 219.5200 L 307.8400 219.5200 L 307.8400 215.6800 L 311.6800 215.6800 L 311.6800 219.5200 L 315.5200 219.5200 L 315.5200 215.6800 L 311.6800 215.6800 L 311.6800 211.8400 L 307.8400 211.8400 L 307.8400 215.6800 L 304.0000 215.6800 L 304.0000 211.8400 L 300.1600 211.8400 L 300.1600 215.6800 L 304.0000 215.6800 L 304.0000 219.5200 L 300.1600 219.5200 L 300.1600 223.3600 L 296.3200 223.3600 L 296.3200 219.5200 L 300.1600 219.5200 L 300.1600 215.6800 L 296.3200 215.6800 L 296.3200 211.8400 L 292.4800 211.8400 L 292.4800 215.6800 L 288.6400 215.6800 L 288.6400 211.8400 L 292.4800 211.8400 L 292.4800 208.0000 L 288.6400 208.0000 L 288.6400 204.1600 L 292.4800 204.1600 L 292.4800 200.3200 L 296.3200 200.3200 L 296.3200 204.1600 L 300.1600 204.1600 L 300.1600 200.3200 L 296.3200 200.3200 L 296.3200 196.4800 L 292.4800 196.4800 L 292.4800 200.3200 L 288.6400 200.3200 L 288.6400 196.4800 L 284.8000 196.4800 L 284.8000 200.3200 L 288.6400 200.3200 L 288.6400 204.1600 L 284.8000 204.1600 L 284.8000 208.0000 L 280.9600 208.0000 L 280.9600 204.1600 L 277.1200 204.1600 L 277.1200 208.0000 L 280.9600 208.0000 L 280.9600 211.8400 L 284.8000 211.8400 L 284.8000 208.0000 L 288.6400 208.0000 L 288.6400 211.8400 L 284.8000 211.8400 L 284.8000 215.6800 L 288.6400 215.6800 L 288.6400 219.5200 L 284.8000 219.5200 L 284.8000 223.3600 L 280.9600 223.3600 L 280.9600 219.5200 L 284.8000 219.5200 L 284.8000 215.6800 L 280.9600 215.6800 L 280.9600 211.8400 L 277.1200 211.8400 L 277.1200 215.6800 L 273.2800 215.6800 L 273.2800 211.8400 L 269.4400 211.8400 L 269.4400 215.6800 L 273.2800 215.6800 L 273.2800 219.5200 L 269.4400 219.5200 L 269.4400 223.3600 L 265.6000 223.3600 L 265.6000 219.5200 L 269.4400 219.5200 L 269.4400 215.6800 L 265.6000 215.6800 L 265.6000 211.8400 L 261.7600 211.8400 L 261.7600 215.6800 L 257.9200 215.6800 L 257.9200 211.8400 L 261.7600 211.8400 L 261.7600 208.0000 L 257.9200 208.0000 L 257.9200 204.1600 L 261.7600 204.1600 L 261.7600 200.3200 L 265.6000 200.3200 L 265.6000 204.1600 L 269.4400 204.1600 L 269.4400 200.3200 L 265.6000 200.3200 L 265.6000 196.4800 L 261.7600 196.4800 L 261.7600 200.3200 L 257.9200 200.3200 L 257.9200 196.4800 L 254.0800 196.4800 L 254.0800 200.3200 L 257.9200 200.3200 L 257.9200 204.1600 L 254.0800 204.1600 L 254.0800 208.0000 L 250.2400 208.0000 L 250.2400 204.1600 L 246.4000 204.1600 L 246.4000 208.0000 L 250.2400 208.0000 L 250.2400 211.8400 L 254.0800 211.8400 L 254.0800 208.0000 L 257.9200 208.0000 L 257.9200 211.8400 L 254.0800 211.8400 L 254.0800 215.6800 L 257.9200 215.6800 L 257.9200 219.5200 L 254.0800 219.5200 L 254.0800 223.3600 L 250.2400 223.3600 L 250.2400 219.5200 L 246.4000 219.5200 L 246.4000 223.3600 L 250.2400 223.3600 L 250.2400 227.2000 L 254.0800 227.2000 L 254.0800 223.3600 L 257.9200 223.3600 L 257.9200 227.2000 L 261.7600 227.2000 L 261.7600 223.3600 L 257.9200 223.3600 L 257.9200 219.5200 L 261.7600 219.5200 L 261.7600 215.6800 L 265.6000 215.6800 L 265.6000 219.5200 L 261.7600 219.5200 L 261.7600 223.3600 L 265.6000 223.3600 L 265.6000 227.2000 L 269.4400 227.2000 L 269.4400 223.3600 L 273.2800 223.3600 L 273.2800 227.2000 L 269.4400 227.2000 L 269.4400 231.0400 L 273.2800 231.0400 L 273.2800 234.8800 L 269.4400 234.8800 L 269.4400 238.7200 L 265.6000 238.7200 L 265.6000 234.8800 L 269.4400 234.8800 L 269.4400 231.0400 L 265.6000 231.0400 L 265.6000 227.2000 L 261.7600 227.2000 L 261.7600 231.0400 L 257.9200 231.0400 L 257.9200 227.2000 L 254.0800 227.2000 L 254.0800 231.0400 L 257.9200 231.0400 L 257.9200 234.8800 L 254.0800 234.8800 L 254.0800 238.7200 L 250.2400 238.7200 L 250.2400 234.8800 L 246.4000 234.8800 L 246.4000 238.7200 L 250.2400 238.7200 L 250.2400 242.5600 L 254.0800 242.5600 L 254.0800 238.7200 L 257.9200 238.7200 L 257.9200 242.5600 L 254.0800 242.5600 L 254.0800 246.4000 L 257.9200 246.4000 L 257.9200 250.2400 L 254.0800 250.2400 L 254.0800 254.0800 L 250.2400 254.0800 L 250.2400 250.2400 L 254.0800 250.2400 L 254.0800 246.4000 L 250.2400 246.4000 L 250.2400 242.5600 L 246.4000 242.5600 L 246.4000 246.4000 L 242.5600 246.4000 L 242.5600 242.5600 L 238.7200 242.5600 L 238.7200 246.4000 L 242.5600 246.4000 L 242.5600 250.2400 L 238.7200 250.2400 L 238.7200 254.0800 L 234.8800 254.0800 L 234.8800 250.2400 L 238.7200 250.2400 L 238.7200 246.4000 L 234.8800 246.4000 L 234.8800 242.5600 L 231.0400 242.5600 L 231.0400 246.4000 L 227.2000 246.4000 L 227.2000 242.5600 L 231.0400 242.5600 L 231.0400 238.7200 L 227.2000 238.7200 L 227.2000 234.8800 L 231.0400 234.8800 L 231.0400 231.0400 L 234.8800 231.0400 L 234.8800 234.8800 L 231.0400 234.8800 L 231.0400 238.7200 L 234.8800 238.7200 L 234.8800 242.5600 L 238.7200 242.5600 L 238.7200 238.7200 L 242.5600 238.7200 L 242.5600 242.5600 L 246.4000 242.5600 L 246.4000 238.7200 L 242.5600 238.7200 L 242.5600 234.8800 L 246.4000 234.8800 L 246.4000 231.0400 L 250.2400 231.0400 L 250.2400 234.8800 L 254.0800 234.8800 L 254.0800 231.0400 L 250.2400 231.0400 L 250.2400 227.2000 L 246.4000 227.2000 L 246.4000 231.0400 L 242.5600 231.0400 L 242.5600 227.2000 L 246.4000 227.2000 L 246.4000 223.3600 L 242.5600 223.3600 L 242.5600 219.5200 L 246.4000 219.5200 L 246.4000 215.6800 L 250.2400 215.6800 L 250.2400 219.5200 L 254.0800 219.5200 L 254.0800 215.6800 L 250.2400 215.6800 L 250.2400 211.8400 L 246.4000 211.8400 L 246.4000 215.6800 L 242.5600 215.6800 L 242.5600 211.8400 L 238.7200 211.8400 L 238.7200 215.6800 L 242.5600 215.6800 L 242.5600 219.5200 L 238.7200 219.5200 L 238.7200 223.3600 L 234.8800 223.3600 L 234.8800 219.5200 L 238.7200 219.5200 L 238.7200 215.6800 L 234.8800 215.6800 L 234.8800 211.8400 L 231.0400 211.8400 L 231.0400 215.6800 L 227.2000 215.6800 L 227.2000 211.8400 L 231.0400 211.8400 L 231.0400 208.0000 L 227.2000 208.0000 L 227.2000 204.1600 L 231.0400 204.1600 L 231.0400 200.3200 L 234.8800 200.3200 L 234.8800 204.1600 L 238.7200 204.1600 L 238.7200 200.3200 L 234.8800 200.3200 L 234.8800 196.4800 L 231.0400 196.4800 L 231.0400 200.3200 L 227.2000 200.3200 L 227.2000 196.4800 L 223.3600 196.4800 L 223.3600 200.3200 L 227.2000 200.3200 L 227.2000 204.1600 L 223.3600 204.1600 L 223.3600 208.0000 L 219.5200 208.0000 L 219.5200 204.1600 L 215.6800 204.1600 L 215.6800 208.0000 L 219.5200 208.0000 L 219.5200 211.8400 L 223.3600 211.8400 L 223.3600 208.0000 L 227.2000 208.0000 L 227.2000 211.8400 L 223.3600 211.8400 L 223.3600 215.6800 L 227.2000 215.6800 L 227.2000 219.5200 L 223.3600 219.5200 L 223.3600 223.3600 L 219.5200 223.3600 L 219.5200 219.5200 L 223.3600 219.5200 L 223.3600 215.6800 L 219.5200 215.6800 L 219.5200 211.8400 L 215.6800 211.8400 L 215.6800 215.6800 L 211.8400 215.6800 L 211.8400 211.8400 L 208.0000 211.8400 L 208.0000 215.6800 L 211.8400 215.6800 L 211.8400 219.5200 L 208.0000 219.5200 L 208.0000 223.3600 L 204.1600 223.3600 L 204.1600 219.5200 L 208.0000 219.5200 L 208.0000 215.6800 L 204.1600 215.6800 L 204.1600 211.8400 L 200.3200 211.8400 L 200.3200 215.6800 L 196.4800 215.6800 L 196.4800 211.8400 L 200.3200 211.8400 L 200.3200 208.0000 L 196.4800 208.0000 L 196.4800 204.1600 L 200.3200 204.1600 L 200.3200 200.3200 L 204.1600 200.3200 L 204.1600 204.1600 L 200.3200 204.1600 L 200.3200 208.0000 L 204.1600 208.0000 L 204.1600 211.8400 L 208.0000 211.8400 L 208.0000 208.0000 L 211.8400 208.0000 L 211.8400 211.8400 L 215.6800 211.8400 L 215.6800 208.0000 L 211.8400 208.0000 L 211.8400 204.1600 L 215.6800 204.1600 L 215.6800 200.3200 L 219.5200 200.3200 L 219.5200 204.1600 L 223.3600 204.1600 L 223.3600 200.3200 L 219.5200 200.3200 L 219.5200 196.4800 L 215.6800 196.4800 L 215.6800 200.3200 L 211.8400 200.3200 L 211.8400 196.4800 L 215.6800 196.4800 L 215.6800 192.6400 L 211.8400 192.6400 L 211.8400 188.8000 L 215.6800 188.8000 L 215.6800 184.9600 L 219.5200 184.9600 L 219.5200 188.8000 L 223.3600 188.8000 L 223.3600 184.9600 L 219.5200 184.9600 L 219.5200 181.1200 L 215.6800 181.1200 L 215.6800 184.9600 L 211.8400 184.9600 L 211.8400 181.1200 L 208.0000 181.1200 L 208.0000 184.9600 L 211.8400 184.9600 L 211.8400 188.8000 L 208.0000 188.8000 L 208.0000 192.6400 L 204.1600 192.6400 L 204.1600 188.8000 L 208.0000 188.8000 L 208.0000 184.9600 L 204.1600 184.9600 L 204.1600 181.1200 L 200.3200 181.1200 L 200.3200 184.9600 L 196.4800 184.9600 L 196.4800 181.1200 L 200.3200 181.1200 L 200.3200 177.2800 L 196.4800 177.2800 L 196.4800 173.4400 L 200.3200 173.4400 L 200.3200 169.6000 L 204.1600 169.6000 L 204.1600 173.4400 L 200.3200 173.4400 L 200.3200 177.2800 L 204.1600 177.2800 L 204.1600 181.1200 L 208.0000 181.1200 L 208.0000 177.2800 L 211.8400 177.2800 L 211.8400 181.1200 L 215.6800 181.1200 L 215.6800 177.2800 L 211.8400 177.2800 L 211.8400 173.4400 L 215.6800 173.4400 L 215.6800 169.6000 L 219.5200 169.6000 L 219.5200 173.4400 L 223.3600 173.4400 L 223.3600 169.6000 L 219.5200 169.6000 L 219.5200 165.7600 L 215.6800 165.7600 L 215.6800 169.6000 L 211.8400 169.6000 L 211.8400 165.7600 L 215.6800 165.7600 L 215.6800 161.9200 L 211.8400 161.9200 L 211.8400 158.0800 L 215.6800 158.0800 L 215.6800 154.2400 L 219.5200 154.2400 L 219.5200 158.0800 L 215.6800 158.0800 L 215.6800 161.9200 L 219.5200 161.9200 L 219.5200 165.7600 L 223.3600 165.7600 L 223.3600 161.9200 L 227.2000 161.9200 L 227.2000 165.7600 L 231.0400 165.7600 L 231.0400 161.9200 L 227.2000 161.9200 L 227.2000 158.0800 L 231.0400 158.0800 L 231.0400 154.2400 L 234.8800 154.2400 L 234.8800 158.0800 L 231.0400 158.0800 L 231.0400 161.9200 L 234.8800 161.9200 L 234.8800 165.7600 L 238.7200 165.7600 L 238.7200 161.9200 L 242.5600 161.9200 L 242.5600 165.7600 L 238.7200 165.7600 L 238.7200 169.6000 L 242.5600 169.6000 L 242.5600 173.4400 L 238.7200 173.4400 L 238.7200 177.2800 L 234.8800 177.2800 L 234.8800 173.4400 L 231.0400 173.4400 L 231.0400 177.2800 L 234.8800 177.2800 L 234.8800 181.1200 L 238.7200 181.1200 L 238.7200 177.2800 L 242.5600 177.2800 L 242.5600 181.1200 L 246.4000 181.1200 L 246.4000 177.2800 L 242.5600 177.2800 L 242.5600 173.4400 L 246.4000 173.4400 L 246.4000 169.6000 L 250.2400 169.6000 L 250.2400 173.4400 L 254.0800 173.4400 L 254.0800 169.6000 L 250.2400 169.6000 L 250.2400 165.7600 L 246.4000 165.7600 L 246.4000 169.6000 L 242.5600 169.6000 L 242.5600 165.7600 L 246.4000 165.7600 L 246.4000 161.9200 L 242.5600 161.9200 L 242.5600 158.0800 L 246.4000 158.0800 L 246.4000 154.2400 L 250.2400 154.2400 L 250.2400 158.0800 L 254.0800 158.0800 L 254.0800 154.2400 L 250.2400 154.2400 L 250.2400 150.4000 L 246.4000 150.4000 L 246.4000 154.2400 L 242.5600 154.2400 L 242.5600 150.4000 L 238.7200 150.4000 L 238.7200 154.2400 L 242.5600 154.2400 L 242.5600 158.0800 L 238.7200 158.0800 L 238.7200 161.9200 L 234.8800 161.9200 L 234.8800 158.0800 L 238.7200 158.0800 L 238.7200 154.2400 L 234.8800 154.2400 L 234.8800 150.4000 L 231.0400 150.4000 L 231.0400 154.2400 L 227.2000 154.2400 L 227.2000 150.4000 L 231.0400 150.4000 L 231.0400 146.5600 L 227.2000 146.5600 L 227.2000 142.7200 L 231.0400 142.7200 L 231.0400 138.8800 L 234.8800 138.8800 L 234.8800 142.7200 L 238.7200 142.7200 L 238.7200 138.8800 L 234.8800 138.8800 L 234.8800 135.0400 L 231.0400 135.0400 L 231.0400 138.8800 L 227.2000 138.8800 L 227.2000 135.0400 L 223.3600 135.0400 L 223.3600 138.8800 L 227.2000 138.8800 L 227.2000 142.7200 L 223.3600 142.7200 L 223.3600 146.5600 L 219.5200 146.5600 L 219.5200 142.7200 L 215.6800 142.7200 L 215.6800 146.5600 L 219.5200 146.5600 L 219.5200 150.4000 L 223.3600 150.4000 L 223.3600 146.5600 L 227.2000 146.5600 L 227.2000 150.4000 L 223.3600 150.4000 L 223.3600 154.2400 L 227.2000 154.2400 L 227.2000 158.0800 L 223.3600 158.0800 L 223.3600 161.9200 L 219.5200 161.9200 L 219.5200 158.0800 L 223.3600 158.0800 L 223.3600 154.2400 L 219.5200 154.2400 L 219.5200 150.4000 L 215.6800 150.4000 L 215.6800 154.2400 L 211.8400 154.2400 L 211.8400 150.4000 L 208.0000 150.4000 L 208.0000 154.2400 L 211.8400 154.2400 L 211.8400 158.0800 L 208.0000 158.0800 L 208.0000 161.9200 L 204.1600 161.9200 L 204.1600 158.0800 L 208.0000 158.0800 L 208.0000 154.2400 L 204.1600 154.2400 L 204.1600 150.4000 L 200.3200 150.4000 L 200.3200 154.2400 L 196.4800 154.2400 L 196.4800 150.4000 L 200.3200 150.4000 L 200.3200 146.5600 L 196.4800 146.5600 L 196.4800 142.7200 L 200.3200 142.7200 L 200.3200 138.8800 L 204.1600 138.8800 L 204.1600 142.7200 L 208.0000 142.7200 L 208.0000 138.8800 L 204.1600 138.8800 L 204.1600 135.0400 L 200.3200 135.0400 L 200.3200 138.8800 L 196.4800 138.8800 L 196.4800 135.0400 L 192.6400 135.0400 L 192.6400 138.8800 L 196.4800 138.8800 L 196.4800 142.7200 L 192.6400 142.7200 L 192.6400 146.5600 L 188.8000 146.5600 L 188.8000 142.7200 L 184.9600 142.7200 L 184.9600 146.5600 L 188.8000 146.5600 L 188.8000 150.4000 L 192.6400 150.4000 L 192.6400 146.5600 L 196.4800 146.5600 L 196.4800 150.4000 L 192.6400 150.4000 L 192.6400 154.2400 L 196.4800 154.2400 L 196.4800 158.0800 L 192.6400 158.0800 L 192.6400 161.9200 L 188.8000 161.9200 L 188.8000 158.0800 L 184.9600 158.0800 L 184.9600 161.9200 L 188.8000 161.9200 L 188.8000 165.7600 L 192.6400 165.7600 L 192.6400 161.9200 L 196.4800 161.9200 L 196.4800 165.7600 L 200.3200 165.7600 L 200.3200 161.9200 L 196.4800 161.9200 L 196.4800 158.0800 L 200.3200 158.0800 L 200.3200 154.2400 L 204.1600 154.2400 L 204.1600 158.0800 L 200.3200 158.0800 L 200.3200 161.9200 L 204.1600 161.9200 L 204.1600 165.7600 L 208.0000 165.7600 L 208.0000 161.9200 L 211.8400 161.9200 L 211.8400 165.7600 L 208.0000 165.7600 L 208.0000 169.6000 L 211.8400 169.6000 L 211.8400 173.4400 L 208.0000 173.4400 L 208.0000 177.2800 L 204.1600 177.2800 L 204.1600 173.4400 L 208.0000 173.4400 L 208.0000 169.6000 L 204.1600 169.6000 L 204.1600 165.7600 L 200.3200 165.7600 L 200.3200 169.6000 L 196.4800 169.6000 L 196.4800 165.7600 L 192.6400 165.7600 L 192.6400 169.6000 L 196.4800 169.6000 L 196.4800 173.4400 L 192.6400 173.4400 L 192.6400 177.2800 L 188.8000 177.2800 L 188.8000 173.4400 L 184.9600 173.4400 L 184.9600 177.2800 L 188.8000 177.2800 L 188.8000 181.1200 L 192.6400 181.1200 L 192.6400 177.2800 L 196.4800 177.2800 L 196.4800 181.1200 L 192.6400 181.1200 L 192.6400 184.9600 L 196.4800 184.9600 L 196.4800 188.8000 L 192.6400 188.8000 L 192.6400 192.6400 L 188.8000 192.6400 L 188.8000 188.8000 L 192.6400 188.8000 L 192.6400 184.9600 L 188.8000 184.9600 L 188.8000 181.1200 L 184.9600 181.1200 L 184.9600 184.9600 L 181.1200 184.9600 L 181.1200 181.1200 L 177.2800 181.1200 L 177.2800 184.9600 L 181.1200 184.9600 L 181.1200 188.8000 L 177.2800 188.8000 L 177.2800 192.6400 L 173.4400 192.6400 L 173.4400 188.8000 L 177.2800 188.8000 L 177.2800 184.9600 L 173.4400 184.9600 L 173.4400 181.1200 L 169.6000 181.1200 L 169.6000 184.9600 L 165.7600 184.9600 L 165.7600 181.1200 L 169.6000 181.1200 L 169.6000 177.2800 L 165.7600 177.2800 L 165.7600 173.4400 L 169.6000 173.4400 L 169.6000 169.6000 L 173.4400 169.6000 L 173.4400 173.4400 L 177.2800 173.4400 L 177.2800 169.6000 L 173.4400 169.6000 L 173.4400 165.7600 L 169.6000 165.7600 L 169.6000 169.6000 L 165.7600 169.6000 L 165.7600 165.7600 L 161.9200 165.7600 L 161.9200 169.6000 L 165.7600 169.6000 L 165.7600 173.4400 L 161.9200 173.4400 L 161.9200 177.2800 L 158.0800 177.2800 L 158.0800 173.4400 L 154.2400 173.4400 L 154.2400 177.2800 L 158.0800 177.2800 L 158.0800 181.1200 L 161.9200 181.1200 L 161.9200 177.2800 L 165.7600 177.2800 L 165.7600 181.1200 L 161.9200 181.1200 L 161.9200 184.9600 L 165.7600 184.9600 L 165.7600 188.8000 L 161.9200 188.8000 L 161.9200 192.6400 L 158.0800 192.6400 L 158.0800 188.8000 L 154.2400 188.8000 L 154.2400 192.6400 L 158.0800 192.6400 L 158.0800 196.4800 L 161.9200 196.4800 L 161.9200 192.6400 L 165.7600 192.6400 L 165.7600 196.4800 L 169.6000 196.4800 L 169.6000 192.6400 L 165.7600 192.6400 L 165.7600 188.8000 L 169.6000 188.8000 L 169.6000 184.9600 L 173.4400 184.9600 L 173.4400 188.8000 L 169.6000 188.8000 L 169.6000 192.6400 L 173.4400 192.6400 L 173.4400 196.4800 L 177.2800 196.4800 L 177.2800 192.6400 L 181.1200 192.6400 L 181.1200 196.4800 L 177.2800 196.4800 L 177.2800 200.3200 L 181.1200 200.3200 L 181.1200 204.1600 L 177.2800 204.1600 L 177.2800 208.0000 L 173.4400 208.0000 L 173.4400 204.1600 L 169.6000 204.1600 L 169.6000 208.0000 L 173.4400 208.0000 L 173.4400 211.8400 L 177.2800 211.8400 L 177.2800 208.0000 L 181.1200 208.0000 L 181.1200 211.8400 L 184.9600 211.8400 L 184.9600 208.0000 L 181.1200 208.0000 L 181.1200 204.1600 L 184.9600 204.1600 L 184.9600 200.3200 L 188.8000 200.3200 L 188.8000 204.1600 L 192.6400 204.1600 L 192.6400 200.3200 L 188.8000 200.3200 L 188.8000 196.4800 L 184.9600 196.4800 L 184.9600 200.3200 L 181.1200 200.3200 L 181.1200 196.4800 L 184.9600 196.4800 L 184.9600 192.6400 L 181.1200 192.6400 L 181.1200 188.8000 L 184.9600 188.8000 L 184.9600 184.9600 L 188.8000 184.9600 L 188.8000 188.8000 L 184.9600 188.8000 L 184.9600 192.6400 L 188.8000 192.6400 L 188.8000 196.4800 L 192.6400 196.4800 L 192.6400 192.6400 L 196.4800 192.6400 L 196.4800 196.4800 L 200.3200 196.4800 L 200.3200 192.6400 L 196.4800 192.6400 L 196.4800 188.8000 L 200.3200 188.8000 L 200.3200 184.9600 L 204.1600 184.9600 L 204.1600 188.8000 L 200.3200 188.8000 L 200.3200 192.6400 L 204.1600 192.6400 L 204.1600 196.4800 L 208.0000 196.4800 L 208.0000 192.6400 L 211.8400 192.6400 L 211.8400 196.4800 L 208.0000 196.4800 L 208.0000 200.3200 L 211.8400 200.3200 L 211.8400 204.1600 L 208.0000 204.1600 L 208.0000 208.0000 L 204.1600 208.0000 L 204.1600 204.1600 L 208.0000 204.1600 L 208.0000 200.3200 L 204.1600 200.3200 L 204.1600 196.4800 L 200.3200 196.4800 L 200.3200 200.3200 L 196.4800 200.3200 L 196.4800 196.4800 L 192.6400 196.4800 L 192.6400 200.3200 L 196.4800 200.3200 L 196.4800 204.1600 L 192.6400 204.1600 L 192.6400 208.0000 L 188.8000 208.0000 L 188.8000 204.1600 L 184.9600 204.1600 L 184.9600 208.0000 L 188.8000 208.0000 L 188.8000 211.8400 L 192.6400 211.8400 L 192.6400 208.0000 L 196.4800 208.0000 L 196.4800 211.8400 L 192.6400 211.8400 L 192.6400 215.6800 L 196.4800 215.6800 L 196.4800 219.5200 L 192.6400 219.5200 L 192.6400 223.3600 L 188.8000 223.3600 L 188.8000 219.5200 L 184.9600 219.5200 L 184.9600 223.3600 L 188.8000 223.3600 L 188.8000 227.2000 L 192.6400 227.2000 L 192.6400 223.3600 L 196.4800 223.3600 L 196.4800 227.2000 L 200.3200 227.2000 L 200.3200 223.3600 L 196.4800 223.3600 L 196.4800 219.5200 L 200.3200 219.5200 L 200.3200 215.6800 L 204.1600 215.6800 L 204.1600 219.5200 L 200.3200 219.5200 L 200.3200 223.3600 L 204.1600 223.3600 L 204.1600 227.2000 L 208.0000 227.2000 L 208.0000 223.3600 L 211.8400 223.3600 L 211.8400 227.2000 L 208.0000 227.2000 L 208.0000 231.0400 L 211.8400 231.0400 L 211.8400 234.8800 L 208.0000 234.8800 L 208.0000 238.7200 L 204.1600 238.7200 L 204.1600 234.8800 L 208.0000 234.8800 L 208.0000 231.0400 L 204.1600 231.0400 L 204.1600 227.2000 L 200.3200 227.2000 L 200.3200 231.0400 L 196.4800 231.0400 L 196.4800 227.2000 L 192.6400 227.2000 L 192.6400 231.0400 L 196.4800 231.0400 L 196.4800 234.8800 L 192.6400 234.8800 L 192.6400 238.7200 L 188.8000 238.7200 L 188.8000 234.8800 L 184.9600 234.8800 L 184.9600 238.7200 L 188.8000 238.7200 L 188.8000 242.5600 L 192.6400 242.5600 L 192.6400 238.7200 L 196.4800 238.7200 L 196.4800 242.5600 L 192.6400 242.5600 L 192.6400 246.4000 L 196.4800 246.4000 L 196.4800 250.2400 L 192.6400 250.2400 L 192.6400 254.0800 L 188.8000 254.0800 L 188.8000 250.2400 L 192.6400 250.2400 L 192.6400 246.4000 L 188.8000 246.4000 L 188.8000 242.5600 L 184.9600 242.5600 L 184.9600 246.4000 L 181.1200 246.4000 L 181.1200 242.5600 L 177.2800 242.5600 L 177.2800 246.4000 L 181.1200 246.4000 L 181.1200 250.2400 L 177.2800 250.2400 L 177.2800 254.0800 L 173.4400 254.0800 L 173.4400 250.2400 L 177.2800 250.2400 L 177.2800 246.4000 L 173.4400 246.4000 L 173.4400 242.5600 L 169.6000 242.5600 L 169.6000 246.4000 L 165.7600 246.4000 L 165.7600 242.5600 L 169.6000 242.5600 L 169.6000 238.7200 L 165.7600 238.7200 L 165.7600 234.8800 L 169.6000 234.8800 L 169.6000 231.0400 L 173.4400 231.0400 L 173.4400 234.8800 L 177.2800 234.8800 L 177.2800 231.0400 L 173.4400 231.0400 L 173.4400 227.2000 L 169.6000 227.2000 L 169.6000 231.0400 L 165.7600 231.0400 L 165.7600 227.2000 L 161.9200 227.2000 L 161.9200 231.0400 L 165.7600 231.0400 L 165.7600 234.8800 L 161.9200 234.8800 L 161.9200 238.7200 L 158.0800 238.7200 L 158.0800 234.8800 L 154.2400 234.8800 L 154.2400 238.7200 L 158.0800 238.7200 L 158.0800 242.5600 L 161.9200 242.5600 L 161.9200 238.7200 L 165.7600 238.7200 L 165.7600 242.5600 L 161.9200 242.5600 L 161.9200 246.4000 L 165.7600 246.4000 L 165.7600 250.2400 L 161.9200 250.2400 L 161.9200 254.0800 L 158.0800 254.0800 L 158.0800 250.2400 L 154.2400 250.2400 L 154.2400 254.0800 L 158.0800 254.0800 L 158.0800 257.9200 L 161.9200 257.9200 L 161.9200 254.0800 L 165.7600 254.0800 L 165.7600 257.9200 L 169.6000 257.9200 L 169.6000 254.0800 L 165.7600 254.0800 L 165.7600 250.2400 L 169.6000 250.2400 L 169.6000 246.4000 L 173.4400 246.4000 L 173.4400 250.2400 L 169.6000 250.2400 L 169.6000 254.0800 L 173.4400 254.0800 L 173.4400 257.9200 L 177.2800 257.9200 L 177.2800 254.0800 L 181.1200 254.0800 L 181.1200 257.9200 L 177.2800 257.9200 L 177.2800 261.7600 L 181.1200 261.7600 L 181.1200 265.6000 L 177.2800 265.6000 L 177.2800 269.4400 L 173.4400 269.4400 L 173.4400 265.6000 L 169.6000 265.6000 L 169.6000 269.4400 L 173.4400 269.4400 L 173.4400 273.2800 L 177.2800 273.2800 L 177.2800 269.4400 L 181.1200 269.4400 L 181.1200 273.2800 L 184.9600 273.2800 L 184.9600 269.4400 L 181.1200 269.4400 L 181.1200 265.6000 L 184.9600 265.6000 L 184.9600 261.7600 L 188.8000 261.7600 L 188.8000 265.6000 L 192.6400 265.6000 L 192.6400 261.7600 L 188.8000 261.7600 L 188.8000 257.9200 L 184.9600 257.9200 L 184.9600 261.7600 L 181.1200 261.7600 L 181.1200 257.9200 L 184.9600 257.9200 L 184.9600 254.0800 L 181.1200 254.0800 L 181.1200 250.2400 L 184.9600 250.2400 L 184.9600 246.4000 L 188.8000 246.4000 L 188.8000 250.2400 L 184.9600 250.2400 L 184.9600 254.0800 L 188.8000 254.0800 L 188.8000 257.9200 L 192.6400 257.9200 L 192.6400 254.0800 L 196.4800 254.0800 L 196.4800 257.9200 L 200.3200 257.9200 L 200.3200 254.0800 L 196.4800 254.0800 L 196.4800 250.2400 L 200.3200 250.2400 L 200.3200 246.4000 L 204.1600 246.4000 L 204.1600 250.2400 L 200.3200 250.2400 L 200.3200 254.0800 L 204.1600 254.0800 L 204.1600 257.9200 L 208.0000 257.9200 L 208.0000 254.0800 L 211.8400 254.0800 L 211.8400 257.9200 L 208.0000 257.9200 L 208.0000 261.7600 L 211.8400 261.7600 L 211.8400 265.6000 L 208.0000 265.6000 L 208.0000 269.4400 L 204.1600 269.4400 L 204.1600 265.6000 L 200.3200 265.6000 L 200.3200 269.4400 L 204.1600 269.4400 L 204.1600 273.2800 L 208.0000 273.2800 L 208.0000 269.4400 L 211.8400 269.4400 L 211.8400 273.2800 L 215.6800 273.2800 L 215.6800 269.4400 L 211.8400 269.4400 L 211.8400 265.6000 L 215.6800 265.6000 L 215.6800 261.7600 L 219.5200 261.7600 L 219.5200 265.6000 L 223.3600 265.6000 L 223.3600 261.7600 L 219.5200 261.7600 L 219.5200 257.9200 L 215.6800 257.9200 L 215.6800 261.7600 L 211.8400 261.7600 L 211.8400 257.9200 L 215.6800 257.9200 L 215.6800 254.0800 L 211.8400 254.0800 L 211.8400 250.2400 L 215.6800 250.2400 L 215.6800 246.4000 L 219.5200 246.4000 L 219.5200 250.2400 L 223.3600 250.2400 L 223.3600 246.4000 L 219.5200 246.4000 L 219.5200 242.5600 L 215.6800 242.5600 L 215.6800 246.4000 L 211.8400 246.4000 L 211.8400 242.5600 L 208.0000 242.5600 L 208.0000 246.4000 L 211.8400 246.4000 L 211.8400 250.2400 L 208.0000 250.2400 L 208.0000 254.0800 L 204.1600 254.0800 L 204.1600 250.2400 L 208.0000 250.2400 L 208.0000 246.4000 L 204.1600 246.4000 L 204.1600 242.5600 L 200.3200 242.5600 L 200.3200 246.4000 L 196.4800 246.4000 L 196.4800 242.5600 L 200.3200 242.5600 L 200.3200 238.7200 L 196.4800 238.7200 L 196.4800 234.8800 L 200.3200 234.8800 L 200.3200 231.0400 L 204.1600 231.0400 L 204.1600 234.8800 L 200.3200 234.8800 L 200.3200 238.7200 L 204.1600 238.7200 L 204.1600 242.5600 L 208.0000 242.5600 L 208.0000 238.7200 L 211.8400 238.7200 L 211.8400 242.5600 L 215.6800 242.5600 L 215.6800 238.7200 L 211.8400 238.7200 L 211.8400 234.8800 L 215.6800 234.8800 L 215.6800 231.0400 L 219.5200 231.0400 L 219.5200 234.8800 L 223.3600 234.8800 L 223.3600 231.0400 L 219.5200 231.0400 L 219.5200 227.2000 L 215.6800 227.2000 L 215.6800 231.0400 L 211.8400 231.0400 L 211.8400 227.2000 L 215.6800 227.2000 L 215.6800 223.3600 L 211.8400 223.3600 L 211.8400 219.5200 L 215.6800 219.5200 L 215.6800 215.6800 L 219.5200 215.6800 L 219.5200 219.5200 L 215.6800 219.5200 L 215.6800 223.3600 L 219.5200 223.3600 L 219.5200 227.2000 L 223.3600 227.2000 L 223.3600 223.3600 L 227.2000 223.3600 L 227.2000 227.2000 L 231.0400 227.2000 L 231.0400 223.3600 L 227.2000 223.3600 L 227.2000 219.5200 L 231.0400 219.5200 L 231.0400 215.6800 L 234.8800 215.6800 L 234.8800 219.5200 L 231.0400 219.5200 L 231.0400 223.3600 L 234.8800 223.3600 L 234.8800 227.2000 L 238.7200 227.2000 L 238.7200 223.3600 L 242.5600 223.3600 L 242.5600 227.2000 L 238.7200 227.2000 L 238.7200 231.0400 L 242.5600 231.0400 L 242.5600 234.8800 L 238.7200 234.8800 L 238.7200 238.7200 L 234.8800 238.7200 L 234.8800 234.8800 L 238.7200 234.8800 L 238.7200 231.0400 L 234.8800 231.0400 L 234.8800 227.2000 L 231.0400 227.2000 L 231.0400 231.0400 L 227.2000 231.0400 L 227.2000 227.2000 L 223.3600 227.2000 L 223.3600 231.0400 L 227.2000 231.0400 L 227.2000 234.8800 L 223.3600 234.8800 L 223.3600 238.7200 L 219.5200 238.7200 L 219.5200 234.8800 L 215.6800 234.8800 L 215.6800 238.7200 L 219.5200 238.7200 L 219.5200 242.5600 L 223.3600 242.5600 L 223.3600 238.7200 L 227.2000 238.7200 L 227.2000 242.5600 L 223.3600 242.5600 L 223.3600 246.4000 L 227.2000 246.4000 L 227.2000 250.2400 L 223.3600 250.2400 L 223.3600 254.0800 L 219.5200 254.0800 L 219.5200 250.2400 L 215.6800 250.2400 L 215.6800 254.0800 L 219.5200 254.0800 L 219.5200 257.9200 L 223.3600 257.9200 L 223.3600 254.0800 L 227.2000 254.0800 L 227.2000 257.9200 L 231.0400 257.9200 L 231.0400 254.0800 L 227.2000 254.0800 L 227.2000 250.2400 L 231.0400 250.2400 L 231.0400 246.4000 L 234.8800 246.4000 L 234.8800 250.2400 L 231.0400 250.2400 L 231.0400 254.0800 L 234.8800 254.0800 L 234.8800 257.9200 L 238.7200 257.9200 L 238.7200 254.0800 L 242.5600 254.0800 L 242.5600 257.9200 L 238.7200 257.9200 L 238.7200 261.7600 L 242.5600 261.7600 L 242.5600 265.6000 L 238.7200 265.6000 L 238.7200 269.4400 L 234.8800 269.4400 L 234.8800 265.6000 L 231.0400 265.6000 L 231.0400 269.4400 L 234.8800 269.4400 L 234.8800 273.2800 L 238.7200 273.2800 L 238.7200 269.4400 L 242.5600 269.4400 L 242.5600 273.2800 L 246.4000 273.2800 L 246.4000 269.4400 L 242.5600 269.4400 L 242.5600 265.6000 L 246.4000 265.6000 L 246.4000 261.7600 L 250.2400 261.7600 L 250.2400 265.6000 L 254.0800 265.6000 L 254.0800 261.7600 L 250.2400 261.7600 L 250.2400 257.9200 L 246.4000 257.9200 L 246.4000 261.7600 L 242.5600 261.7600 L 242.5600 257.9200 L 246.4000 257.9200 L 246.4000 254.0800 L 242.5600 254.0800 L 242.5600 250.2400 L 246.4000 250.2400 L 246.4000 246.4000 L 250.2400 246.4000 L 250.2400 250.2400 L 246.4000 250.2400 L 246.4000 254.0800 L 250.2400 254.0800 L 250.2400 257.9200 L 254.0800 257.9200 L 254.0800 254.0800 L 257.9200 254.0800 L 257.9200 257.9200 L 261.7600 257.9200 L 261.7600 254.0800 L 257.9200 254.0800 L 257.9200 250.2400 L 261.7600 250.2400 L 261.7600 246.4000 L 265.6000 246.4000 L 265.6000 250.2400 L 261.7600 250.2400 L 261.7600 254.0800 L 265.6000 254.0800 L 265.6000 257.9200 L 269.4400 257.9200 L 269.4400 254.0800 L 273.2800 254.0800 L 273.2800 257.9200 L 269.4400 257.9200 L 269.4400 261.7600 L 273.2800 261.7600 L 273.2800 265.6000 L 269.4400 265.6000 L 269.4400 269.4400 L 265.6000 269.4400 L 265.6000 265.6000 L 269.4400 265.6000 L 269.4400 261.7600 L 265.6000 261.7600 L 265.6000 257.9200 L 261.7600 257.9200 L 261.7600 261.7600 L 257.9200 261.7600 L 257.9200 257.9200 L 254.0800 257.9200 L 254.0800 261.7600 L 257.9200 261.7600 L 257.9200 265.6000 L 254.0800 265.6000 L 254.0800 269.4400 L 250.2400 269.4400 L 250.2400 265.6000 L 246.4000 265.6000 L 246.4000 269.4400 L 250.2400 269.4400 L 250.2400 273.2800 L 254.0800 273.2800 L 254.0800 269.4400 L 257.9200 269.4400 L 257.9200 273.2800 L 254.0800 273.2800 L 254.0800 277.1200 L 257.9200 277.1200 L 257.9200 280.9600 L 254.0800 280.9600 L 254.0800 284.8000 L 250.2400 284.8000 L 250.2400 280.9600 L 246.4000 280.9600 L 246.4000 284.8000 L 250.2400 284.8000 L 250.2400 288.6400 L 254.0800 288.6400 L 254.0800 284.8000 L 257.9200 284.8000 L 257.9200 288.6400 L 261.7600 288.6400 L 261.7600 284.8000 L 257.9200 284.8000 L 257.9200 280.9600 L 261.7600 280.9600 L 261.7600 277.1200 L 265.6000 277.1200 L 265.6000 280.9600 L 261.7600 280.9600 L 261.7600 284.8000 L 265.6000 284.8000 L 265.6000 288.6400 L 269.4400 288.6400 L 269.4400 284.8000 L 273.2800 284.8000 L 273.2800 288.6400 L 269.4400 288.6400 L 269.4400 292.4800 L 273.2800 292.4800 L 273.2800 296.3200 L 269.4400 296.3200 L 269.4400 300.1600 L 265.6000 300.1600 L 265.6000 296.3200 L 269.4400 296.3200 L 269.4400 292.4800 L 265.6000 292.4800 L 265.6000 288.6400 L 261.7600 288.6400 L 261.7600 292.4800 L 257.9200 292.4800 L 257.9200 288.6400 L 254.0800 288.6400 L 254.0800 292.4800 L 257.9200 292.4800 L 257.9200 296.3200 L 254.0800 296.3200 L 254.0800 300.1600 L 250.2400 300.1600 L 250.2400 296.3200 L 246.4000 296.3200 L 246.4000 300.1600 L 250.2400 300.1600 L 250.2400 304.0000 L 254.0800 304.0000 L 254.0800 300.1600 L 257.9200 300.1600 L 257.9200 304.0000 L 254.0800 304.0000 L 254.0800 307.8400 L 257.9200 307.8400 L 257.9200 311.6800 L 254.0800 311.6800 L 254.0800 315.5200 L 250.2400 315.5200 L 250.2400 311.6800 L 254.0800 311.6800 L 254.0800 307.8400 L 250.2400 307.8400 L 250.2400 304.0000 L 246.4000 304.0000 L 246.4000 307.8400 L 242.5600 307.8400 L 242.5600 304.0000 L 238.7200 304.0000 L 238.7200 307.8400 L 242.5600 307.8400 L 242.5600 311.6800 L 238.7200 311.6800 L 238.7200 315.5200 L 234.8800 315.5200 L 234.8800 311.6800 L 238.7200 311.6800 L 238.7200 307.8400 L 234.8800 307.8400 L 234.8800 304.0000 L 231.0400 304.0000 L 231.0400 307.8400 L 227.2000 307.8400 L 227.2000 304.0000 L 231.0400 304.0000 L 231.0400 300.1600 L 227.2000 300.1600 L 227.2000 296.3200 L 231.0400 296.3200 L 231.0400 292.4800 L 234.8800 292.4800 L 234.8800 296.3200 L 231.0400 296.3200 L 231.0400 300.1600 L 234.8800 300.1600 L 234.8800 304.0000 L 238.7200 304.0000 L 238.7200 300.1600 L 242.5600 300.1600 L 242.5600 304.0000 L 246.4000 304.0000 L 246.4000 300.1600 L 242.5600 300.1600 L 242.5600 296.3200 L 246.4000 296.3200 L 246.4000 292.4800 L 250.2400 292.4800 L 250.2400 296.3200 L 254.0800 296.3200 L 254.0800 292.4800 L 250.2400 292.4800 L 250.2400 288.6400 L 246.4000 288.6400 L 246.4000 292.4800 L 242.5600 292.4800 L 242.5600 288.6400 L 246.4000 288.6400 L 246.4000 284.8000 L 242.5600 284.8000 L 242.5600 280.9600 L 246.4000 280.9600 L 246.4000 277.1200 L 250.2400 277.1200 L 250.2400 280.9600 L 254.0800 280.9600 L 254.0800 277.1200 L 250.2400 277.1200 L 250.2400 273.2800 L 246.4000 273.2800 L 246.4000 277.1200 L 242.5600 277.1200 L 242.5600 273.2800 L 238.7200 273.2800 L 238.7200 277.1200 L 242.5600 277.1200 L 242.5600 280.9600 L 238.7200 280.9600 L 238.7200 284.8000 L 234.8800 284.8000 L 234.8800 280.9600 L 238.7200 280.9600 L 238.7200 277.1200 L 234.8800 277.1200 L 234.8800 273.2800 L 231.0400 273.2800 L 231.0400 277.1200 L 227.2000 277.1200 L 227.2000 273.2800 L 231.0400 273.2800 L 231.0400 269.4400 L 227.2000 269.4400 L 227.2000 265.6000 L 231.0400 265.6000 L 231.0400 261.7600 L 234.8800 261.7600 L 234.8800 265.6000 L 238.7200 265.6000 L 238.7200 261.7600 L 234.8800 261.7600 L 234.8800 257.9200 L 231.0400 257.9200 L 231.0400 261.7600 L 227.2000 261.7600 L 227.2000 257.9200 L 223.3600 257.9200 L 223.3600 261.7600 L 227.2000 261.7600 L 227.2000 265.6000 L 223.3600 265.6000 L 223.3600 269.4400 L 219.5200 269.4400 L 219.5200 265.6000 L 215.6800 265.6000 L 215.6800 269.4400 L 219.5200 269.4400 L 219.5200 273.2800 L 223.3600 273.2800 L 223.3600 269.4400 L 227.2000 269.4400 L 227.2000 273.2800 L 223.3600 273.2800 L 223.3600 277.1200 L 227.2000 277.1200 L 227.2000 280.9600 L 223.3600 280.9600 L 223.3600 284.8000 L 219.5200 284.8000 L 219.5200 280.9600 L 223.3600 280.9600 L 223.3600 277.1200 L 219.5200 277.1200 L 219.5200 273.2800 L 215.6800 273.2800 L 215.6800 277.1200 L 211.8400 277.1200 L 211.8400 273.2800 L 208.0000 273.2800 L 208.0000 277.1200 L 211.8400 277.1200 L 211.8400 280.9600 L 208.0000 280.9600 L 208.0000 284.8000 L 204.1600 284.8000 L 204.1600 280.9600 L 208.0000 280.9600 L 208.0000 277.1200 L 204.1600 277.1200 L 204.1600 273.2800 L 200.3200 273.2800 L 200.3200 277.1200 L 196.4800 277.1200 L 196.4800 273.2800 L 200.3200 273.2800 L 200.3200 269.4400 L 196.4800 269.4400 L 196.4800 265.6000 L 200.3200 265.6000 L 200.3200 261.7600 L 204.1600 261.7600 L 204.1600 265.6000 L 208.0000 265.6000 L 208.0000 261.7600 L 204.1600 261.7600 L 204.1600 257.9200 L 200.3200 257.9200 L 200.3200 261.7600 L 196.4800 261.7600 L 196.4800 257.9200 L 192.6400 257.9200 L 192.6400 261.7600 L 196.4800 261.7600 L 196.4800 265.6000 L 192.6400 265.6000 L 192.6400 269.4400 L 188.8000 269.4400 L 188.8000 265.6000 L 184.9600 265.6000 L 184.9600 269.4400 L 188.8000 269.4400 L 188.8000 273.2800 L 192.6400 273.2800 L 192.6400 269.4400 L 196.4800 269.4400 L 196.4800 273.2800 L 192.6400 273.2800 L 192.6400 277.1200 L 196.4800 277.1200 L 196.4800 280.9600 L 192.6400 280.9600 L 192.6400 284.8000 L 188.8000 284.8000 L 188.8000 280.9600 L 184.9600 280.9600 L 184.9600 284.8000 L 188.8000 284.8000 L 188.8000 288.6400 L 192.6400 288.6400 L 192.6400 284.8000 L 196.4800 284.8000 L 196.4800 288.6400 L 200.3200 288.6400 L 200.3200 284.8000 L 196.4800 284.8000 L 196.4800 280.9600 L 200.3200 280.9600 L 200.3200 277.1200 L 204.1600 277.1200 L 204.1600 280.9600 L 200.3200 280.9600 L 200.3200 284.8000 L 204.1600 284.8000 L 204.1600 288.6400 L 208.0000 288.6400 L 208.0000 284.8000 L 211.8400 284.8000 L 211.8400 288.6400 L 208.0000 288.6400 L 208.0000 292.4800 L 211.8400 292.4800 L 211.8400 296.3200 L 208.0000 296.3200 L 208.0000 300.1600 L 204.1600 300.1600 L 204.1600 296.3200 L 208.0000 296.3200 L 208.0000 292.4800 L 204.1600 292.4800 L 204.1600 288.6400 L 200.3200 288.6400 L 200.3200 292.4800 L 196.4800 292.4800 L 196.4800 288.6400 L 192.6400 288.6400 L 192.6400 292.4800 L 196.4800 292.4800 L 196.4800 296.3200 L 192.6400 296.3200 L 192.6400 300.1600 L 188.8000 300.1600 L 188.8000 296.3200 L 184.9600 296.3200 L 184.9600 300.1600 L 188.8000 300.1600 L 188.8000 304.0000 L 192.6400 304.0000 L 192.6400 300.1600 L 196.4800 300.1600 L 196.4800 304.0000 L 192.6400 304.0000 L 192.6400 307.8400 L 196.4800 307.8400 L 196.4800 311.6800 L 192.6400 311.6800 L 192.6400 315.5200 L 188.8000 315.5200 L 188.8000 311.6800 L 192.6400 311.6800 L 192.6400 307.8400 L 188.8000 307.8400 L 188.8000 304.0000 L 184.9600 304.0000 L 184.9600 307.8400 L 181.1200 307.8400 L 181.1200 304.0000 L 177.2800 304.0000 L 177.2800 307.8400 L 181.1200 307.8400 L 181.1200 311.6800 L 177.2800 311.6800 L 177.2800 315.5200 L 173.4400 315.5200 L 173.4400 311.6800 L 177.2800 311.6800 L 177.2800 307.8400 L 173.4400 307.8400 L 173.4400 304.0000 L 169.6000 304.0000 L 169.6000 307.8400 L 165.7600 307.8400 L 165.7600 304.0000 L 169.6000 304.0000 L 169.6000 300.1600 L 165.7600 300.1600 L 165.7600 296.3200 L 169.6000 296.3200 L 169.6000 292.4800 L 173.4400 292.4800 L 173.4400 296.3200 L 177.2800 296.3200 L 177.2800 292.4800 L 173.4400 292.4800 L 173.4400 288.6400 L 169.6000 288.6400 L 169.6000 292.4800 L 165.7600 292.4800 L 165.7600 288.6400 L 161.9200 288.6400 L 161.9200 292.4800 L 165.7600 292.4800 L 165.7600 296.3200 L 161.9200 296.3200 L 161.9200 300.1600 L 158.0800 300.1600 L 158.0800 296.3200 L 154.2400 296.3200 L 154.2400 300.1600 L 158.0800 300.1600 L 158.0800 304.0000 L 161.9200 304.0000 L 161.9200 300.1600 L 165.7600 300.1600 L 165.7600 304.0000 L 161.9200 304.0000 L 161.9200 307.8400 L 165.7600 307.8400 L 165.7600 311.6800 L 161.9200 311.6800 L 161.9200 315.5200 L 158.0800 315.5200 L 158.0800 311.6800 L 154.2400 311.6800 L 154.2400 315.5200 L 158.0800 315.5200 L 158.0800 319.3600 L 161.9200 319.3600 L 161.9200 315.5200 L 165.7600 315.5200 L 165.7600 319.3600 L 169.6000 319.3600 L 169.6000 315.5200 L 165.7600 315.5200 L 165.7600 311.6800 L 169.6000 311.6800 L 169.6000 307.8400 L 173.4400 307.8400 L 173.4400 311.6800 L 169.6000 311.6800 L 169.6000 315.5200 L 173.4400 315.5200 L 173.4400 319.3600 L 177.2800 319.3600 L 177.2800 315.5200 L 181.1200 315.5200 L 181.1200 319.3600 L 177.2800 319.3600 L 177.2800 323.2000 L 181.1200 323.2000 L 181.1200 327.0400 L 177.2800 327.0400 L 177.2800 330.8800 L 173.4400 330.8800 L 173.4400 327.0400 L 169.6000 327.0400 L 169.6000 330.8800 L 173.4400 330.8800 L 173.4400 334.7200 L 177.2800 334.7200 L 177.2800 330.8800 L 181.1200 330.8800 L 181.1200 334.7200 L 184.9600 334.7200 L 184.9600 330.8800 L 181.1200 330.8800 L 181.1200 327.0400 L 184.9600 327.0400 L 184.9600 323.2000 L 188.8000 323.2000 L 188.8000 327.0400 L 192.6400 327.0400 L 192.6400 323.2000 L 188.8000 323.2000 L 188.8000 319.3600 L 184.9600 319.3600 L 184.9600 323.2000 L 181.1200 323.2000 L 181.1200 319.3600 L 184.9600 319.3600 L 184.9600 315.5200 L 181.1200 315.5200 L 181.1200 311.6800 L 184.9600 311.6800 L 184.9600 307.8400 L 188.8000 307.8400 L 188.8000 311.6800 L 184.9600 311.6800 L 184.9600 315.5200 L 188.8000 315.5200 L 188.8000 319.3600 L 192.6400 319.3600 L 192.6400 315.5200 L 196.4800 315.5200 L 196.4800 319.3600 L 200.3200 319.3600 L 200.3200 315.5200 L 196.4800 315.5200 L 196.4800 311.6800 L 200.3200 311.6800 L 200.3200 307.8400 L 204.1600 307.8400 L 204.1600 311.6800 L 200.3200 311.6800 L 200.3200 315.5200 L 204.1600 315.5200 L 204.1600 319.3600 L 208.0000 319.3600 L 208.0000 315.5200 L 211.8400 315.5200 L 211.8400 319.3600 L 208.0000 319.3600 L 208.0000 323.2000 L 211.8400 323.2000 L 211.8400 327.0400 L 208.0000 327.0400 L 208.0000 330.8800 L 204.1600 330.8800 L 204.1600 327.0400 L 208.0000 327.0400 L 208.0000 323.2000 L 204.1600 323.2000 L 204.1600 319.3600 L 200.3200 319.3600 L 200.3200 323.2000 L 196.4800 323.2000 L 196.4800 319.3600 L 192.6400 319.3600 L 192.6400 323.2000 L 196.4800 323.2000 L 196.4800 327.0400 L 192.6400 327.0400 L 192.6400 330.8800 L 188.8000 330.8800 L 188.8000 327.0400 L 184.9600 327.0400 L 184.9600 330.8800 L 188.8000 330.8800 L 188.8000 334.7200 L 192.6400 334.7200 L 192.6400 330.8800 L 196.4800 330.8800 L 196.4800 334.7200 L 192.6400 334.7200 L 192.6400 338.5600 L 196.4800 338.5600 L 196.4800 342.4000 L 192.6400 342.4000 L 192.6400 346.2400 L 188.8000 346.2400 L 188.8000 342.4000 L 184.9600 342.4000 L 184.9600 346.2400 L 188.8000 346.2400 L 188.8000 350.0800 L 192.6400 350.0800 L 192.6400 346.2400 L 196.4800 346.2400 L 196.4800 350.0800 L 200.3200 350.0800 L 200.3200 346.2400 L 196.4800 346.2400 L 196.4800 342.4000 L 200.3200 342.4000 L 200.3200 338.5600 L 204.1600 338.5600 L 204.1600 342.4000 L 200.3200 342.4000 L 200.3200 346.2400 L 204.1600 346.2400 L 204.1600 350.0800 L 208.0000 350.0800 L 208.0000 346.2400 L 211.8400 346.2400 L 211.8400 350.0800 L 208.0000 350.0800 L 208.0000 353.9200 L 211.8400 353.9200 L 211.8400 357.7600 L 208.0000 357.7600 L 208.0000 361.6000 L 204.1600 361.6000 L 204.1600 357.7600 L 208.0000 357.7600 L 208.0000 353.9200 L 204.1600 353.9200 L 204.1600 350.0800 L 200.3200 350.0800 L 200.3200 353.9200 L 196.4800 353.9200 L 196.4800 350.0800 L 192.6400 350.0800 L 192.6400 353.9200 L 196.4800 353.9200 L 196.4800 357.7600 L 192.6400 357.7600 L 192.6400 361.6000 L 188.8000 361.6000 L 188.8000 357.7600 L 184.9600 357.7600 L 184.9600 361.6000 L 188.8000 361.6000 L 188.8000 365.4400 L 192.6400 365.4400 L 192.6400 361.6000 L 196.4800 361.6000 L 196.4800 365.4400 L 192.6400 365.4400 L 192.6400 369.2800 L 196.4800 369.2800 L 196.4800 373.1200 L 192.6400 373.1200 L 192.6400 376.9600 L 188.8000 376.9600 L 188.8000 373.1200 L 192.6400 373.1200 L 192.6400 369.2800 L 188.8000 369.2800 L 188.8000 365.4400 L 184.9600 365.4400 L 184.9600 369.2800 L 181.1200 369.2800 L 181.1200 365.4400 L 177.2800 365.4400 L 177.2800 369.2800 L 181.1200 369.2800 L 181.1200 373.1200 L 177.2800 373.1200 L 177.2800 376.9600 L 173.4400 376.9600 L 173.4400 373.1200 L 177.2800 373.1200 L 177.2800 369.2800 L 173.4400 369.2800 L 173.4400 365.4400 L 169.6000 365.4400 L 169.6000 369.2800 L 165.7600 369.2800 L 165.7600 365.4400 L 169.6000 365.4400 L 169.6000 361.6000 L 165.7600 361.6000 L 165.7600 357.7600 L 169.6000 357.7600 L 169.6000 353.9200 L 173.4400 353.9200 L 173.4400 357.7600 L 169.6000 357.7600 L 169.6000 361.6000 L 173.4400 361.6000 L 173.4400 365.4400 L 177.2800 365.4400 L 177.2800 361.6000 L 181.1200 361.6000 L 181.1200 365.4400 L 184.9600 365.4400 L 184.9600 361.6000 L 181.1200 361.6000 L 181.1200 357.7600 L 184.9600 357.7600 L 184.9600 353.9200 L 188.8000 353.9200 L 188.8000 357.7600 L 192.6400 357.7600 L 192.6400 353.9200 L 188.8000 353.9200 L 188.8000 350.0800 L 184.9600 350.0800 L 184.9600 353.9200 L 181.1200 353.9200 L 181.1200 350.0800 L 184.9600 350.0800 L 184.9600 346.2400 L 181.1200 346.2400 L 181.1200 342.4000 L 184.9600 342.4000 L 184.9600 338.5600 L 188.8000 338.5600 L 188.8000 342.4000 L 192.6400 342.4000 L 192.6400 338.5600 L 188.8000 338.5600 L 188.8000 334.7200 L 184.9600 334.7200 L 184.9600 338.5600 L 181.1200 338.5600 L 181.1200 334.7200 L 177.2800 334.7200 L 177.2800 338.5600 L 181.1200 338.5600 L 181.1200 342.4000 L 177.2800 342.4000 L 177.2800 346.2400 L 173.4400 346.2400 L 173.4400 342.4000 L 177.2800 342.4000 L 177.2800 338.5600 L 173.4400 338.5600 L 173.4400 334.7200 L 169.6000 334.7200 L 169.6000 338.5600 L 165.7600 338.5600 L 165.7600 334.7200 L 169.6000 334.7200 L 169.6000 330.8800 L 165.7600 330.8800 L 165.7600 327.0400 L 169.6000 327.0400 L 169.6000 323.2000 L 173.4400 323.2000 L 173.4400 327.0400 L 177.2800 327.0400 L 177.2800 323.2000 L 173.4400 323.2000 L 173.4400 319.3600 L 169.6000 319.3600 L 169.6000 323.2000 L 165.7600 323.2000 L 165.7600 319.3600 L 161.9200 319.3600 L 161.9200 323.2000 L 165.7600 323.2000 L 165.7600 327.0400 L 161.9200 327.0400 L 161.9200 330.8800 L 158.0800 330.8800 L 158.0800 327.0400 L 154.2400 327.0400 L 154.2400 330.8800 L 158.0800 330.8800 L 158.0800 334.7200 L 161.9200 334.7200 L 161.9200 330.8800 L 165.7600 330.8800 L 165.7600 334.7200 L 161.9200 334.7200 L 161.9200 338.5600 L 165.7600 338.5600 L 165.7600 342.4000 L 161.9200 342.4000 L 161.9200 346.2400 L 158.0800 346.2400 L 158.0800 342.4000 L 161.9200 342.4000 L 161.9200 338.5600 L 158.0800 338.5600 L 158.0800 334.7200 L 154.2400 334.7200 L 154.2400 338.5600 L 150.4000 338.5600 L 150.4000 334.7200 L 146.5600 334.7200 L 146.5600 338.5600 L 150.4000 338.5600 L 150.4000 342.4000 L 146.5600 342.4000 L 146.5600 346.2400 L 142.7200 346.2400 L 142.7200 342.4000 L 146.5600 342.4000 L 146.5600 338.5600 L 142.7200 338.5600 L 142.7200 334.7200 L 138.8800 334.7200 L 138.8800 338.5600 L 135.0400 338.5600 L 135.0400 334.7200 L 138.8800 334.7200 L 138.8800 330.8800 L 135.0400 330.8800 L 135.0400 327.0400 L 138.8800 327.0400 L 138.8800 323.2000 L 142.7200 323.2000 L 142.7200 327.0400 L 146.5600 327.0400 L 146.5600 323.2000 L 142.7200 323.2000 L 142.7200 319.3600 L 138.8800 319.3600 L 138.8800 323.2000 L 135.0400 323.2000 L 135.0400 319.3600 L 131.2000 319.3600 L 131.2000 323.2000 L 135.0400 323.2000 L 135.0400 327.0400 L 131.2000 327.0400 L 131.2000 330.8800 L 127.3600 330.8800 L 127.3600 327.0400 L 123.5200 327.0400 L 123.5200 330.8800 L 127.3600 330.8800 L 127.3600 334.7200 L 131.2000 334.7200 L 131.2000 330.8800 L 135.0400 330.8800 L 135.0400 334.7200 L 131.2000 334.7200 L 131.2000 338.5600 L 135.0400 338.5600 L 135.0400 342.4000 L 131.2000 342.4000 L 131.2000 346.2400 L 127.3600 346.2400 L 127.3600 342.4000 L 123.5200 342.4000 L 123.5200 346.2400 L 127.3600 346.2400 L 127.3600 350.0800 L 131.2000 350.0800 L 131.2000 346.2400 L 135.0400 346.2400 L 135.0400 350.0800 L 138.8800 350.0800 L 138.8800 346.2400 L 135.0400 346.2400 L 135.0400 342.4000 L 138.8800 342.4000 L 138.8800 338.5600 L 142.7200 338.5600 L 142.7200 342.4000 L 138.8800 342.4000 L 138.8800 346.2400 L 142.7200 346.2400 L 142.7200 350.0800 L 146.5600 350.0800 L 146.5600 346.2400 L 150.4000 346.2400 L 150.4000 350.0800 L 146.5600 350.0800 L 146.5600 353.9200 L 150.4000 353.9200 L 150.4000 357.7600 L 146.5600 357.7600 L 146.5600 361.6000 L 142.7200 361.6000 L 142.7200 357.7600 L 146.5600 357.7600 L 146.5600 353.9200 L 142.7200 353.9200 L 142.7200 350.0800 L 138.8800 350.0800 L 138.8800 353.9200 L 135.0400 353.9200 L 135.0400 350.0800 L 131.2000 350.0800 L 131.2000 353.9200 L 135.0400 353.9200 L 135.0400 357.7600 L 131.2000 357.7600 L 131.2000 361.6000 L 127.3600 361.6000 L 127.3600 357.7600 L 123.5200 357.7600 L 123.5200 361.6000 L 127.3600 361.6000 L 127.3600 365.4400 L 131.2000 365.4400 L 131.2000 361.6000 L 135.0400 361.6000 L 135.0400 365.4400 L 131.2000 365.4400 L 131.2000 369.2800 L 135.0400 369.2800 L 135.0400 373.1200 L 131.2000 373.1200 L 131.2000 376.9600 L 127.3600 376.9600 L 127.3600 373.1200 L 131.2000 373.1200 L 131.2000 369.2800 L 127.3600 369.2800 L 127.3600 365.4400 L 123.5200 365.4400 L 123.5200 369.2800 L 119.6800 369.2800 L 119.6800 365.4400 L 115.8400 365.4400 L 115.8400 369.2800 L 119.6800 369.2800 L 119.6800 373.1200 L 115.8400 373.1200 L 115.8400 376.9600 L 112.0000 376.9600 L 112.0000 373.1200 L 115.8400 373.1200 L 115.8400 369.2800 L 112.0000 369.2800 L 112.0000 365.4400 L 108.1600 365.4400 L 108.1600 369.2800 L 104.3200 369.2800 L 104.3200 365.4400 L 108.1600 365.4400 L 108.1600 361.6000 L 104.3200 361.6000 L 104.3200 357.7600 L 108.1600 357.7600 L 108.1600 353.9200 L 112.0000 353.9200 L 112.0000 357.7600 L 108.1600 357.7600 L 108.1600 361.6000 L 112.0000 361.6000 L 112.0000 365.4400 L 115.8400 365.4400 L 115.8400 361.6000 L 119.6800 361.6000 L 119.6800 365.4400 L 123.5200 365.4400 L 123.5200 361.6000 L 119.6800 361.6000 L 119.6800 357.7600 L 123.5200 357.7600 L 123.5200 353.9200 L 127.3600 353.9200 L 127.3600 357.7600 L 131.2000 357.7600 L 131.2000 353.9200 L 127.3600 353.9200 L 127.3600 350.0800 L 123.5200 350.0800 L 123.5200 353.9200 L 119.6800 353.9200 L 119.6800 350.0800 L 123.5200 350.0800 L 123.5200 346.2400 L 119.6800 346.2400 L 119.6800 342.4000 L 123.5200 342.4000 L 123.5200 338.5600 L 127.3600 338.5600 L 127.3600 342.4000 L 131.2000 342.4000 L 131.2000 338.5600 L 127.3600 338.5600 L 127.3600 334.7200 L 123.5200 334.7200 L 123.5200 338.5600 L 119.6800 338.5600 L 119.6800 334.7200 L 115.8400 334.7200 L 115.8400 338.5600 L 119.6800 338.5600 L 119.6800 342.4000 L 115.8400 342.4000 L 115.8400 346.2400 L 112.0000 346.2400 L 112.0000 342.4000 L 115.8400 342.4000 L 115.8400 338.5600 L 112.0000 338.5600 L 112.0000 334.7200 L 108.1600 334.7200 L 108.1600 338.5600 L 104.3200 338.5600 L 104.3200 334.7200 L 108.1600 334.7200 L 108.1600 330.8800 L 104.3200 330.8800 L 104.3200 327.0400 L 108.1600 327.0400 L 108.1600 323.2000 L 112.0000 323.2000 L 112.0000 327.0400 L 115.8400 327.0400 L 115.8400 323.2000 L 112.0000 323.2000 L 112.0000 319.3600 L 108.1600 319.3600 L 108.1600 323.2000 L 104.3200 323.2000 L 104.3200 319.3600 L 100.4800 319.3600 L 100.4800 323.2000 L 104.3200 323.2000 L 104.3200 327.0400 L 100.4800 327.0400 L 100.4800 330.8800 L 96.6400 330.8800 L 96.6400 327.0400 L 92.8000 327.0400 L 92.8000 330.8800 L 96.6400 330.8800 L 96.6400 334.7200 L 100.4800 334.7200 L 100.4800 330.8800 L 104.3200 330.8800 L 104.3200 334.7200 L 100.4800 334.7200 L 100.4800 338.5600 L 104.3200 338.5600 L 104.3200 342.4000 L 100.4800 342.4000 L 100.4800 346.2400 L 96.6400 346.2400 L 96.6400 342.4000 L 100.4800 342.4000 L 100.4800 338.5600 L 96.6400 338.5600 L 96.6400 334.7200 L 92.8000 334.7200 L 92.8000 338.5600 L 88.9600 338.5600 L 88.9600 334.7200 L 85.1200 334.7200 L 85.1200 338.5600 L 88.9600 338.5600 L 88.9600 342.4000 L 85.1200 342.4000 L 85.1200 346.2400 L 81.2800 346.2400 L 81.2800 342.4000 L 85.1200 342.4000 L 85.1200 338.5600 L 81.2800 338.5600 L 81.2800 334.7200 L 77.4400 334.7200 L 77.4400 338.5600 L 73.6000 338.5600 L 73.6000 334.7200 L 77.4400 334.7200 L 77.4400 330.8800 L 73.6000 330.8800 L 73.6000 327.0400 L 77.4400 327.0400 L 77.4400 323.2000 L 81.2800 323.2000 L 81.2800 327.0400 L 77.4400 327.0400 L 77.4400 330.8800 L 81.2800 330.8800 L 81.2800 334.7200 L 85.1200 334.7200 L 85.1200 330.8800 L 88.9600 330.8800 L 88.9600 334.7200 L 92.8000 334.7200 L 92.8000 330.8800 L 88.9600 330.8800 L 88.9600 327.0400 L 92.8000 327.0400 L 92.8000 323.2000 L 96.6400 323.2000 L 96.6400 327.0400 L 100.4800 327.0400 L 100.4800 323.2000 L 96.6400 323.2000 L 96.6400 319.3600 L 92.8000 319.3600 L 92.8000 323.2000 L 88.9600 323.2000 L 88.9600 319.3600 L 92.8000 319.3600 L 92.8000 315.5200 L 88.9600 315.5200 L 88.9600 311.6800 L 92.8000 311.6800 L 92.8000 307.8400 L 96.6400 307.8400 L 96.6400 311.6800 L 100.4800 311.6800 L 100.4800 307.8400 L 96.6400 307.8400 L 96.6400 304.0000 L 92.8000 304.0000 L 92.8000 307.8400 L 88.9600 307.8400 L 88.9600 304.0000 L 85.1200 304.0000 L 85.1200 307.8400 L 88.9600 307.8400 L 88.9600 311.6800 L 85.1200 311.6800 L 85.1200 315.5200 L 81.2800 315.5200 L 81.2800 311.6800 L 85.1200 311.6800 L 85.1200 307.8400 L 81.2800 307.8400 L 81.2800 304.0000 L 77.4400 304.0000 L 77.4400 307.8400 L 73.6000 307.8400 L 73.6000 304.0000 L 77.4400 304.0000 L 77.4400 300.1600 L 73.6000 300.1600 L 73.6000 296.3200 L 77.4400 296.3200 L 77.4400 292.4800 L 81.2800 292.4800 L 81.2800 296.3200 L 77.4400 296.3200 L 77.4400 300.1600 L 81.2800 300.1600 L 81.2800 304.0000 L 85.1200 304.0000 L 85.1200 300.1600 L 88.9600 300.1600 L 88.9600 304.0000 L 92.8000 304.0000 L 92.8000 300.1600 L 88.9600 300.1600 L 88.9600 296.3200 L 92.8000 296.3200 L 92.8000 292.4800 L 96.6400 292.4800 L 96.6400 296.3200 L 100.4800 296.3200 L 100.4800 292.4800 L 96.6400 292.4800 L 96.6400 288.6400 L 92.8000 288.6400 L 92.8000 292.4800 L 88.9600 292.4800 L 88.9600 288.6400 L 92.8000 288.6400 L 92.8000 284.8000 L 88.9600 284.8000 L 88.9600 280.9600 L 92.8000 280.9600 L 92.8000 277.1200 L 96.6400 277.1200 L 96.6400 280.9600 L 92.8000 280.9600 L 92.8000 284.8000 L 96.6400 284.8000 L 96.6400 288.6400 L 100.4800 288.6400 L 100.4800 284.8000 L 104.3200 284.8000 L 104.3200 288.6400 L 108.1600 288.6400 L 108.1600 284.8000 L 104.3200 284.8000 L 104.3200 280.9600 L 108.1600 280.9600 L 108.1600 277.1200 L 112.0000 277.1200 L 112.0000 280.9600 L 108.1600 280.9600 L 108.1600 284.8000 L 112.0000 284.8000 L 112.0000 288.6400 L 115.8400 288.6400 L 115.8400 284.8000 L 119.6800 284.8000 L 119.6800 288.6400 L 115.8400 288.6400 L 115.8400 292.4800 L 119.6800 292.4800 L 119.6800 296.3200 L 115.8400 296.3200 L 115.8400 300.1600 L 112.0000 300.1600 L 112.0000 296.3200" fill="none" stroke="#fbbf24" stroke-width="1.75" stroke-linecap="round" stroke-linejoin="round" />
</svg>
