<?xml version="1.0" encoding="UTF-8"?>
<svg id="Layer_1" xmlns="http://www.w3.org/2000/svg" version="1.1" xmlns:xlink="http://www.w3.org/1999/xlink" viewBox="0 0 512 512">
  <!-- Generator: Adobe Illustrator 30.1.0, SVG Export Plug-In . SVG Version: 2.1.1 Build 136)  -->
  <defs>
    <style>
      .st0 {
        fill: none;
      }

      .st1 {
        fill: #f5f5f4;
      }

      .st2 {
        fill: url(#linear-gradient);
        stroke: #ec4899;
        stroke-linecap: round;
        stroke-linejoin: round;
        stroke-width: 2px;
      }
    </style>
    <linearGradient id="linear-gradient" x1="-141.6" y1="455.9" x2="-142.3" y2="455.2" gradientTransform="translate(157972.3 28595.8) rotate(-60) scale(382.2 -331)" gradientUnits="userSpaceOnUse">
      <stop offset="0" stop-color="#ec4899"/>
      <stop offset=".5" stop-color="#db2777"/>
      <stop offset="1" stop-color="#be185d"/>
    </linearGradient>
  </defs>
  <rect class="st0" x="0" y="0" width="512" height="512" transform="translate(-93.7 349.7) rotate(-60)"/>
  <circle class="st1" cx="256" cy="256" r="251"/>
  <path class="st2" d="M67.5,126.4h4.7s2.3,4,2.3,4l2.3-4h4.7s2.3,4,2.3,4l-2.3,4h4.7s2.3,4,2.3,4l2.3-4h4.7s-2.3-4-2.3-4l2.3-4h4.7s2.3,4,2.3,4l2.3-4h4.7s2.3,4,2.3,4l-2.3,4h4.7s2.3,4,2.3,4l-2.3,4h-4.7s2.3,4,2.3,4l-2.3,4h4.7s2.3,4,2.3,4l2.3-4h4.7s2.3,4,2.3,4l-2.3,4h4.7s2.3,4,2.3,4l2.3-4h4.7s-2.3-4-2.3-4l2.3-4h4.7s2.3,4,2.3,4l2.3-4h4.7s-2.3-4-2.3-4l2.3-4h-4.7s-2.3-4-2.3-4l2.3-4h4.7s-2.3-4-2.3-4l2.3-4h4.7s2.3,4,2.3,4l2.3-4h4.7s2.3,4,2.3,4l-2.3,4h4.7s2.3,4,2.3,4l2.3-4h4.7s-2.3-4-2.3-4l2.3-4h4.7s2.3,4,2.3,4l2.3-4h4.7s2.3,4,2.3,4l-2.3,4h4.7s2.3,4,2.3,4l-2.3,4h-4.7s2.3,4,2.3,4l-2.3,4h4.7s2.3,4,2.3,4l2.3-4h4.7s2.3,4,2.3,4l-2.3,4h4.7s2.3,4,2.3,4l-2.3,4h-4.7s2.3,4,2.3,4l-2.3,4h-4.7s-2.3-4-2.3-4l-2.3,4h-4.7s2.3,4,2.3,4l-2.3,4h4.7s2.3,4,2.3,4l-2.3,4h-4.7s2.3,4,2.3,4l-2.3,4h4.7s2.3,4,2.3,4l2.3-4h4.7s2.3,4,2.3,4l-2.3,4h4.7s2.3,4,2.3,4l2.3-4h4.7s-2.3-4-2.3-4l2.3-4h4.7s2.3,4,2.3,4l2.3-4h4.7s2.3,4,2.3,4l-2.3,4h4.7s2.3,4,2.3,4l-2.3,4h-4.7s2.3,4,2.3,4l-2.3,4h4.7s2.3,4,2.3,4l2.3-4h4.7s2.3,4,2.3,4l-2.3,4h4.7s2.3,4,2.3,4l2.3-4h4.7s-2.3-4-2.3-4l2.3-4h4.7s2.3,4,2.3,4l2.3-4h4.7s-2.3-4-2.3-4l2.3-4h-4.7s-2.3-4-2.3-4l2.3-4h4.7s-2.3-4-2.3-4l2.3-4h4.7s2.3,4,2.3,4l2.3-4h4.7s2.3,4,2.3,4l-2.3,4h4.7s2.3,4,2.3,4l2.3-4h4.7s-2.3-4-2.3-4l2.3-4h4.7s2.3,4,2.3,4l2.3-4h4.7s-2.3-4-2.3-4l2.3-4h-4.7s-2.3-4-2.3-4l2.3-4h4.7s-2.3-4-2.3-4l2.3-4h-4.7s-2.3-4-2.3-4l-2.3,4h-4.7s-2.3-4-2.3-4l2.3-4h-4.7s-2.3-4-2.3-4l2.3-4h4.7s-2.3-4-2.3-4l2.3-4h4.7s2.3,4,2.3,4l2.3-4h4.7s-2.3-4-2.3-4l2.3-4h-4.7s-2.3-4-2.3-4l2.3-4h4.7s-2.3-4-2.3-4l2.3-4h4.7s2.3,4,2.3,4l2.3-4h4.7s2.3,4,2.3,4l-2.3,4h4.7s2.3,4,2.3,4l2.3-4h4.7s-2.3-4-2.3-4l2.3-4h4.7s2.3,4,2.3,4l2.3-4h4.7s2.3,4,2.3,4l-2.3,4h4.7s2.3,4,2.3,4l-2.3,4h-4.7s2.3,4,2.3,4l-2.3,4h4.7s2.3,4,2.3,4l2.3-4h4.7s2.3,4,2.3,4l-2.3,4h4.7s2.3,4,2.3,4l2.3-4h4.7s-2.3-4-2.3-4l2.3-4h4.7s2.3,4,2.3,4l2.3-4h4.7s-2.3-4-2.3-4l2.3-4h-4.7s-2.3-4-2.3-4l2.3-4h4.7s-2.3-4-2.3-4l2.3-4h4.7s2.3,4,2.3,4l2.3-4h4.7s2.3,4,2.3,4l-2.3,4h4.7s2.3,4,2.3,4l2.3-4h4.7s-2.3-4-2.3-4l2.3-4h4.7s2.3,4,2.3,4l2.3-4h4.7s-2.3,4-2.3,4h-4.7s2.3,4,2.3,4l-2.3,4h-4.7s-2.3-4-2.3-4l-2.3,4h-4.7s2.3,4,2.3,4l-2.3,4h4.7s2.3,4,2.3,4l-2.3,4h-4.7s2.3,4,2.3,4l-2.3,4h-4.7s-2.3-4-2.3-4l-2.3,4h-4.7s-2.3-4-2.3-4l2.3-4h-4.7s-2.3-4-2.3-4l-2.3,4h-4.7s2.3,4,2.3,4l-2.3,4h-4.7s-2.3-4-2.3-4l-2.3,4h-4.7s2.3,4,2.3,4l-2.3,4h4.7s2.3,4,2.3,4l-2.3,4h-4.7s2.3,4,2.3,4l-2.3,4h4.7s2.3,4,2.3,4l2.3-4h4.7s2.3,4,2.3,4l-2.3,4h4.7s2.3,4,2.3,4l-2.3,4h-4.7s2.3,4,2.3,4l-2.3,4h-4.7s-2.3-4-2.3-4l-2.3,4h-4.7s2.3,4,2.3,4l-2.3,4h4.7s2.3,4,2.3,4l-2.3,4h-4.7s2.3,4,2.3,4l-2.3,4h-4.7s-2.3-4-2.3-4l-2.3,4h-4.7s-2.3-4-2.3-4l2.3-4h-4.7s-2.3-4-2.3-4l-2.3,4h-4.7s2.3,4,2.3,4l-2.3,4h-4.7s-2.3-4-2.3-4l-2.3,4h-4.7s-2.3-4-2.3-4l2.3-4h-4.7s-2.3-4-2.3-4l2.3-4h4.7s-2.3-4-2.3-4l2.3-4h-4.7s-2.3-4-2.3-4l-2.3,4h-4.7s-2.3-4-2.3-4l2.3-4h-4.7s-2.3-4-2.3-4l-2.3,4h-4.7s2.3,4,2.3,4l-2.3,4h-4.7s-2.3-4-2.3-4l-2.3,4h-4.7s2.3,4,2.3,4l-2.3,4h4.7s2.3,4,2.3,4l-2.3,4h-4.7s2.3,4,2.3,4l-2.3,4h-4.7s-2.3-4-2.3-4l-2.3,4h-4.7s-2.3-4-2.3-4l2.3-4h-4.7s-2.3-4-2.3-4l-2.3,4h-4.7s2.3,4,2.3,4l-2.3,4h-4.7s-2.3-4-2.3-4l-2.3,4h-4.7s2.3,4,2.3,4l-2.3,4h4.7s2.3,4,2.3,4l-2.3,4h-4.7s2.3,4,2.3,4l-2.3,4h4.7s2.3,4,2.3,4l2.3-4h4.7s2.3,4,2.3,4l-2.3,4h4.7s2.3,4,2.3,4l-2.3,4h-4.7s2.3,4,2.3,4l-2.3,4h-4.7s-2.3-4-2.3-4l-2.3,4h-4.7s2.3,4,2.3,4l-2.3,4h4.7s2.3,4,2.3,4l-2.3,4h-4.7s2.3,4,2.3,4l-2.3,4h4.7s2.3,4,2.3,4l2.3-4h4.7s2.3,4,2.3,4l-2.3,4h4.7s2.3,4,2.3,4l2.3-4h4.7s-2.3-4-2.3-4l2.3-4h4.7s2.3,4,2.3,4l2.3-4h4.7s2.3,4,2.3,4l-2.3,4h4.7s2.3,4,2.3,4l-2.3,4h-4.7s2.3,4,2.3,4l-2.3,4h4.7s2.3,4,2.3,4l2.3-4h4.7s2.3,4,2.3,4l-2.3,4h4.7s2.3,4,2.3,4l-2.3,4h-4.7s2.3,4,2.3,4l-2.3,4h-4.7s-2.3-4-2.3-4l-2.3,4h-4.7s2.3,4,2.3,4l-2.3,4h4.7s2.3,4,2.3,4l-2.3,4h-4.7s2.3,4,2.3,4l-2.3,4h-4.7s-2.3-4-2.3-4l-2.3,4h-4.7s-2.3-4-2.3-4l2.3-4h-4.7s-2.3-4-2.3-4l-2.3,4h-4.7s2.3,4,2.3,4l-2.3,4h-4.7s-2.3-4-2.3-4l-2.3,4h-4.7s2.3,4,2.3,4l-2.3,4h4.7s2.3,4,2.3,4l-2.3,4h-4.7s2.3,4,2.3,4l-2.3,4h4.7s2.3,4,2.3,4l2.3-4h4.7s2.3,4,2.3,4l-2.3,4h4.7s2.3,4,2.3,4l-2.3,4h-4.7s2.3,4,2.3,4l-2.3,4h-4.7s-2.3-4-2.3-4l-2.3,4h-4.7s2.3,4,2.3,4l-2.3,4h4.7s2.3,4,2.3,4l-2.3,4h-4.7s2.3,4,2.3,4l-2.3,4-2.3-4,2.3-4h-4.7s-2.3-4-2.3-4l2.3-4h4.7s-2.3-4-2.3-4l2.3-4h-4.7s-2.3-4-2.3-4l-2.3,4h-4.7s-2.3-4-2.3-4l2.3-4h-4.7s-2.3-4-2.3-4l2.3-4h4.7s-2.3-4-2.3-4l2.3-4h4.7s2.3,4,2.3,4l2.3-4h4.7s-2.3-4-2.3-4l2.3-4h-4.7s-2.3-4-2.3-4l2.3-4h4.7s-2.3-4-2.3-4l2.3-4h-4.7s-2.3-4-2.3-4l-2.3,4h-4.7s-2.3-4-2.3-4l2.3-4h-4.7s-2.3-4-2.3-4l-2.3,4h-4.7s2.3,4,2.3,4l-2.3,4h-4.7s-2.3-4-2.3-4l-2.3,4h-4.7s-2.3-4-2.3-4l2.3-4h-4.7s-2.3-4-2.3-4l2.3-4h4.7s-2.3-4-2.3-4l2.3-4h-4.7s-2.3-4-2.3-4l-2.3,4h-4.7s-2.3-4-2.3-4l2.3-4h-4.7s-2.3-4-2.3-4l2.3-4h4.7s-2.3-4-2.3-4l2.3-4h4.7s2.3,4,2.3,4l2.3-4h4.7s-2.3-4-2.3-4l2.3-4h-4.7s-2.3-4-2.3-4l2.3-4h4.7s-2.3-4-2.3-4l2.3-4h4.7s2.3,4,2.3,4l2.3-4h4.7s2.3,4,2.3,4l-2.3,4h4.7s2.3,4,2.3,4l2.3-4h4.7s-2.3-4-2.3-4l2.3-4h4.7s2.3,4,2.3,4l2.3-4h4.7s-2.3-4-2.3-4l2.3-4h-4.7s-2.3-4-2.3-4l2.3-4h4.7s-2.3-4-2.3-4l2.3-4h-4.7s-2.3-4-2.3-4l-2.3,4h-4.7s-2.3-4-2.3-4l2.3-4h-4.7s-2.3-4-2.3-4l2.3-4h4.7s-2.3-4-2.3-4l2.3-4h4.7s2.3,4,2.3,4l2.3-4h4.7s-2.3-4-2.3-4l2.3-4h-4.7s-2.3-4-2.3-4l2.3-4h4.7s-2.3-4-2.3-4l2.3-4h-4.7s-2.3-4-2.3-4l-2.3,4h-4.7s-2.3-4-2.3-4l2.3-4h-4.7s-2.3-4-2.3-4l-2.3,4h-4.7s2.3,4,2.3,4l-2.3,4h-4.7s-2.3-4-2.3-4l-2.3,4h-4.7s-2.3-4-2.3-4l2.3-4h-4.7s-2.3-4-2.3-4l2.3-4h4.7s-2.3-4-2.3-4l2.3-4h-4.7s-2.3-4-2.3-4l-2.3,4h-4.7s-2.3-4-2.3-4l2.3-4h-4.7s-2.3-4-2.3-4l-2.3,4h-4.7s2.3,4,2.3,4l-2.3,4h-4.7s-2.3-4-2.3-4l-2.3,4h-4.7s2.3,4,2.3,4l-2.3,4h4.7s2.3,4,2.3,4l-2.3,4h-4.7s2.3,4,2.3,4l-2.3,4h-4.7s-2.3-4-2.3-4l-2.3,4h-4.7s-2.3-4-2.3-4l2.3-4h-4.7s-2.3-4-2.3-4l-2.3,4h-4.7s2.3,4,2.3,4l-2.3,4h-4.7s-2.3-4-2.3-4l-2.3,4h-4.7s-2.3-4-2.3-4l2.3-4h-4.7s-2.3-4-2.3-4l2.3-4h4.7s-2.3-4-2.3-4l2.3-4h-4.7s-2.3-4-2.3-4l-2.3,4h-4.7s-2.3-4-2.3-4l2.3-4h-4.7s-2.3-4-2.3-4l2.3-4h4.7s-2.3-4-2.3-4l2.3-4h4.7s2.3,4,2.3,4l2.3-4h4.7s-2.3-4-2.3-4l2.3-4h-4.7s-2.3-4-2.3-4l2.3-4h4.7s-2.3-4-2.3-4l2.3-4h-4.7s-2.3-4-2.3-4l-2.3,4h-4.7s-2.3-4-2.3-4l2.3-4h-4.7s-2.3-4-2.3-4l-2.3,4h-4.7s2.3,4,2.3,4l-2.3,4h-4.7s-2.3-4-2.3-4l-2.3,4h-4.7s-2.3-4-2.3-4l2.3-4h-4.7s-2.3-4-2.3-4l2.3-4h4.7s-2.3-4-2.3-4l2.3-4h-4.7s-2.3-4-2.3-4l-2.3,4h-4.7s-2.3-4-2.3-4l2.3-4h-4.7s-2.3-4-2.3-4Z"/>
</svg>